STARTFONT 2.1
COMMENT
COMMENT Converted from OpenType font ".\_Fonts\³ª´®°íµñÄÚµù-Bold.ttf" by "otf2bdf.exe 3.0".
COMMENT
FONT -FreeType-NanumGothicCoding-Bold-R-Normal--24-240-72-72-P-205-ISO10646-1
SIZE 24 72 72
FONTBOUNDINGBOX 24 26 0 -5
STARTPROPERTIES 19
FOUNDRY "FreeType"
FAMILY_NAME "NanumGothicCoding"
WEIGHT_NAME "Bold"
SLANT "R"
SETWIDTH_NAME "Normal"
ADD_STYLE_NAME ""
PIXEL_SIZE 24
POINT_SIZE 240
RESOLUTION_X 72
RESOLUTION_Y 72
SPACING "P"
AVERAGE_WIDTH 205
CHARSET_REGISTRY "ISO10646"
CHARSET_ENCODING "1"
FONT_ASCENT 19
FONT_DESCENT 4
COPYRIGHT "Copyright © 2009 NHN Corporation. All rights reserved. Font designed by Sandoll Communications Inc."
_OTF_FONTFILE ".\_Fonts\³ª´®°íµñÄÚµù-Bold.ttf"
_OTF_PSNAME "NanumGothicCoding-Bold"
ENDPROPERTIES
CHARS 12477
STARTCHAR 0000
ENCODING 0
SWIDTH 1000 0
DWIDTH 24 0
BBX 0 0 0 0
BITMAP
ENDCHAR
STARTCHAR 0001
ENCODING 1
SWIDTH 1000 0
DWIDTH 24 0
BBX 0 0 0 0
BITMAP
ENDCHAR
STARTCHAR 0002
ENCODING 2
SWIDTH 1000 0
DWIDTH 24 0
BBX 0 0 0 0
BITMAP
ENDCHAR
STARTCHAR 0003
ENCODING 3
SWIDTH 1000 0
DWIDTH 24 0
BBX 0 0 0 0
BITMAP
ENDCHAR
STARTCHAR 0004
ENCODING 4
SWIDTH 1000 0
DWIDTH 24 0
BBX 0 0 0 0
BITMAP
ENDCHAR
STARTCHAR 0005
ENCODING 5
SWIDTH 1000 0
DWIDTH 24 0
BBX 0 0 0 0
BITMAP
ENDCHAR
STARTCHAR 0006
ENCODING 6
SWIDTH 1000 0
DWIDTH 24 0
BBX 0 0 0 0
BITMAP
ENDCHAR
STARTCHAR 0007
ENCODING 7
SWIDTH 1000 0
DWIDTH 24 0
BBX 0 0 0 0
BITMAP
ENDCHAR
STARTCHAR 0008
ENCODING 8
SWIDTH 1000 0
DWIDTH 24 0
BBX 0 0 0 0
BITMAP
ENDCHAR
STARTCHAR 0009
ENCODING 9
SWIDTH 1000 0
DWIDTH 24 0
BBX 0 0 0 0
BITMAP
ENDCHAR
STARTCHAR 000A
ENCODING 10
SWIDTH 1000 0
DWIDTH 24 0
BBX 0 0 0 0
BITMAP
ENDCHAR
STARTCHAR 000B
ENCODING 11
SWIDTH 1000 0
DWIDTH 24 0
BBX 0 0 0 0
BITMAP
ENDCHAR
STARTCHAR 000C
ENCODING 12
SWIDTH 1000 0
DWIDTH 24 0
BBX 0 0 0 0
BITMAP
ENDCHAR
STARTCHAR 000D
ENCODING 13
SWIDTH 1000 0
DWIDTH 24 0
BBX 0 0 0 0
BITMAP
ENDCHAR
STARTCHAR 000E
ENCODING 14
SWIDTH 1000 0
DWIDTH 24 0
BBX 0 0 0 0
BITMAP
ENDCHAR
STARTCHAR 000F
ENCODING 15
SWIDTH 1000 0
DWIDTH 24 0
BBX 0 0 0 0
BITMAP
ENDCHAR
STARTCHAR 0010
ENCODING 16
SWIDTH 1000 0
DWIDTH 24 0
BBX 0 0 0 0
BITMAP
ENDCHAR
STARTCHAR 0011
ENCODING 17
SWIDTH 1000 0
DWIDTH 24 0
BBX 0 0 0 0
BITMAP
ENDCHAR
STARTCHAR 0012
ENCODING 18
SWIDTH 1000 0
DWIDTH 24 0
BBX 0 0 0 0
BITMAP
ENDCHAR
STARTCHAR 0013
ENCODING 19
SWIDTH 1000 0
DWIDTH 24 0
BBX 0 0 0 0
BITMAP
ENDCHAR
STARTCHAR 0014
ENCODING 20
SWIDTH 1000 0
DWIDTH 24 0
BBX 0 0 0 0
BITMAP
ENDCHAR
STARTCHAR 0015
ENCODING 21
SWIDTH 1000 0
DWIDTH 24 0
BBX 0 0 0 0
BITMAP
ENDCHAR
STARTCHAR 0016
ENCODING 22
SWIDTH 1000 0
DWIDTH 24 0
BBX 0 0 0 0
BITMAP
ENDCHAR
STARTCHAR 0017
ENCODING 23
SWIDTH 1000 0
DWIDTH 24 0
BBX 0 0 0 0
BITMAP
ENDCHAR
STARTCHAR 0018
ENCODING 24
SWIDTH 1000 0
DWIDTH 24 0
BBX 0 0 0 0
BITMAP
ENDCHAR
STARTCHAR 0019
ENCODING 25
SWIDTH 1000 0
DWIDTH 24 0
BBX 0 0 0 0
BITMAP
ENDCHAR
STARTCHAR 001A
ENCODING 26
SWIDTH 1000 0
DWIDTH 24 0
BBX 0 0 0 0
BITMAP
ENDCHAR
STARTCHAR 001B
ENCODING 27
SWIDTH 1000 0
DWIDTH 24 0
BBX 0 0 0 0
BITMAP
ENDCHAR
STARTCHAR 001C
ENCODING 28
SWIDTH 1000 0
DWIDTH 24 0
BBX 0 0 0 0
BITMAP
ENDCHAR
STARTCHAR 001D
ENCODING 29
SWIDTH 1000 0
DWIDTH 24 0
BBX 0 0 0 0
BITMAP
ENDCHAR
STARTCHAR 001E
ENCODING 30
SWIDTH 1000 0
DWIDTH 24 0
BBX 0 0 0 0
BITMAP
ENDCHAR
STARTCHAR 001F
ENCODING 31
SWIDTH 1000 0
DWIDTH 24 0
BBX 0 0 0 0
BITMAP
ENDCHAR
STARTCHAR 0020
ENCODING 32
SWIDTH 1000 0
DWIDTH 24 0
BBX 0 0 0 0
BITMAP
ENDCHAR
STARTCHAR 0021
ENCODING 33
SWIDTH 1000 0
DWIDTH 24 0
BBX 3 18 4 -2
BITMAP
E0
E0
E0
E0
E0
E0
E0
E0
E0
E0
E0
E0
E0
00
40
E0
E0
40
ENDCHAR
STARTCHAR 0022
ENCODING 34
SWIDTH 1000 0
DWIDTH 24 0
BBX 7 6 3 12
BITMAP
EE
EE
EE
EE
EE
EE
ENDCHAR
STARTCHAR 0023
ENCODING 35
SWIDTH 1000 0
DWIDTH 24 0
BBX 12 17 1 -1
BITMAP
0DC0
0D80
1D80
1D80
7FF0
7FF0
1B80
1B80
1B00
1B00
FFC0
FFC0
3300
3300
3700
3700
3700
ENDCHAR
STARTCHAR 0024
ENCODING 36
SWIDTH 1000 0
DWIDTH 24 0
BBX 10 22 1 -4
BITMAP
1C00
1C00
1F80
7F80
7F80
FC00
FC00
FC00
FC00
7C00
3E00
1F00
1F80
1DC0
1DC0
1DC0
1DC0
FF80
FF00
FE00
1C00
1C00
ENDCHAR
STARTCHAR 0025
ENCODING 37
SWIDTH 1000 0
DWIDTH 24 0
BBX 12 21 0 -3
BITMAP
1C00
3E00
7700
6300
6300
6300
7E00
3E60
00E0
03C0
0780
1E00
3C00
F9C0
63E0
0770
0630
0630
0770
03E0
01C0
ENDCHAR
STARTCHAR 0026
ENCODING 38
SWIDTH 1000 0
DWIDTH 24 0
BBX 12 17 1 -1
BITMAP
1E00
3F00
7F00
7380
7300
3700
3E00
3C60
7C60
E660
E760
E3C0
E1C0
E1C0
77C0
7F60
3E70
ENDCHAR
STARTCHAR 0027
ENCODING 39
SWIDTH 1000 0
DWIDTH 24 0
BBX 3 6 5 12
BITMAP
E0
E0
E0
E0
E0
E0
ENDCHAR
STARTCHAR 0028
ENCODING 40
SWIDTH 1000 0
DWIDTH 24 0
BBX 6 25 3 -5
BITMAP
0C
1C
18
38
30
70
70
60
E0
E0
E0
E0
E0
E0
E0
E0
E0
60
60
70
30
38
18
1C
0C
ENDCHAR
STARTCHAR 0029
ENCODING 41
SWIDTH 1000 0
DWIDTH 24 0
BBX 7 25 3 -5
BITMAP
E0
60
70
38
38
18
1C
1C
0C
0C
0C
0E
0E
0E
0E
0C
0C
1C
1C
18
38
38
70
60
E0
ENDCHAR
STARTCHAR 002A
ENCODING 42
SWIDTH 1000 0
DWIDTH 24 0
BBX 10 10 1 4
BITMAP
0C00
0C00
4C00
7FC0
FFC0
1F00
1F00
3B00
7380
1100
ENDCHAR
STARTCHAR 002B
ENCODING 43
SWIDTH 1000 0
DWIDTH 24 0
BBX 12 13 1 1
BITMAP
0E00
0E00
0E00
0E00
0E00
FFF0
FFF0
0E00
0E00
0E00
0E00
0E00
0E00
ENDCHAR
STARTCHAR 002C
ENCODING 44
SWIDTH 1000 0
DWIDTH 24 0
BBX 5 6 3 -5
BITMAP
18
38
70
70
E0
E0
ENDCHAR
STARTCHAR 002D
ENCODING 45
SWIDTH 1000 0
DWIDTH 24 0
BBX 9 2 1 8
BITMAP
FF80
FF80
ENDCHAR
STARTCHAR 002E
ENCODING 46
SWIDTH 1000 0
DWIDTH 24 0
BBX 4 4 4 -3
BITMAP
60
F0
F0
60
ENDCHAR
STARTCHAR 002F
ENCODING 47
SWIDTH 1000 0
DWIDTH 24 0
BBX 8 20 2 -2
BITMAP
03
07
07
06
0E
0E
0E
1C
1C
1C
38
38
38
70
70
70
E0
E0
E0
C0
ENDCHAR
STARTCHAR 0030
ENCODING 48
SWIDTH 1000 0
DWIDTH 24 0
BBX 10 17 1 -1
BITMAP
1E00
3F00
7F80
7380
E1C0
EFC0
EFC0
EFC0
EFC0
EFC0
E1C0
E1C0
E1C0
6380
7F80
3F00
1E00
ENDCHAR
STARTCHAR 0031
ENCODING 49
SWIDTH 1000 0
DWIDTH 24 0
BBX 6 17 3 -1
BITMAP
1C
3C
7C
FC
DC
1C
1C
1C
1C
1C
1C
1C
1C
1C
1C
1C
1C
ENDCHAR
STARTCHAR 0032
ENCODING 50
SWIDTH 1000 0
DWIDTH 24 0
BBX 10 17 1 -1
BITMAP
3E00
7F00
7F80
4180
01C0
01C0
0380
0380
0700
0E00
0E00
1C00
3800
7000
F000
FFC0
FFC0
ENDCHAR
STARTCHAR 0033
ENCODING 51
SWIDTH 1000 0
DWIDTH 24 0
BBX 10 18 1 -2
BITMAP
3E00
7F00
7F80
0180
01C0
01C0
0380
0F80
3E00
3F00
0380
0180
01C0
01C0
0380
FF80
FF00
7C00
ENDCHAR
STARTCHAR 0034
ENCODING 52
SWIDTH 1000 0
DWIDTH 24 0
BBX 11 17 1 -1
BITMAP
0380
0780
0780
0F80
1F80
1B80
3B80
7380
6380
E380
FFE0
FFE0
0380
0380
0380
0380
0380
ENDCHAR
STARTCHAR 0035
ENCODING 53
SWIDTH 1000 0
DWIDTH 24 0
BBX 9 17 1 -1
BITMAP
FF00
FF00
E000
E000
E000
E000
FE00
FF00
8780
0380
0380
0380
0380
0380
EF00
FE00
FC00
ENDCHAR
STARTCHAR 0036
ENCODING 54
SWIDTH 1000 0
DWIDTH 24 0
BBX 10 18 1 -2
BITMAP
0F80
1F80
3D80
7000
6000
E000
FE00
FF00
FF80
E1C0
E1C0
E1C0
E1C0
E1C0
61C0
7F80
3F00
1E00
ENDCHAR
STARTCHAR 0037
ENCODING 55
SWIDTH 1000 0
DWIDTH 24 0
BBX 9 17 1 -1
BITMAP
FF80
FF80
0380
0300
0700
0700
0600
0E00
0E00
1C00
1C00
1800
3800
3800
7000
7000
7000
ENDCHAR
STARTCHAR 0038
ENCODING 56
SWIDTH 1000 0
DWIDTH 24 0
BBX 11 18 1 -2
BITMAP
1F00
3F80
7FC0
E1C0
E1C0
61C0
7380
3F80
1F00
3F80
73C0
E1C0
E0E0
E0E0
E1C0
7FC0
7F80
1F00
ENDCHAR
STARTCHAR 0039
ENCODING 57
SWIDTH 1000 0
DWIDTH 24 0
BBX 10 18 1 -2
BITMAP
1E00
3F00
7F80
E180
E1C0
E1C0
E1C0
E1C0
E1C0
7FC0
3FC0
1FC0
01C0
0180
0380
6F00
7E00
7C00
ENDCHAR
STARTCHAR 003A
ENCODING 58
SWIDTH 1000 0
DWIDTH 24 0
BBX 4 14 4 1
BITMAP
60
F0
F0
60
00
00
00
00
00
00
60
F0
F0
60
ENDCHAR
STARTCHAR 003B
ENCODING 59
SWIDTH 1000 0
DWIDTH 24 0
BBX 6 17 3 -2
BITMAP
18
3C
3C
18
00
00
00
00
00
00
00
38
38
70
70
E0
E0
ENDCHAR
STARTCHAR 003C
ENCODING 60
SWIDTH 1000 0
DWIDTH 24 0
BBX 11 23 1 -4
BITMAP
0060
00E0
01E0
03C0
0780
0F00
0E00
1C00
3800
7000
F000
E000
F000
7800
3C00
1C00
0E00
0700
0380
01C0
01C0
00E0
0060
ENDCHAR
STARTCHAR 003D
ENCODING 61
SWIDTH 1000 0
DWIDTH 24 0
BBX 11 7 1 4
BITMAP
FFE0
FFE0
0000
0000
0000
FFE0
FFE0
ENDCHAR
STARTCHAR 003E
ENCODING 62
SWIDTH 1000 0
DWIDTH 24 0
BBX 11 23 1 -4
BITMAP
8000
C000
E000
7000
3800
3C00
1E00
0F00
0780
03C0
01C0
01E0
01C0
03C0
0780
0F00
1E00
3C00
7800
F000
E000
C000
8000
ENDCHAR
STARTCHAR 003F
ENCODING 63
SWIDTH 1000 0
DWIDTH 24 0
BBX 9 18 2 0
BITMAP
FE00
FF00
8380
0380
0380
0380
0700
0700
0E00
1C00
1800
3800
3800
0000
1000
3800
3800
1000
ENDCHAR
STARTCHAR 0040
ENCODING 64
SWIDTH 1000 0
DWIDTH 24 0
BBX 12 18 1 -2
BITMAP
0F00
1FC0
3FC0
7060
6EA0
DFB0
D9B0
F1B0
F130
F330
F360
FFE0
DFC0
7DE0
7060
3FC0
1FC0
0F00
ENDCHAR
STARTCHAR 0041
ENCODING 65
SWIDTH 1000 0
DWIDTH 24 0
BBX 12 17 0 -1
BITMAP
0F00
0F00
0F00
0F00
1F80
1980
1980
1980
39C0
3FC0
3FC0
3FC0
70E0
70E0
6060
6060
E070
ENDCHAR
STARTCHAR 0042
ENCODING 66
SWIDTH 1000 0
DWIDTH 24 0
BBX 9 17 2 -1
BITMAP
FC00
FF00
EF80
E380
E380
E380
EF00
FE00
FF00
E700
E380
E380
E380
E380
EF00
FE00
FC00
ENDCHAR
STARTCHAR 0043
ENCODING 67
SWIDTH 1000 0
DWIDTH 24 0
BBX 9 17 1 -1
BITMAP
0F80
1F80
3F80
7000
6000
E000
E000
E000
E000
E000
E000
E000
7000
7000
3D80
1F80
0F80
ENDCHAR
STARTCHAR 0044
ENCODING 68
SWIDTH 1000 0
DWIDTH 24 0
BBX 10 17 1 -1
BITMAP
FC00
FF00
EF00
E380
E180
E1C0
E1C0
E1C0
E1C0
E1C0
E1C0
E1C0
E380
E380
EF00
FE00
FC00
ENDCHAR
STARTCHAR 0045
ENCODING 69
SWIDTH 1000 0
DWIDTH 24 0
BBX 9 17 2 -1
BITMAP
FF80
FF80
E000
E000
E000
E000
E000
FF80
FF80
E000
E000
E000
E000
E000
E000
FF80
FF80
ENDCHAR
STARTCHAR 0046
ENCODING 70
SWIDTH 1000 0
DWIDTH 24 0
BBX 9 17 2 -1
BITMAP
FF80
FF80
E000
E000
E000
E000
E000
FF80
FF80
E000
E000
E000
E000
E000
E000
E000
E000
ENDCHAR
STARTCHAR 0047
ENCODING 71
SWIDTH 1000 0
DWIDTH 24 0
BBX 10 18 1 -2
BITMAP
0F80
1F80
3F80
7000
7000
E000
E000
E000
E7C0
E7C0
E1C0
E1C0
E1C0
71C0
71C0
3FC0
1FC0
0F80
ENDCHAR
STARTCHAR 0048
ENCODING 72
SWIDTH 1000 0
DWIDTH 24 0
BBX 9 17 1 -1
BITMAP
E380
E380
E380
E380
E380
E380
E380
FF80
FF80
E380
E380
E380
E380
E380
E380
E380
E380
ENDCHAR
STARTCHAR 0049
ENCODING 73
SWIDTH 1000 0
DWIDTH 24 0
BBX 8 17 2 -1
BITMAP
FF
FF
1C
1C
1C
1C
1C
1C
1C
1C
1C
1C
1C
1C
1C
FF
FF
ENDCHAR
STARTCHAR 004A
ENCODING 74
SWIDTH 1000 0
DWIDTH 24 0
BBX 9 17 1 -1
BITMAP
7F80
7F80
0380
0380
0380
0380
0380
0380
0380
0380
0380
E380
E380
E300
FF00
7F00
3E00
ENDCHAR
STARTCHAR 004B
ENCODING 75
SWIDTH 1000 0
DWIDTH 24 0
BBX 10 17 2 -1
BITMAP
E1C0
E380
E380
E700
EE00
EE00
FC00
FC00
FC00
FE00
E600
E700
E700
E300
E380
E380
E1C0
ENDCHAR
STARTCHAR 004C
ENCODING 76
SWIDTH 1000 0
DWIDTH 24 0
BBX 9 17 2 -1
BITMAP
E000
E000
E000
E000
E000
E000
E000
E000
E000
E000
E000
E000
E000
E000
FF80
FF80
FF80
ENDCHAR
STARTCHAR 004D
ENCODING 77
SWIDTH 1000 0
DWIDTH 24 0
BBX 10 17 1 -1
BITMAP
F3C0
F3C0
F3C0
F3C0
F3C0
F3C0
FFC0
FFC0
FFC0
FFC0
FFC0
EFC0
EDC0
EDC0
EDC0
E1C0
E1C0
ENDCHAR
STARTCHAR 004E
ENCODING 78
SWIDTH 1000 0
DWIDTH 24 0
BBX 10 17 1 -1
BITMAP
E1C0
E1C0
F1C0
F1C0
F1C0
F9C0
F9C0
E9C0
EDC0
EDC0
EDC0
E7C0
E7C0
E7C0
E3C0
E3C0
E3C0
ENDCHAR
STARTCHAR 004F
ENCODING 79
SWIDTH 1000 0
DWIDTH 24 0
BBX 10 18 1 -2
BITMAP
1E00
3F00
7F80
7380
61C0
E1C0
E1C0
E1C0
E1C0
E1C0
E1C0
E1C0
E1C0
6180
7380
7F80
3F00
1E00
ENDCHAR
STARTCHAR 0050
ENCODING 80
SWIDTH 1000 0
DWIDTH 24 0
BBX 10 17 2 -1
BITMAP
FE00
FF00
EF80
E180
E1C0
E1C0
E380
EF80
FF00
FC00
E000
E000
E000
E000
E000
E000
E000
ENDCHAR
STARTCHAR 0051
ENCODING 81
SWIDTH 1000 0
DWIDTH 24 0
BBX 10 21 1 -5
BITMAP
1E00
3F00
7F80
7380
61C0
E1C0
E1C0
E1C0
E1C0
E1C0
E1C0
E1C0
E1C0
6180
7380
7F80
3F00
1E00
0700
0380
01C0
ENDCHAR
STARTCHAR 0052
ENCODING 82
SWIDTH 1000 0
DWIDTH 24 0
BBX 10 17 1 -1
BITMAP
FC00
FF00
EF00
E380
E380
E380
E380
EF00
FF00
FC00
EE00
E600
E700
E300
E380
E1C0
E1C0
ENDCHAR
STARTCHAR 0053
ENCODING 83
SWIDTH 1000 0
DWIDTH 24 0
BBX 10 18 1 -2
BITMAP
1F00
7F80
7B00
E000
E000
E000
F000
7800
3C00
0F00
0780
0380
01C0
01C0
0180
EF80
FF00
7E00
ENDCHAR
STARTCHAR 0054
ENCODING 84
SWIDTH 1000 0
DWIDTH 24 0
BBX 11 17 1 -1
BITMAP
FFE0
FFE0
0E00
0E00
0E00
0E00
0E00
0E00
0E00
0E00
0E00
0E00
0E00
0E00
0E00
0E00
0E00
ENDCHAR
STARTCHAR 0055
ENCODING 85
SWIDTH 1000 0
DWIDTH 24 0
BBX 10 18 1 -2
BITMAP
E1C0
E1C0
E1C0
E1C0
E1C0
E1C0
E1C0
E1C0
E1C0
E1C0
E1C0
E1C0
E1C0
E180
E380
7F80
7F00
1E00
ENDCHAR
STARTCHAR 0056
ENCODING 86
SWIDTH 1000 0
DWIDTH 24 0
BBX 10 17 1 -1
BITMAP
E1C0
E1C0
E1C0
E1C0
6180
6380
7380
7380
3380
3300
3700
3F00
3F00
1E00
1E00
1E00
1E00
ENDCHAR
STARTCHAR 0057
ENCODING 87
SWIDTH 1000 0
DWIDTH 24 0
BBX 10 17 1 -1
BITMAP
C1C0
C1C0
DFC0
DFC0
DF80
DF80
DF80
FF80
F780
F780
7780
7780
7780
7780
7780
7700
7300
ENDCHAR
STARTCHAR 0058
ENCODING 88
SWIDTH 1000 0
DWIDTH 24 0
BBX 10 17 1 -1
BITMAP
E1C0
E1C0
7380
7380
3F00
3F00
1E00
1E00
1E00
1E00
3F00
3F00
7300
7380
6180
E1C0
C0C0
ENDCHAR
STARTCHAR 0059
ENCODING 89
SWIDTH 1000 0
DWIDTH 24 0
BBX 11 17 1 -1
BITMAP
E0E0
E1C0
71C0
7180
3380
3B80
3B00
1F00
1E00
0E00
0E00
0E00
0E00
0E00
0E00
0E00
0E00
ENDCHAR
STARTCHAR 005A
ENCODING 90
SWIDTH 1000 0
DWIDTH 24 0
BBX 10 17 1 -1
BITMAP
FF80
FF80
0380
0300
0700
0600
0E00
0C00
1C00
1800
3800
3000
7000
6000
E000
FFC0
FFC0
ENDCHAR
STARTCHAR 005B
ENCODING 91
SWIDTH 1000 0
DWIDTH 24 0
BBX 5 24 4 -4
BITMAP
F8
F8
E0
E0
E0
E0
E0
E0
E0
E0
E0
E0
E0
E0
E0
E0
E0
E0
E0
E0
E0
E0
F8
F8
ENDCHAR
STARTCHAR 005C
ENCODING 92
SWIDTH 1000 0
DWIDTH 24 0
BBX 8 22 2 -3
BITMAP
C0
C0
E0
E0
60
70
70
30
38
38
38
18
1C
1C
0C
0E
0E
06
07
07
07
03
ENDCHAR
STARTCHAR 005D
ENCODING 93
SWIDTH 1000 0
DWIDTH 24 0
BBX 5 24 4 -4
BITMAP
F8
F8
38
38
38
38
38
38
38
38
38
38
38
38
38
38
38
38
38
38
38
38
F8
F8
ENDCHAR
STARTCHAR 005E
ENCODING 94
SWIDTH 1000 0
DWIDTH 24 0
BBX 10 10 1 8
BITMAP
0E00
1E00
1E00
3F00
3300
7380
6180
E1C0
C0C0
C0C0
ENDCHAR
STARTCHAR 005F
ENCODING 95
SWIDTH 1000 0
DWIDTH 24 0
BBX 12 2 1 -3
BITMAP
FFF0
FFF0
ENDCHAR
STARTCHAR 0060
ENCODING 96
SWIDTH 1000 0
DWIDTH 24 0
BBX 6 4 3 14
BITMAP
F0
70
38
1C
ENDCHAR
STARTCHAR 0061
ENCODING 97
SWIDTH 1000 0
DWIDTH 24 0
BBX 10 14 1 -2
BITMAP
1E00
7F80
7F80
4180
01C0
1FC0
7FC0
7FC0
E1C0
E1C0
E3C0
FFC0
7FC0
3C00
ENDCHAR
STARTCHAR 0062
ENCODING 98
SWIDTH 1000 0
DWIDTH 24 0
BBX 10 20 1 -2
BITMAP
E000
E000
E000
E000
E000
E000
EE00
FF00
FF80
E180
E1C0
E1C0
E1C0
E1C0
E1C0
E1C0
E180
FF80
FF00
0E00
ENDCHAR
STARTCHAR 0063
ENCODING 99
SWIDTH 1000 0
DWIDTH 24 0
BBX 9 14 2 -2
BITMAP
0F80
3F80
7F80
7000
E000
E000
E000
E000
E000
E000
7000
7F80
3F80
1F80
ENDCHAR
STARTCHAR 0064
ENCODING 100
SWIDTH 1000 0
DWIDTH 24 0
BBX 10 20 1 -2
BITMAP
01C0
01C0
01C0
01C0
01C0
01C0
1DC0
3FC0
7FC0
61C0
E1C0
E1C0
E1C0
E1C0
E1C0
E1C0
61C0
7FC0
3FC0
1C00
ENDCHAR
STARTCHAR 0065
ENCODING 101
SWIDTH 1000 0
DWIDTH 24 0
BBX 10 14 1 -2
BITMAP
1E00
3F00
7F80
6380
E180
E180
FF80
FFC0
E000
E000
6000
7B80
3F80
1F00
ENDCHAR
STARTCHAR 0066
ENCODING 102
SWIDTH 1000 0
DWIDTH 24 0
BBX 10 19 1 -1
BITMAP
07C0
0FC0
1EC0
1C00
1C00
1C00
1C00
FFC0
FFC0
1C00
1C00
1C00
1C00
1C00
1C00
1C00
1C00
1C00
1C00
ENDCHAR
STARTCHAR 0067
ENCODING 103
SWIDTH 1000 0
DWIDTH 24 0
BBX 10 17 1 -5
BITMAP
1DC0
7FC0
7FC0
E3C0
E1C0
E1C0
E1C0
E1C0
E1C0
E3C0
7FC0
3FC0
1D80
0380
7F80
7F00
3E00
ENDCHAR
STARTCHAR 0068
ENCODING 104
SWIDTH 1000 0
DWIDTH 24 0
BBX 9 19 1 -1
BITMAP
E000
E000
E000
E000
E000
E000
FE00
FF00
FF00
E380
E380
E380
E380
E380
E380
E380
E380
E380
E380
ENDCHAR
STARTCHAR 0069
ENCODING 105
SWIDTH 1000 0
DWIDTH 24 0
BBX 9 19 1 -1
BITMAP
0C00
1E00
1E00
0C00
0000
0000
FC00
FC00
1C00
1C00
1C00
1C00
1C00
1C00
1C00
1C00
1C00
FF80
FF80
ENDCHAR
STARTCHAR 006A
ENCODING 106
SWIDTH 1000 0
DWIDTH 24 0
BBX 9 23 1 -5
BITMAP
0300
0780
0780
0300
0000
0000
3F80
3F80
0380
0380
0380
0380
0380
0380
0380
0380
E380
E380
E380
E380
FF80
7F00
3E00
ENDCHAR
STARTCHAR 006B
ENCODING 107
SWIDTH 1000 0
DWIDTH 24 0
BBX 10 19 1 -1
BITMAP
E000
E000
E000
E000
E000
E000
E380
E380
E700
EE00
FC00
FC00
FC00
FE00
E700
E700
E380
E380
E1C0
ENDCHAR
STARTCHAR 006C
ENCODING 108
SWIDTH 1000 0
DWIDTH 24 0
BBX 9 19 1 -1
BITMAP
7C00
7C00
1C00
1C00
1C00
1C00
1C00
1C00
1C00
1C00
1C00
1C00
1C00
1C00
1C00
1C00
1C00
FF80
FF80
ENDCHAR
STARTCHAR 006D
ENCODING 109
SWIDTH 1000 0
DWIDTH 24 0
BBX 9 13 1 -1
BITMAP
D300
FF80
FF80
FD80
FD80
FD80
FD80
FD80
FD80
FD80
FD80
FD80
FD80
ENDCHAR
STARTCHAR 006E
ENCODING 110
SWIDTH 1000 0
DWIDTH 24 0
BBX 10 13 1 -1
BITMAP
DE00
FF00
FF80
E180
E1C0
E1C0
E1C0
E1C0
E1C0
E1C0
E1C0
E1C0
E1C0
ENDCHAR
STARTCHAR 006F
ENCODING 111
SWIDTH 1000 0
DWIDTH 24 0
BBX 10 14 1 -2
BITMAP
1E00
3F00
7F80
6180
E1C0
E1C0
E1C0
E1C0
E1C0
E1C0
6180
7F80
3F00
1E00
ENDCHAR
STARTCHAR 0070
ENCODING 112
SWIDTH 1000 0
DWIDTH 24 0
BBX 10 17 1 -5
BITMAP
EE00
FF00
FF80
E180
E1C0
E1C0
E1C0
E1C0
E1C0
E1C0
E180
FF80
FF00
EE00
E000
E000
E000
ENDCHAR
STARTCHAR 0071
ENCODING 113
SWIDTH 1000 0
DWIDTH 24 0
BBX 10 17 1 -5
BITMAP
1DC0
3FC0
7FC0
E1C0
E1C0
E1C0
E1C0
E1C0
E1C0
E1C0
61C0
7FC0
3FC0
1DC0
01C0
01C0
01C0
ENDCHAR
STARTCHAR 0072
ENCODING 114
SWIDTH 1000 0
DWIDTH 24 0
BBX 11 13 1 0
BITMAP
F3E0
F7E0
3E40
3C00
3800
3800
3800
3800
3800
3800
3800
FE00
FE00
ENDCHAR
STARTCHAR 0073
ENCODING 115
SWIDTH 1000 0
DWIDTH 24 0
BBX 9 14 2 -2
BITMAP
3E00
7F00
F700
E000
E000
7000
7C00
1E00
0700
0380
0380
EF00
FF00
7C00
ENDCHAR
STARTCHAR 0074
ENCODING 116
SWIDTH 1000 0
DWIDTH 24 0
BBX 10 17 1 -2
BITMAP
1800
1C00
1C00
1C00
1C00
FFC0
FFC0
1C00
1C00
1C00
1C00
1C00
1C00
1C00
1FC0
1FC0
0F80
ENDCHAR
STARTCHAR 0075
ENCODING 117
SWIDTH 1000 0
DWIDTH 24 0
BBX 10 14 1 -2
BITMAP
E1C0
E1C0
E1C0
E1C0
E1C0
E1C0
E1C0
E1C0
E1C0
E1C0
E3C0
7FC0
7FC0
3C00
ENDCHAR
STARTCHAR 0076
ENCODING 118
SWIDTH 1000 0
DWIDTH 24 0
BBX 10 13 1 -1
BITMAP
E1C0
E1C0
6180
6180
7380
7380
3300
3700
3F00
1E00
1E00
1E00
0C00
ENDCHAR
STARTCHAR 0077
ENCODING 119
SWIDTH 1000 0
DWIDTH 24 0
BBX 10 13 1 -1
BITMAP
C0C0
CCC0
CCC0
DEC0
DEC0
DEC0
FFC0
7F80
7F80
7B80
7380
7380
7380
ENDCHAR
STARTCHAR 0078
ENCODING 120
SWIDTH 1000 0
DWIDTH 24 0
BBX 10 13 1 -1
BITMAP
E1C0
7380
3380
3F00
1E00
1E00
0C00
1E00
3F00
3F00
7380
6180
E1C0
ENDCHAR
STARTCHAR 0079
ENCODING 121
SWIDTH 1000 0
DWIDTH 24 0
BBX 9 17 1 -5
BITMAP
C180
E180
E380
6300
7300
7700
3700
3600
3E00
1E00
1C00
1C00
1C00
1800
3800
F000
E000
ENDCHAR
STARTCHAR 007A
ENCODING 122
SWIDTH 1000 0
DWIDTH 24 0
BBX 9 13 1 -1
BITMAP
FF80
FF80
0380
0700
0E00
0E00
1C00
3800
7000
7000
E000
FF80
FF80
ENDCHAR
STARTCHAR 007B
ENCODING 123
SWIDTH 1000 0
DWIDTH 24 0
BBX 7 24 2 -4
BITMAP
1E
3E
38
38
38
38
38
38
38
30
70
E0
F0
30
38
38
38
38
38
38
38
38
1E
1E
ENDCHAR
STARTCHAR 007C
ENCODING 124
SWIDTH 1000 0
DWIDTH 24 0
BBX 3 23 5 -4
BITMAP
E0
E0
E0
E0
E0
E0
E0
E0
E0
E0
E0
00
E0
E0
E0
E0
E0
E0
E0
E0
E0
E0
E0
ENDCHAR
STARTCHAR 007D
ENCODING 125
SWIDTH 1000 0
DWIDTH 24 0
BBX 7 24 3 -4
BITMAP
F0
F0
38
38
38
38
38
38
38
38
18
1E
1C
38
38
38
38
38
38
38
38
70
F0
E0
ENDCHAR
STARTCHAR 007E
ENCODING 126
SWIDTH 1000 0
DWIDTH 24 0
BBX 12 4 0 6
BITMAP
3C20
7F70
EFE0
43C0
ENDCHAR
STARTCHAR 00A0
ENCODING 160
SWIDTH 1000 0
DWIDTH 24 0
BBX 0 0 0 0
BITMAP
ENDCHAR
STARTCHAR 00A1
ENCODING 161
SWIDTH 1000 0
DWIDTH 24 0
BBX 3 21 10 -3
BITMAP
40
E0
E0
40
00
00
E0
E0
E0
E0
E0
E0
E0
E0
E0
E0
E0
E0
E0
E0
E0
ENDCHAR
STARTCHAR 00A4
ENCODING 164
SWIDTH 1000 0
DWIDTH 24 0
BBX 20 18 2 -2
BITMAP
400020
E3F870
77FEE0
3F0FC0
1C0380
180180
3000C0
3000C0
3000C0
3000C0
3000C0
380180
180180
1E0780
3FFFC0
73FCE0
E1F070
400020
ENDCHAR
STARTCHAR 00A7
ENCODING 167
SWIDTH 1000 0
DWIDTH 24 0
BBX 7 21 8 -3
BITMAP
38
7C
6E
60
60
60
30
78
FC
CC
E6
E6
76
3E
3C
1C
0E
0E
EC
FC
78
ENDCHAR
STARTCHAR 00A8
ENCODING 168
SWIDTH 1000 0
DWIDTH 24 0
BBX 10 4 7 15
BITMAP
4080
E1C0
E1C0
4080
ENDCHAR
STARTCHAR 00A9
ENCODING 169
SWIDTH 1000 0
DWIDTH 24 0
BBX 19 20 2 -2
BITMAP
03F800
0FFE00
1C0700
380380
73F9C0
67FCC0
671CC0
CE0C60
CE0060
CE0060
CE0060
CE0060
CE0E60
460CC0
67BCC0
73F9C0
39F380
1C0700
0FFE00
03F800
ENDCHAR
STARTCHAR 00AA
ENCODING 170
SWIDTH 1000 0
DWIDTH 24 0
BBX 8 12 8 7
BITMAP
3C
7E
C6
0E
7E
E6
C6
FE
7A
00
FF
FF
ENDCHAR
STARTCHAR 00AB
ENCODING 171
SWIDTH 1000 0
DWIDTH 24 0
BBX 17 17 3 -1
BITMAP
003180
00E380
01CE00
039C00
0E7000
1CE000
39C000
E70000
C60000
638000
39C000
1CE000
0E3800
039C00
01CE00
00E380
003180
ENDCHAR
STARTCHAR 00AE
ENCODING 174
SWIDTH 1000 0
DWIDTH 24 0
BBX 19 20 2 -2
BITMAP
03F000
0E0C00
180300
33F180
23F880
431C40
430C40
830C20
830820
83F820
83E020
833020
831820
431840
431840
230C80
300180
180300
0E0E00
03F800
ENDCHAR
STARTCHAR 00B0
ENCODING 176
SWIDTH 1000 0
DWIDTH 24 0
BBX 6 6 9 12
BITMAP
78
FC
CC
CC
FC
78
ENDCHAR
STARTCHAR 00B1
ENCODING 177
SWIDTH 1000 0
DWIDTH 24 0
BBX 12 16 6 -1
BITMAP
0E00
0E00
0E00
0E00
0E00
0E00
FFF0
FFF0
0E00
0E00
0E00
0E00
0E00
0000
FFF0
FFF0
ENDCHAR
STARTCHAR 00B2
ENCODING 178
SWIDTH 1000 0
DWIDTH 24 0
BBX 4 6 10 12
BITMAP
E0
90
10
60
C0
F0
ENDCHAR
STARTCHAR 00B3
ENCODING 179
SWIDTH 1000 0
DWIDTH 24 0
BBX 4 6 10 12
BITMAP
70
90
30
10
90
60
ENDCHAR
STARTCHAR 00B4
ENCODING 180
SWIDTH 1000 0
DWIDTH 24 0
BBX 6 6 9 13
BITMAP
1C
38
30
70
60
C0
ENDCHAR
STARTCHAR 00B6
ENCODING 182
SWIDTH 1000 0
DWIDTH 24 0
BBX 11 21 6 -4
BITMAP
1FE0
7FE0
7FE0
FFE0
FFE0
FFE0
FFE0
FFE0
7FE0
7FE0
1FE0
07E0
07E0
07E0
07E0
07E0
07E0
07E0
07E0
07E0
07E0
ENDCHAR
STARTCHAR 00B7
ENCODING 183
SWIDTH 1000 0
DWIDTH 24 0
BBX 4 4 10 6
BITMAP
60
F0
F0
60
ENDCHAR
STARTCHAR 00B8
ENCODING 184
SWIDTH 1000 0
DWIDTH 24 0
BBX 5 5 10 -4
BITMAP
60
70
18
F8
F0
ENDCHAR
STARTCHAR 00B9
ENCODING 185
SWIDTH 1000 0
DWIDTH 24 0
BBX 2 6 11 13
BITMAP
40
C0
40
40
40
40
ENDCHAR
STARTCHAR 00BA
ENCODING 186
SWIDTH 1000 0
DWIDTH 24 0
BBX 8 12 8 7
BITMAP
3C
7E
E6
C3
C3
C3
E7
7E
3C
00
FF
FF
ENDCHAR
STARTCHAR 00BB
ENCODING 187
SWIDTH 1000 0
DWIDTH 24 0
BBX 17 17 3 -1
BITMAP
C60000
638000
39C000
1CE000
073800
039C00
01CE00
007380
003180
00E300
01CE00
039C00
0E3800
1CE000
39C000
E38000
C60000
ENDCHAR
STARTCHAR 00BC
ENCODING 188
SWIDTH 1000 0
DWIDTH 24 0
BBX 14 20 5 -2
BITMAP
3000
3000
F000
F00C
301C
3038
3070
3060
30C0
0180
0300
0618
0C38
1878
3078
60D8
C1FC
01FC
0018
0018
ENDCHAR
STARTCHAR 00BD
ENCODING 189
SWIDTH 1000 0
DWIDTH 24 0
BBX 14 21 5 -3
BITMAP
3000
3000
F000
F008
3018
3038
3070
30E0
31C0
0180
0300
0670
0CF8
18CC
31CC
601C
C038
C070
00E0
00FC
01FC
ENDCHAR
STARTCHAR 00BE
ENCODING 190
SWIDTH 1000 0
DWIDTH 24 0
BBX 14 21 5 -3
BITMAP
7800
FC00
CC00
380C
3C08
0C10
CC30
FC60
78C0
0180
0300
0600
0618
0C38
1878
3078
60D8
41FC
01FC
0018
0018
ENDCHAR
STARTCHAR 00BF
ENCODING 191
SWIDTH 1000 0
DWIDTH 24 0
BBX 9 19 8 -1
BITMAP
0C00
0E00
0C00
0000
0C00
0E00
0C00
1C00
1C00
3800
7000
6000
E000
E000
E000
E000
7F80
7F80
1F00
ENDCHAR
STARTCHAR 00C6
ENCODING 198
SWIDTH 1000 0
DWIDTH 24 0
BBX 18 18 4 -1
BITMAP
01FFC0
03FFC0
03E000
07E000
07E000
0EE000
0EE000
0EE000
1CFF80
1CFF80
3CE000
3FE000
3FE000
70E000
70E000
E0E000
E0FFC0
E0FFC0
ENDCHAR
STARTCHAR 00D0
ENCODING 208
SWIDTH 1000 0
DWIDTH 24 0
BBX 16 18 4 -1
BITMAP
1FF0
1FF8
1CFC
1C0E
1C06
1C07
1C07
FF07
FF07
1C07
1C07
1C07
1C07
1C06
1C0E
1CFC
1FFC
1FF0
ENDCHAR
STARTCHAR 00D7
ENCODING 215
SWIDTH 1000 0
DWIDTH 24 0
BBX 12 13 6 1
BITMAP
4020
E070
70E0
39C0
1F80
0F00
0F00
1F80
3F80
79C0
70E0
E070
4020
ENDCHAR
STARTCHAR 00D8
ENCODING 216
SWIDTH 1000 0
DWIDTH 24 0
BBX 16 23 4 -4
BITMAP
0004
0006
07EC
1FFC
3FFC
383C
703E
606E
E066
E0C6
E1C7
E187
E387
E306
E606
E60E
7C0E
7C1C
3FF8
3FF0
37C0
6000
6000
ENDCHAR
STARTCHAR 00DE
ENCODING 222
SWIDTH 1000 0
DWIDTH 24 0
BBX 10 18 7 -1
BITMAP
E000
E000
E000
FE00
FF00
E780
E380
E1C0
E1C0
E1C0
E1C0
E3C0
E780
FF00
FE00
E000
E000
E000
ENDCHAR
STARTCHAR 00DF
ENCODING 223
SWIDTH 1000 0
DWIDTH 24 0
BBX 13 19 5 -3
BITMAP
FFC0
FFE0
E1F0
E030
E038
E038
E030
E1F0
FFE0
FFE0
E070
E038
E038
E038
E038
FC38
EE30
EFF0
07E0
ENDCHAR
STARTCHAR 00E6
ENCODING 230
SWIDTH 1000 0
DWIDTH 24 0
BBX 18 13 3 -1
BITMAP
1F1E00
7FFF80
7FFFC0
E1E1C0
01C0C0
0FFFC0
3FFFC0
F1C000
E1C0C0
E1E1C0
FFFFC0
7F7F80
3E1F00
ENDCHAR
STARTCHAR 00F0
ENCODING 240
SWIDTH 1000 0
DWIDTH 24 0
BBX 12 19 6 -1
BITMAP
0080
0FC0
0780
0780
05C0
00C0
1FE0
3FE0
7FE0
60E0
E070
E070
E070
E070
E060
60E0
7FC0
3FC0
1F00
ENDCHAR
STARTCHAR 00F7
ENCODING 247
SWIDTH 1000 0
DWIDTH 24 0
BBX 14 14 5 1
BITMAP
0300
0780
0780
0300
0000
0000
FFFC
FFFC
0000
0000
0300
0780
0780
0300
ENDCHAR
STARTCHAR 00F8
ENCODING 248
SWIDTH 1000 0
DWIDTH 24 0
BBX 12 17 6 -4
BITMAP
0040
00C0
1FC0
3FC0
7FE0
63E0
E360
E670
E670
EC70
EC60
F8E0
7FE0
3FC0
3F00
6000
6000
ENDCHAR
STARTCHAR 00FE
ENCODING 254
SWIDTH 1000 0
DWIDTH 24 0
BBX 10 21 7 -3
BITMAP
E000
E000
E000
E000
E000
E000
FE00
FF00
F780
E180
E1C0
E1C0
E1C0
E1C0
E1C0
E1C0
F780
FF00
FE00
E000
E000
ENDCHAR
STARTCHAR 0111
ENCODING 273
SWIDTH 1000 0
DWIDTH 24 0
BBX 13 18 5 -1
BITMAP
00E0
03F8
03F8
00E0
00E0
1EE0
3FE0
7BE0
E0E0
E0E0
E0E0
E0E0
E0E0
E0E0
E0E0
7BE0
3FE0
1FE0
ENDCHAR
STARTCHAR 0126
ENCODING 294
SWIDTH 1000 0
DWIDTH 24 0
BBX 16 18 4 -1
BITMAP
700E
700E
700E
FFFF
FFFF
700E
700E
7FFE
7FFE
700E
700E
700E
700E
700E
700E
700E
700E
700E
ENDCHAR
STARTCHAR 0127
ENCODING 295
SWIDTH 1000 0
DWIDTH 24 0
BBX 12 18 6 -1
BITMAP
3800
3800
FF80
FF80
3800
3BC0
3FE0
3EF0
3870
3870
3870
3870
3870
3870
3870
3870
3870
3870
ENDCHAR
STARTCHAR 0131
ENCODING 305
SWIDTH 1000 0
DWIDTH 24 0
BBX 3 13 11 -1
BITMAP
E0
E0
E0
E0
E0
E0
E0
E0
E0
E0
E0
E0
E0
ENDCHAR
STARTCHAR 0132
ENCODING 306
SWIDTH 1000 0
DWIDTH 24 0
BBX 14 18 5 -1
BITMAP
E01C
E01C
E01C
E01C
E01C
E01C
E01C
E01C
E01C
E01C
E01C
E01C
EE1C
EE1C
EE38
E7F8
E7F0
E3E0
ENDCHAR
STARTCHAR 0133
ENCODING 307
SWIDTH 1000 0
DWIDTH 24 0
BBX 8 22 8 -5
BITMAP
E7
E7
E7
00
00
E7
E7
E7
E7
E7
E7
E7
E7
E7
E7
E7
E7
E7
07
0F
0E
0E
ENDCHAR
STARTCHAR 0138
ENCODING 312
SWIDTH 1000 0
DWIDTH 24 0
BBX 10 13 7 -1
BITMAP
E1C0
E380
E700
EE00
FC00
FC00
FE00
EE00
E700
E700
E380
E1C0
E1C0
ENDCHAR
STARTCHAR 013F
ENCODING 319
SWIDTH 1000 0
DWIDTH 24 0
BBX 11 18 7 -1
BITMAP
E000
E000
E000
E000
E000
E000
E380
E380
E380
E000
E000
E000
E000
E000
E000
FFE0
FFE0
FFE0
ENDCHAR
STARTCHAR 0140
ENCODING 320
SWIDTH 1000 0
DWIDTH 24 0
BBX 7 18 8 -1
BITMAP
E0
E0
E0
E0
E0
E0
E0
EE
EE
EE
E0
E0
E0
E0
E0
E0
E0
E0
ENDCHAR
STARTCHAR 0141
ENCODING 321
SWIDTH 1000 0
DWIDTH 24 0
BBX 15 18 5 -1
BITMAP
0E00
0E00
0E00
0EC0
0FC0
0F80
0F00
0E00
0E00
1E00
3E00
6E00
EE00
4E00
0E00
0FFE
0FFE
0FFE
ENDCHAR
STARTCHAR 0142
ENCODING 322
SWIDTH 1000 0
DWIDTH 24 0
BBX 8 18 8 -1
BITMAP
1C
1C
1C
1C
1F
1F
1E
1C
1C
3C
7C
DC
1C
1C
1C
1C
1C
1C
ENDCHAR
STARTCHAR 0149
ENCODING 329
SWIDTH 1000 0
DWIDTH 24 0
BBX 14 16 5 0
BITMAP
E000
E000
6000
6EF0
CFF8
CFBC
0F1C
0E1C
0E1C
0E1C
0E1C
0E1C
0E1C
0E1C
0E1C
0E1C
ENDCHAR
STARTCHAR 014A
ENCODING 330
SWIDTH 1000 0
DWIDTH 24 0
BBX 13 22 5 -5
BITMAP
E038
F038
F038
F838
F838
FC38
FE38
EE38
E738
E738
E3B8
E3F8
E1F8
E0F8
E0F8
E078
E038
E038
0738
07F8
03F0
01E0
ENDCHAR
STARTCHAR 014B
ENCODING 331
SWIDTH 1000 0
DWIDTH 24 0
BBX 11 17 7 -5
BITMAP
FF00
FF80
FBC0
E1C0
E0E0
E0E0
E0E0
E0E0
E0E0
E0E0
E0E0
E0E0
E0E0
00C0
1FC0
1FC0
0F80
ENDCHAR
STARTCHAR 0152
ENCODING 338
SWIDTH 1000 0
DWIDTH 24 0
BBX 19 18 3 -1
BITMAP
0FFFE0
1FFFE0
3F7000
707000
607000
E07000
E07000
E07000
E07FC0
E07FC0
E07000
E07000
E07000
607000
707000
3F7000
1FFFE0
0FFFE0
ENDCHAR
STARTCHAR 0153
ENCODING 339
SWIDTH 1000 0
DWIDTH 24 0
BBX 20 13 2 -1
BITMAP
1F0F80
3FDFC0
7FFDE0
60F070
E07070
E07FF0
E07FF0
E07000
E07070
E0F070
7FFDE0
3FDFE0
1F0F80
ENDCHAR
STARTCHAR 0166
ENCODING 358
SWIDTH 1000 0
DWIDTH 24 0
BBX 13 18 6 -1
BITMAP
FFF8
FFF8
0700
0700
0700
0700
0700
0700
3FC0
3FC0
0700
0700
0700
0700
0700
0700
0700
0700
ENDCHAR
STARTCHAR 0167
ENCODING 359
SWIDTH 1000 0
DWIDTH 24 0
BBX 8 17 8 -1
BITMAP
38
38
38
FF
FF
38
38
FE
FE
38
38
38
38
38
3E
1E
1E
ENDCHAR
STARTCHAR 02BC
ENCODING 700
SWIDTH 1000 0
DWIDTH 24 0
BBX 3 6 11 12
BITMAP
C0
E0
60
40
40
80
ENDCHAR
STARTCHAR 02C7
ENCODING 711
SWIDTH 1000 0
DWIDTH 24 0
BBX 10 3 7 15
BITMAP
E1C0
7F80
1E00
ENDCHAR
STARTCHAR 02D8
ENCODING 728
SWIDTH 1000 0
DWIDTH 24 0
BBX 10 4 7 15
BITMAP
C0C0
E1C0
7F80
1E00
ENDCHAR
STARTCHAR 02D9
ENCODING 729
SWIDTH 1000 0
DWIDTH 24 0
BBX 4 4 10 14
BITMAP
60
F0
F0
60
ENDCHAR
STARTCHAR 02DA
ENCODING 730
SWIDTH 1000 0
DWIDTH 24 0
BBX 6 6 9 13
BITMAP
78
F8
CC
CC
F8
78
ENDCHAR
STARTCHAR 02DB
ENCODING 731
SWIDTH 1000 0
DWIDTH 24 0
BBX 5 5 10 -4
BITMAP
60
C0
C0
F8
70
ENDCHAR
STARTCHAR 02DC
ENCODING 732
SWIDTH 1000 0
DWIDTH 24 0
BBX 12 3 6 16
BITMAP
7F70
FFE0
C3C0
ENDCHAR
STARTCHAR 02DD
ENCODING 733
SWIDTH 1000 0
DWIDTH 24 0
BBX 9 5 7 13
BITMAP
3B80
3B80
7700
6600
CC00
ENDCHAR
STARTCHAR 0391
ENCODING 913
SWIDTH 1000 0
DWIDTH 24 0
BBX 14 18 5 -1
BITMAP
0780
0780
0780
0FC0
0FC0
0FC0
1CE0
1CE0
1CE0
3870
3FF0
3FF0
7FF8
7038
7038
E01C
E01C
E01C
ENDCHAR
STARTCHAR 0392
ENCODING 914
SWIDTH 1000 0
DWIDTH 24 0
BBX 13 18 5 -1
BITMAP
FFC0
FFE0
E1F0
E030
E038
E038
E030
E1F0
FFE0
FFF0
E070
E038
E038
E038
E038
E1F0
FFF0
FFC0
ENDCHAR
STARTCHAR 0393
ENCODING 915
SWIDTH 1000 0
DWIDTH 24 0
BBX 12 18 6 -1
BITMAP
FFF0
FFF0
E000
E000
E000
E000
E000
E000
E000
E000
E000
E000
E000
E000
E000
E000
E000
E000
ENDCHAR
STARTCHAR 0394
ENCODING 916
SWIDTH 1000 0
DWIDTH 24 0
BBX 16 18 4 -1
BITMAP
0180
03C0
03C0
03C0
07E0
07E0
0E70
0E70
0C30
1C38
1C38
1818
381C
381C
700E
7FFE
7FFE
FFFF
ENDCHAR
STARTCHAR 0395
ENCODING 917
SWIDTH 1000 0
DWIDTH 24 0
BBX 12 18 6 -1
BITMAP
FFF0
FFF0
E000
E000
E000
E000
E000
E000
FFE0
FFE0
E000
E000
E000
E000
E000
E000
FFF0
FFF0
ENDCHAR
STARTCHAR 0396
ENCODING 918
SWIDTH 1000 0
DWIDTH 24 0
BBX 13 18 6 -1
BITMAP
7FF8
7FF8
0078
00F0
00E0
01E0
03C0
0380
0780
0F00
0E00
1E00
3C00
3800
7800
F000
FFF8
FFF8
ENDCHAR
STARTCHAR 0397
ENCODING 919
SWIDTH 1000 0
DWIDTH 24 0
BBX 13 18 5 -1
BITMAP
E038
E038
E038
E038
E038
E038
E038
FFF8
FFF8
E038
E038
E038
E038
E038
E038
E038
E038
E038
ENDCHAR
STARTCHAR 0398
ENCODING 920
SWIDTH 1000 0
DWIDTH 24 0
BBX 16 19 4 -1
BITMAP
07C0
1FF0
3FF8
781C
700E
600E
E006
E006
EFF7
EFF7
E007
E006
E006
600E
700E
781C
3FF8
1FF0
07C0
ENDCHAR
STARTCHAR 0399
ENCODING 921
SWIDTH 1000 0
DWIDTH 24 0
BBX 3 18 11 -1
BITMAP
E0
E0
E0
E0
E0
E0
E0
E0
E0
E0
E0
E0
E0
E0
E0
E0
E0
E0
ENDCHAR
STARTCHAR 039A
ENCODING 922
SWIDTH 1000 0
DWIDTH 24 0
BBX 13 18 5 -1
BITMAP
E078
E0F0
E1E0
E1C0
E380
E700
EE00
FE00
FE00
FF00
F700
E380
E3C0
E1C0
E0E0
E0F0
E070
E038
ENDCHAR
STARTCHAR 039B
ENCODING 923
SWIDTH 1000 0
DWIDTH 24 0
BBX 14 18 5 -1
BITMAP
0780
0780
0780
0FC0
0FC0
0FC0
1CE0
1CE0
1CE0
3870
3870
3870
7038
7038
7038
E01C
E01C
E01C
ENDCHAR
STARTCHAR 039C
ENCODING 924
SWIDTH 1000 0
DWIDTH 24 0
BBX 16 18 4 -1
BITMAP
F00F
F00F
F00F
F81F
F81F
F81F
FC3F
FC3F
EC37
EE77
EE77
E667
E7E7
E7E7
E3C7
E3C7
E3C7
E187
ENDCHAR
STARTCHAR 039D
ENCODING 925
SWIDTH 1000 0
DWIDTH 24 0
BBX 13 18 5 -1
BITMAP
E038
F038
F038
F838
F838
FC38
FE38
EE38
E738
E738
E3B8
E3F8
E1F8
E0F8
E0F8
E078
E078
E038
ENDCHAR
STARTCHAR 039E
ENCODING 926
SWIDTH 1000 0
DWIDTH 24 0
BBX 14 18 5 -1
BITMAP
FFFC
FFFC
0000
0000
0000
0000
0000
0000
1FF0
1FF0
0000
0000
0000
0000
0000
0000
FFFC
FFFC
ENDCHAR
STARTCHAR 039F
ENCODING 927
SWIDTH 1000 0
DWIDTH 24 0
BBX 16 19 4 -1
BITMAP
07C0
1FF0
3FF8
781C
700E
600E
E006
E006
E007
E007
E007
E006
E006
600E
700E
781C
3FF8
1FF0
07C0
ENDCHAR
STARTCHAR 03A0
ENCODING 928
SWIDTH 1000 0
DWIDTH 24 0
BBX 12 18 6 -1
BITMAP
FFF0
FFF0
E070
E070
E070
E070
E070
E070
E070
E070
E070
E070
E070
E070
E070
E070
E070
E070
ENDCHAR
STARTCHAR 03A1
ENCODING 929
SWIDTH 1000 0
DWIDTH 24 0
BBX 12 18 6 -1
BITMAP
FF80
FFE0
E3E0
E070
E070
E070
E070
E0F0
FFE0
FFC0
E000
E000
E000
E000
E000
E000
E000
E000
ENDCHAR
STARTCHAR 03A3
ENCODING 931
SWIDTH 1000 0
DWIDTH 24 0
BBX 12 18 6 -1
BITMAP
FFF0
FFF0
F000
7800
3800
1C00
0E00
0F00
0700
0700
0E00
1C00
3C00
3800
7000
F000
FFF0
FFF0
ENDCHAR
STARTCHAR 03A4
ENCODING 932
SWIDTH 1000 0
DWIDTH 24 0
BBX 13 18 6 -1
BITMAP
FFF8
FFF8
0700
0700
0700
0700
0700
0700
0700
0700
0700
0700
0700
0700
0700
0700
0700
0700
ENDCHAR
STARTCHAR 03A5
ENCODING 933
SWIDTH 1000 0
DWIDTH 24 0
BBX 13 18 6 -1
BITMAP
E038
E078
7070
70E0
38E0
39C0
1DC0
1F80
0F80
0F00
0700
0700
0700
0700
0700
0700
0700
0700
ENDCHAR
STARTCHAR 03A6
ENCODING 934
SWIDTH 1000 0
DWIDTH 24 0
BBX 16 18 4 -1
BITMAP
0380
0380
0380
1FF0
3FFC
7BBE
E38E
E386
E387
E387
E386
738E
7FFC
3FF8
07E0
0380
0380
0380
ENDCHAR
STARTCHAR 03A7
ENCODING 935
SWIDTH 1000 0
DWIDTH 24 0
BBX 14 18 5 -1
BITMAP
F03C
7038
3870
38F0
1CE0
1FE0
0FC0
0780
0780
0780
0FC0
0FC0
1EE0
1CE0
3870
7878
7038
F03C
ENDCHAR
STARTCHAR 03A8
ENCODING 936
SWIDTH 1000 0
DWIDTH 24 0
BBX 18 18 3 -1
BITMAP
00E000
C0E0C0
F0E1C0
F0E3C0
38E380
38E380
38E380
38E380
38E380
38E300
3CE700
1FFF00
0FFC00
01F000
00E000
00E000
00E000
00E000
ENDCHAR
STARTCHAR 03A9
ENCODING 937
SWIDTH 1000 0
DWIDTH 24 0
BBX 15 19 5 -1
BITMAP
0FC0
1FF0
3EF8
783C
F01C
E00C
E00E
E00E
E00E
E01C
701C
7878
3EF8
1EE0
0EE0
EEEE
FEFE
FEFE
FEFE
ENDCHAR
STARTCHAR 03B1
ENCODING 945
SWIDTH 1000 0
DWIDTH 24 0
BBX 10 13 7 -1
BITMAP
3CC0
7EC0
7FC0
E380
E380
E380
E380
E300
E300
E340
7FC0
7FC0
3D80
ENDCHAR
STARTCHAR 03B2
ENCODING 946
SWIDTH 1000 0
DWIDTH 24 0
BBX 10 23 7 -5
BITMAP
3E00
7F00
F700
E380
E380
E380
E380
E380
FF00
FF00
FF80
E380
E180
E1C0
E1C0
E180
F780
FF00
FE00
E000
E000
E000
E000
ENDCHAR
STARTCHAR 03B3
ENCODING 947
SWIDTH 1000 0
DWIDTH 24 0
BBX 10 17 7 -5
BITMAP
E1C0
E180
7380
7700
3F00
1E00
1E00
1E00
3E00
3F00
7700
7300
7380
7380
7F00
3F00
1E00
ENDCHAR
STARTCHAR 03B4
ENCODING 948
SWIDTH 1000 0
DWIDTH 24 0
BBX 10 19 7 -1
BITMAP
0E00
1F00
3B80
3B80
3800
3800
1C00
1E00
3F80
7F80
E1C0
E1C0
E1C0
E1C0
E1C0
E1C0
7F80
7F80
1E00
ENDCHAR
STARTCHAR 03B5
ENCODING 949
SWIDTH 1000 0
DWIDTH 24 0
BBX 10 14 7 -1
BITMAP
3E00
7F80
7F80
E1C0
E000
7C00
3C00
7C00
E000
E000
E1C0
FF80
7F80
3E00
ENDCHAR
STARTCHAR 03B6
ENCODING 950
SWIDTH 1000 0
DWIDTH 24 0
BBX 10 22 7 -5
BITMAP
7F00
7F00
0F00
0E00
1C00
3800
3000
7000
6000
E000
E000
E000
E000
E000
7800
7F80
3FC0
03C0
01C0
0FC0
0F80
0F00
ENDCHAR
STARTCHAR 03B7
ENCODING 951
SWIDTH 1000 0
DWIDTH 24 0
BBX 10 15 7 -4
BITMAP
FE00
FF00
FF00
E700
E700
E700
E700
E700
E700
E700
E700
E700
E740
07C0
03C0
ENDCHAR
STARTCHAR 03B8
ENCODING 952
SWIDTH 1000 0
DWIDTH 24 0
BBX 10 19 7 -1
BITMAP
1E00
3F00
7F80
6180
E1C0
E1C0
E1C0
E1C0
FFC0
FFC0
E1C0
E1C0
E1C0
E1C0
E1C0
6380
7F80
3F00
1E00
ENDCHAR
STARTCHAR 03B9
ENCODING 953
SWIDTH 1000 0
DWIDTH 24 0
BBX 7 13 9 -1
BITMAP
E0
E0
E0
E0
E0
E0
E0
E0
E0
EE
FC
FC
78
ENDCHAR
STARTCHAR 03BA
ENCODING 954
SWIDTH 1000 0
DWIDTH 24 0
BBX 10 13 7 -1
BITMAP
E1C0
E380
E700
EE00
FC00
FC00
FE00
FE00
E700
E700
E380
E380
E1C0
ENDCHAR
STARTCHAR 03BB
ENCODING 955
SWIDTH 1000 0
DWIDTH 24 0
BBX 10 20 7 -2
BITMAP
C000
E000
F000
7000
3000
3000
3800
3800
3800
3800
3C00
3C00
7C00
7C00
6E00
6E00
EEC0
E7C0
C7C0
0380
ENDCHAR
STARTCHAR 03BC
ENCODING 956
SWIDTH 1000 0
DWIDTH 24 0
BBX 10 17 7 -5
BITMAP
E1C0
E1C0
E1C0
E1C0
E1C0
E1C0
E1C0
E1C0
E1C0
E3C0
F7C0
FFC0
FFC0
E000
E000
E000
E000
ENDCHAR
STARTCHAR 03BD
ENCODING 957
SWIDTH 1000 0
DWIDTH 24 0
BBX 10 13 7 -1
BITMAP
C0C0
E1C0
F1C0
7180
3180
3380
3B80
3B00
1F00
1F00
1E00
0E00
0E00
ENDCHAR
STARTCHAR 03BE
ENCODING 958
SWIDTH 1000 0
DWIDTH 24 0
BBX 10 22 7 -5
BITMAP
FF00
FF00
1C00
3800
3800
3800
3E00
1E00
7E00
7000
E000
E000
E000
E000
F800
7F00
3F80
07C0
01C0
0FC0
1FC0
0F00
ENDCHAR
STARTCHAR 03BF
ENCODING 959
SWIDTH 1000 0
DWIDTH 24 0
BBX 10 13 7 -1
BITMAP
1E00
7F80
7F80
E1C0
E1C0
E1C0
E1C0
E1C0
E1C0
E1C0
7F80
7F80
1E00
ENDCHAR
STARTCHAR 03C0
ENCODING 960
SWIDTH 1000 0
DWIDTH 24 0
BBX 10 13 7 -1
BITMAP
FFC0
FFC0
3F00
3F00
3F00
3F00
3F00
3F00
3F00
3F00
7FC0
F3C0
E380
ENDCHAR
STARTCHAR 03C1
ENCODING 961
SWIDTH 1000 0
DWIDTH 24 0
BBX 10 17 7 -5
BITMAP
1E00
7F80
7F80
E1C0
E1C0
E1C0
E1C0
E1C0
E1C0
E1C0
FF80
FF80
FE00
E000
E000
E000
E000
ENDCHAR
STARTCHAR 03C3
ENCODING 963
SWIDTH 1000 0
DWIDTH 24 0
BBX 11 14 7 -1
BITMAP
1FE0
3FE0
7F80
6180
E1C0
E1C0
E1C0
E1C0
E1C0
E1C0
E1C0
7F80
7F00
1E00
ENDCHAR
STARTCHAR 03C4
ENCODING 964
SWIDTH 1000 0
DWIDTH 24 0
BBX 10 14 7 -2
BITMAP
FFC0
FFC0
1C00
1C00
1C00
1C00
1C00
1C00
1C00
1C00
1F80
1F80
1F00
0E00
ENDCHAR
STARTCHAR 03C5
ENCODING 965
SWIDTH 1000 0
DWIDTH 24 0
BBX 9 13 7 0
BITMAP
E700
E700
E300
E380
E380
E380
E380
E380
E380
E380
FF00
7F00
3E00
ENDCHAR
STARTCHAR 03C6
ENCODING 966
SWIDTH 1000 0
DWIDTH 24 0
BBX 11 22 7 -5
BITMAP
0E00
0E00
0E00
0E00
0E00
3F00
7F80
7FC0
EFC0
EEC0
EEE0
EEE0
EEE0
EEC0
EFC0
7FC0
7F80
3F00
0E00
0E00
0E00
0E00
ENDCHAR
STARTCHAR 03C7
ENCODING 967
SWIDTH 1000 0
DWIDTH 24 0
BBX 10 16 7 -5
BITMAP
E1C0
F180
7B80
3B00
1F00
1F00
1E00
1E00
1C00
1E00
3E00
3E00
7700
7700
63C0
E3C0
ENDCHAR
STARTCHAR 03C8
ENCODING 968
SWIDTH 1000 0
DWIDTH 24 0
BBX 11 17 6 -4
BITMAP
6E60
EEE0
6EE0
7EC0
7EC0
7EC0
7EC0
7EC0
7EC0
7EC0
7EC0
7FC0
3FC0
0E00
0E00
0E00
0E00
ENDCHAR
STARTCHAR 03C9
ENCODING 969
SWIDTH 1000 0
DWIDTH 24 0
BBX 11 14 7 0
BITMAP
2180
7180
61C0
61C0
EEC0
EEC0
EEE0
EEE0
EEE0
EEE0
EEC0
FFC0
7FC0
3B80
ENDCHAR
STARTCHAR 0401
ENCODING 1025
SWIDTH 1000 0
DWIDTH 24 0
BBX 12 21 6 0
BITMAP
3B80
3B80
0000
FFF0
FFF0
E000
E000
E000
E000
E000
E000
FFE0
FFE0
E000
E000
E000
E000
E000
E000
FFF0
FFF0
ENDCHAR
STARTCHAR 0410
ENCODING 1040
SWIDTH 1000 0
DWIDTH 24 0
BBX 14 18 5 -1
BITMAP
0780
0780
0780
0FC0
0FC0
0FC0
1CE0
1CE0
1CE0
3870
3FF0
3FF0
7FF8
7038
7038
E01C
E01C
E01C
ENDCHAR
STARTCHAR 0411
ENCODING 1041
SWIDTH 1000 0
DWIDTH 24 0
BBX 13 18 5 -1
BITMAP
FFE0
FFE0
E000
E000
E000
E000
E000
E000
FFE0
FFF0
E078
E038
E038
E038
E038
E1F8
FFF0
FFC0
ENDCHAR
STARTCHAR 0412
ENCODING 1042
SWIDTH 1000 0
DWIDTH 24 0
BBX 13 18 5 -1
BITMAP
FFC0
FFE0
E1F0
E030
E038
E038
E030
E1F0
FFE0
FFF0
E070
E038
E038
E038
E038
E1F0
FFF0
FFC0
ENDCHAR
STARTCHAR 0413
ENCODING 1043
SWIDTH 1000 0
DWIDTH 24 0
BBX 11 18 6 -1
BITMAP
FFE0
FFE0
E000
E000
E000
E000
E000
E000
E000
E000
E000
E000
E000
E000
E000
E000
E000
E000
ENDCHAR
STARTCHAR 0414
ENCODING 1044
SWIDTH 1000 0
DWIDTH 24 0
BBX 17 21 3 -4
BITMAP
07FE00
07FE00
070E00
070E00
070E00
070E00
070E00
070E00
070E00
060E00
060E00
060E00
0E0E00
0E0E00
1C0E00
3C0E00
7FFE00
7FFF80
E00380
E00180
C00180
ENDCHAR
STARTCHAR 0415
ENCODING 1045
SWIDTH 1000 0
DWIDTH 24 0
BBX 12 18 6 -1
BITMAP
FFF0
FFF0
E000
E000
E000
E000
E000
E000
FFE0
FFE0
E000
E000
E000
E000
E000
E000
FFF0
FFF0
ENDCHAR
STARTCHAR 0416
ENCODING 1046
SWIDTH 1000 0
DWIDTH 24 0
BBX 20 19 2 -1
BITMAP
E00070
F870F0
7C71F0
1C7380
0E7380
0E7700
067700
067700
07FF00
07FF00
077700
077700
067700
0E7700
0E7380
1C7380
7C71F0
F870F0
E07070
ENDCHAR
STARTCHAR 0417
ENCODING 1047
SWIDTH 1000 0
DWIDTH 24 0
BBX 11 18 6 0
BITMAP
3F80
7FC0
71C0
60E0
E0E0
00C0
01C0
0F80
0F80
03C0
00E0
00E0
E0E0
E0E0
E0E0
7BC0
3F80
1F00
ENDCHAR
STARTCHAR 0418
ENCODING 1048
SWIDTH 1000 0
DWIDTH 24 0
BBX 13 18 5 -1
BITMAP
E038
E038
E038
E078
E0F8
E1F8
E1F8
E3B8
E7B8
EF38
EE38
FC38
FC38
F838
F038
E038
E038
E038
ENDCHAR
STARTCHAR 0419
ENCODING 1049
SWIDTH 1000 0
DWIDTH 24 0
BBX 13 21 5 -1
BITMAP
1000
18C0
0F80
E038
E038
E038
E078
E0F8
E1F8
E1F8
E3B8
E7B8
EF38
EE38
FC38
FC38
F838
F038
E038
E038
E038
ENDCHAR
STARTCHAR 041A
ENCODING 1050
SWIDTH 1000 0
DWIDTH 24 0
BBX 13 18 5 -1
BITMAP
E078
E0F0
E1E0
E1C0
E380
E700
EE00
FE00
FE00
FF00
F700
E380
E3C0
E1C0
E0E0
E0F0
E070
E038
ENDCHAR
STARTCHAR 041B
ENCODING 1051
SWIDTH 1000 0
DWIDTH 24 0
BBX 15 19 4 -2
BITMAP
0FFE
0FFE
0E0E
0E0E
0E0E
0E0E
0E0E
0E0E
0E0E
0E0E
0C0E
0C0E
0C0E
1C0E
1C0E
380E
F00E
600E
4000
ENDCHAR
STARTCHAR 041C
ENCODING 1052
SWIDTH 1000 0
DWIDTH 24 0
BBX 16 18 4 -1
BITMAP
F00F
F00F
F00F
F81F
F81F
F81F
FC3F
FC3F
EC37
EE77
EE77
E667
E7E7
E7E7
E3C7
E3C7
E3C7
E187
ENDCHAR
STARTCHAR 041D
ENCODING 1053
SWIDTH 1000 0
DWIDTH 24 0
BBX 13 18 5 -1
BITMAP
E038
E038
E038
E038
E038
E038
E038
FFF8
FFF8
E038
E038
E038
E038
E038
E038
E038
E038
E038
ENDCHAR
STARTCHAR 041E
ENCODING 1054
SWIDTH 1000 0
DWIDTH 24 0
BBX 16 19 4 -1
BITMAP
07C0
1FF0
3FF8
781C
700E
600E
E006
E006
E007
E007
E007
E006
E006
600E
700E
781C
3FF8
1FF0
07C0
ENDCHAR
STARTCHAR 041F
ENCODING 1055
SWIDTH 1000 0
DWIDTH 24 0
BBX 14 18 5 -1
BITMAP
FFFC
FFFC
E01C
E01C
E01C
E01C
E01C
E01C
E01C
E01C
E01C
E01C
E01C
E01C
E01C
E01C
E01C
E01C
ENDCHAR
STARTCHAR 0420
ENCODING 1056
SWIDTH 1000 0
DWIDTH 24 0
BBX 12 18 6 -1
BITMAP
FF80
FFE0
E3E0
E070
E070
E070
E070
E0F0
FFE0
FFC0
E000
E000
E000
E000
E000
E000
E000
E000
ENDCHAR
STARTCHAR 0421
ENCODING 1057
SWIDTH 1000 0
DWIDTH 24 0
BBX 14 19 5 -1
BITMAP
07C0
1FF0
3EF8
783C
701C
601C
E000
E000
E000
E000
E000
E000
E00C
601C
701C
703C
3EF8
1FF0
07C0
ENDCHAR
STARTCHAR 0422
ENCODING 1058
SWIDTH 1000 0
DWIDTH 24 0
BBX 13 18 6 -1
BITMAP
FFF8
FFF8
0700
0700
0700
0700
0700
0700
0700
0700
0700
0700
0700
0700
0700
0700
0700
0700
ENDCHAR
STARTCHAR 0423
ENCODING 1059
SWIDTH 1000 0
DWIDTH 24 0
BBX 11 18 6 -1
BITMAP
E0E0
70E0
71C0
31C0
39C0
3B80
1B80
1F80
1F00
0F00
0F00
0E00
0E00
0E00
0C00
5C00
7C00
7800
ENDCHAR
STARTCHAR 0424
ENCODING 1060
SWIDTH 1000 0
DWIDTH 24 0
BBX 15 18 4 -1
BITMAP
0380
0380
0380
1FF0
3FF8
7BBC
F38E
E38E
E38E
E38E
E38E
F38E
7BBC
3FF8
1FF0
0380
0380
0380
ENDCHAR
STARTCHAR 0425
ENCODING 1061
SWIDTH 1000 0
DWIDTH 24 0
BBX 14 18 5 -1
BITMAP
F03C
7038
3870
38F0
1CE0
1FE0
0FC0
0780
0780
0780
0FC0
0FC0
1EE0
1CE0
3870
7878
7038
F03C
ENDCHAR
STARTCHAR 0426
ENCODING 1062
SWIDTH 1000 0
DWIDTH 24 0
BBX 16 21 4 -4
BITMAP
E01C
E01C
E01C
E01C
E01C
E01C
E01C
E01C
E01C
E01C
E01C
E01C
E01C
E01C
E01C
FFFC
FFFC
FFFE
0007
0007
0003
ENDCHAR
STARTCHAR 0427
ENCODING 1063
SWIDTH 1000 0
DWIDTH 24 0
BBX 10 18 7 -1
BITMAP
E1C0
E1C0
E1C0
E1C0
E1C0
E1C0
E1C0
E1C0
E1C0
E1C0
E3C0
7FC0
7FC0
09C0
01C0
01C0
01C0
01C0
ENDCHAR
STARTCHAR 0428
ENCODING 1064
SWIDTH 1000 0
DWIDTH 24 0
BBX 15 18 5 -1
BITMAP
E38E
E38E
E38E
E38E
E38E
E38E
E38E
E38E
E38E
E38E
E38E
E38E
E38E
E38E
E38E
FFFE
FFFE
FFFE
ENDCHAR
STARTCHAR 0429
ENCODING 1065
SWIDTH 1000 0
DWIDTH 24 0
BBX 17 21 3 -4
BITMAP
E38E00
E38E00
E38E00
E38E00
E38E00
E38E00
E38E00
E38E00
E38E00
E38E00
E38E00
E38E00
E38E00
E38E00
E38E00
FFFE00
FFFE00
FFFF00
000380
000380
000180
ENDCHAR
STARTCHAR 042A
ENCODING 1066
SWIDTH 1000 0
DWIDTH 24 0
BBX 16 18 4 -1
BITMAP
FE00
FE00
0E00
0E00
0E00
0E00
0E00
0E00
0FFC
0FFE
0E0F
0E07
0E07
0E07
0E07
0E3F
0FFE
0FF8
ENDCHAR
STARTCHAR 042B
ENCODING 1067
SWIDTH 1000 0
DWIDTH 24 0
BBX 16 18 4 -1
BITMAP
E007
E007
E007
E007
E007
E007
E007
E007
FFC7
FFE7
E0E7
E067
E077
E077
E0E7
FFE7
FFC7
FF87
ENDCHAR
STARTCHAR 042C
ENCODING 1068
SWIDTH 1000 0
DWIDTH 24 0
BBX 13 18 6 -1
BITMAP
E000
E000
E000
E000
E000
E000
E000
E000
FFE0
FFF0
E078
E038
E038
E038
E038
FFF8
FFF0
FFC0
ENDCHAR
STARTCHAR 042D
ENCODING 1069
SWIDTH 1000 0
DWIDTH 24 0
BBX 15 19 5 -1
BITMAP
0FC0
3FF0
7FF8
7038
E01C
E01C
000E
000E
0FFE
0FFE
000E
000E
E00E
E01C
E01C
703C
7FF8
3FF0
0FC0
ENDCHAR
STARTCHAR 042E
ENCODING 1070
SWIDTH 1000 0
DWIDTH 24 0
BBX 18 19 3 -1
BITMAP
007C00
E0FE00
E1EF00
E38300
E38380
E30180
E30180
E70180
FF01C0
FF01C0
E701C0
E70180
E30180
E30380
E38380
E38300
E1EF00
E0FE00
E07C00
ENDCHAR
STARTCHAR 042F
ENCODING 1071
SWIDTH 1000 0
DWIDTH 24 0
BBX 14 18 5 -1
BITMAP
0FFC
3FFC
3C1C
701C
701C
701C
701C
381C
3FFC
1FFC
3E1C
781C
701C
701C
701C
701C
601C
E01C
ENDCHAR
STARTCHAR 0430
ENCODING 1072
SWIDTH 1000 0
DWIDTH 24 0
BBX 11 13 6 -1
BITMAP
1F00
7F80
7FC0
E1C0
01C0
0FC0
3FC0
F9C0
E1C0
E1C0
F7E0
7FE0
3EE0
ENDCHAR
STARTCHAR 0431
ENCODING 1073
SWIDTH 1000 0
DWIDTH 24 0
BBX 12 18 6 0
BITMAP
0040
01E0
0780
1F00
3C00
7F00
7FC0
FFE0
E0E0
E060
E070
E070
E070
E060
60E0
7FE0
3FC0
1F00
ENDCHAR
STARTCHAR 0432
ENCODING 1074
SWIDTH 1000 0
DWIDTH 24 0
BBX 12 13 6 -1
BITMAP
FF80
FFC0
E3E0
E0E0
E0E0
FFC0
FFE0
E3E0
E070
E070
E3E0
FFE0
FF80
ENDCHAR
STARTCHAR 0433
ENCODING 1075
SWIDTH 1000 0
DWIDTH 24 0
BBX 10 13 7 -1
BITMAP
FFC0
FFC0
E000
E000
E000
E000
E000
E000
E000
E000
E000
E000
E000
ENDCHAR
STARTCHAR 0434
ENCODING 1076
SWIDTH 1000 0
DWIDTH 24 0
BBX 16 17 4 -5
BITMAP
0FFC
0FFC
0E1C
0E1C
0E1C
0E1C
0E1C
0C1C
1C1C
1C1C
381C
7FFC
FFFF
E007
E003
C003
C003
ENDCHAR
STARTCHAR 0435
ENCODING 1077
SWIDTH 1000 0
DWIDTH 24 0
BBX 11 13 7 -1
BITMAP
1F00
3F80
7BC0
E0E0
E0E0
FFE0
FFE0
E000
E0E0
E0E0
7BC0
3FC0
1F00
ENDCHAR
STARTCHAR 0436
ENCODING 1078
SWIDTH 1000 0
DWIDTH 24 0
BBX 16 13 4 -1
BITMAP
E1C7
F1CF
79DF
19DC
1DF8
1FF8
1FF8
1DF8
19D8
19DC
79DF
F1CF
E1C3
ENDCHAR
STARTCHAR 0437
ENCODING 1079
SWIDTH 1000 0
DWIDTH 24 0
BBX 11 13 6 -1
BITMAP
1F80
7FC0
7BE0
E0E0
03C0
0780
07C0
00E0
E0E0
E0E0
7BE0
7FC0
1F00
ENDCHAR
STARTCHAR 0438
ENCODING 1080
SWIDTH 1000 0
DWIDTH 24 0
BBX 11 13 7 -1
BITMAP
E0E0
E0E0
E1E0
E3E0
E7E0
E7E0
EEE0
FCE0
F8E0
F0E0
F0E0
E0E0
E0E0
ENDCHAR
STARTCHAR 0439
ENCODING 1081
SWIDTH 1000 0
DWIDTH 24 0
BBX 11 18 7 -1
BITMAP
2000
6180
3F00
0000
0000
E0E0
E0E0
E1E0
E3E0
E7E0
E7E0
EEE0
FCE0
F8E0
F0E0
F0E0
E0E0
E0E0
ENDCHAR
STARTCHAR 043A
ENCODING 1082
SWIDTH 1000 0
DWIDTH 24 0
BBX 10 13 7 -1
BITMAP
E1C0
E380
E700
EE00
FC00
FC00
FE00
EE00
E700
E700
E380
E1C0
E1C0
ENDCHAR
STARTCHAR 043B
ENCODING 1083
SWIDTH 1000 0
DWIDTH 24 0
BBX 14 13 5 -2
BITMAP
0FFC
0FFC
0E1C
0E1C
0E1C
0E1C
0C1C
0C1C
1C1C
1C1C
381C
F01C
601C
ENDCHAR
STARTCHAR 043C
ENCODING 1084
SWIDTH 1000 0
DWIDTH 24 0
BBX 15 13 4 -1
BITMAP
E00E
F01E
F01E
F83E
F83E
FC7E
FC7E
EEEE
EEEE
E7CE
E7CE
E38E
E38E
ENDCHAR
STARTCHAR 043D
ENCODING 1085
SWIDTH 1000 0
DWIDTH 24 0
BBX 12 13 6 -1
BITMAP
E070
E070
E070
E070
E070
FFF0
FFF0
E070
E070
E070
E070
E070
E070
ENDCHAR
STARTCHAR 043E
ENCODING 1086
SWIDTH 1000 0
DWIDTH 24 0
BBX 12 13 6 -1
BITMAP
1F00
3FC0
7FE0
60E0
E060
E070
E070
E070
E060
60E0
7FE0
3FC0
1F00
ENDCHAR
STARTCHAR 043F
ENCODING 1087
SWIDTH 1000 0
DWIDTH 24 0
BBX 11 13 6 -1
BITMAP
FFE0
FFE0
E0E0
E0E0
E0E0
E0E0
E0E0
E0E0
E0E0
E0E0
E0E0
E0E0
E0E0
ENDCHAR
STARTCHAR 0440
ENCODING 1088
SWIDTH 1000 0
DWIDTH 24 0
BBX 11 17 6 -5
BITMAP
FF00
FF80
FBC0
E0E0
E0E0
E0E0
E0E0
E0E0
E0E0
E0E0
FBC0
FF80
EF00
E000
E000
E000
E000
ENDCHAR
STARTCHAR 0441
ENCODING 1089
SWIDTH 1000 0
DWIDTH 24 0
BBX 11 13 7 -1
BITMAP
1F00
3F80
7BC0
E0C0
E000
E000
E000
E000
E0E0
E0E0
7BC0
3FC0
1F00
ENDCHAR
STARTCHAR 0442
ENCODING 1090
SWIDTH 1000 0
DWIDTH 24 0
BBX 12 13 6 -1
BITMAP
FFF0
FFF0
0E00
0E00
0E00
0E00
0E00
0E00
0E00
0E00
0E00
0E00
0E00
ENDCHAR
STARTCHAR 0443
ENCODING 1091
SWIDTH 1000 0
DWIDTH 24 0
BBX 10 17 7 -5
BITMAP
E0C0
E1C0
71C0
7180
7380
3B80
3B00
1F00
1F00
1F00
0E00
0E00
0E00
0C00
5C00
7800
7800
ENDCHAR
STARTCHAR 0444
ENCODING 1092
SWIDTH 1000 0
DWIDTH 24 0
BBX 17 22 4 -5
BITMAP
01C000
01C000
01C000
01C000
01C000
1FF800
3FFE00
7FFF00
61C700
E1C300
E1C380
E1C380
E1C380
E1C300
E1C700
7FFF00
3FFE00
1FF800
01C000
01C000
01C000
01C000
ENDCHAR
STARTCHAR 0445
ENCODING 1093
SWIDTH 1000 0
DWIDTH 24 0
BBX 10 13 7 -1
BITMAP
E1C0
7380
7380
3F00
1E00
1E00
1E00
1E00
3F00
3300
7380
E1C0
E1C0
ENDCHAR
STARTCHAR 0446
ENCODING 1094
SWIDTH 1000 0
DWIDTH 24 0
BBX 13 17 5 -5
BITMAP
E0E0
E0E0
E0E0
E0E0
E0E0
E0E0
E0E0
E0E0
E0E0
E0E0
FFE0
FFE0
FFF8
0038
0018
0018
0018
ENDCHAR
STARTCHAR 0447
ENCODING 1095
SWIDTH 1000 0
DWIDTH 24 0
BBX 10 13 7 -1
BITMAP
E1C0
E1C0
E1C0
E1C0
E1C0
E1C0
E1C0
E3C0
7FC0
7FC0
01C0
01C0
01C0
ENDCHAR
STARTCHAR 0448
ENCODING 1096
SWIDTH 1000 0
DWIDTH 24 0
BBX 15 13 4 -1
BITMAP
E386
E386
E386
E386
E386
E386
E386
E386
E386
E386
FFFE
FFFE
FFFE
ENDCHAR
STARTCHAR 0449
ENCODING 1097
SWIDTH 1000 0
DWIDTH 24 0
BBX 18 17 3 -5
BITMAP
E38600
E38600
E38600
E38600
E38600
E38600
E38600
E38600
E38600
E38600
FFFE00
FFFF00
FFFF80
000180
000180
0001C0
0001C0
ENDCHAR
STARTCHAR 044A
ENCODING 1098
SWIDTH 1000 0
DWIDTH 24 0
BBX 14 13 5 -1
BITMAP
FC00
FC00
1C00
1C00
1C00
1FE0
1FF8
1C78
1C1C
1C1C
1C78
1FF8
1FF0
ENDCHAR
STARTCHAR 044B
ENCODING 1099
SWIDTH 1000 0
DWIDTH 24 0
BBX 14 13 5 -1
BITMAP
E01C
E01C
E01C
E01C
E01C
FF1C
FF9C
E7DC
E1DC
E1DC
E7DC
FF9C
FF1C
ENDCHAR
STARTCHAR 044C
ENCODING 1100
SWIDTH 1000 0
DWIDTH 24 0
BBX 10 13 7 -1
BITMAP
E000
E000
E000
E000
E000
FF00
FF80
E7C0
E1C0
E1C0
E7C0
FF80
FF00
ENDCHAR
STARTCHAR 044D
ENCODING 1101
SWIDTH 1000 0
DWIDTH 24 0
BBX 11 13 7 -1
BITMAP
1F00
7F80
FFC0
E1C0
00E0
1FE0
1FE0
00E0
C0E0
E1C0
FFC0
7F80
1F00
ENDCHAR
STARTCHAR 044E
ENCODING 1102
SWIDTH 1000 0
DWIDTH 24 0
BBX 17 13 4 -1
BITMAP
E07C00
E1FE00
E1EF00
E38300
E38380
FF8380
FF8380
E38380
E38380
E18300
E1EF00
E0FE00
E07C00
ENDCHAR
STARTCHAR 044F
ENCODING 1103
SWIDTH 1000 0
DWIDTH 24 0
BBX 11 13 7 -1
BITMAP
3FE0
7FE0
F8E0
E0E0
E0E0
F8E0
7FE0
7FE0
60E0
E0E0
E0E0
E0E0
C0E0
ENDCHAR
STARTCHAR 0451
ENCODING 1105
SWIDTH 1000 0
DWIDTH 24 0
BBX 11 17 7 -1
BITMAP
3B80
3B80
0000
0000
1F00
3F80
7BC0
E0E0
E0E0
FFE0
FFE0
E000
E0E0
E0E0
7BC0
3FC0
1F00
ENDCHAR
STARTCHAR 2010
ENCODING 8208
SWIDTH 1000 0
DWIDTH 24 0
BBX 9 2 7 8
BITMAP
FF80
FF80
ENDCHAR
STARTCHAR 2013
ENCODING 8211
SWIDTH 1000 0
DWIDTH 24 0
BBX 7 2 8 8
BITMAP
FE
FE
ENDCHAR
STARTCHAR 2014
ENCODING 8212
SWIDTH 1000 0
DWIDTH 24 0
BBX 21 2 2 8
BITMAP
FFFFF8
FFFFF8
ENDCHAR
STARTCHAR 2016
ENCODING 8214
SWIDTH 1000 0
DWIDTH 24 0
BBX 7 24 9 -5
BITMAP
EE
EE
EE
EE
EE
EE
EE
EE
EE
EE
EE
EE
EE
EE
EE
EE
EE
EE
EE
EE
EE
EE
EE
EE
ENDCHAR
STARTCHAR 2018
ENCODING 8216
SWIDTH 1000 0
DWIDTH 24 0
BBX 3 6 10 13
BITMAP
60
C0
C0
C0
E0
C0
ENDCHAR
STARTCHAR 2019
ENCODING 8217
SWIDTH 1000 0
DWIDTH 24 0
BBX 3 6 11 12
BITMAP
C0
E0
E0
60
40
C0
ENDCHAR
STARTCHAR 201B
ENCODING 8219
SWIDTH 1000 0
DWIDTH 24 0
BBX 3 6 11 12
BITMAP
C0
E0
C0
80
80
40
ENDCHAR
STARTCHAR 201C
ENCODING 8220
SWIDTH 1000 0
DWIDTH 24 0
BBX 7 6 9 13
BITMAP
66
CC
CC
CC
EE
CC
ENDCHAR
STARTCHAR 201D
ENCODING 8221
SWIDTH 1000 0
DWIDTH 24 0
BBX 7 6 9 12
BITMAP
CC
FC
EE
64
4C
D8
ENDCHAR
STARTCHAR 201F
ENCODING 8223
SWIDTH 1000 0
DWIDTH 24 0
BBX 6 6 9 12
BITMAP
CC
FC
D8
98
88
44
ENDCHAR
STARTCHAR 2020
ENCODING 8224
SWIDTH 1000 0
DWIDTH 24 0
BBX 10 17 7 -1
BITMAP
0C00
0C00
0C00
0C00
0C00
0C00
FFC0
FFC0
0C00
0C00
0C00
0C00
0C00
0C00
0C00
0C00
0C00
ENDCHAR
STARTCHAR 2021
ENCODING 8225
SWIDTH 1000 0
DWIDTH 24 0
BBX 10 17 7 -1
BITMAP
0C00
0C00
0C00
FFC0
FFC0
0C00
0C00
FFC0
FFC0
0C00
0C00
0C00
0C00
0C00
0C00
0C00
0C00
ENDCHAR
STARTCHAR 2022
ENCODING 8226
SWIDTH 1000 0
DWIDTH 24 0
BBX 5 6 9 5
BITMAP
70
F8
F8
F8
F8
70
ENDCHAR
STARTCHAR 2025
ENCODING 8229
SWIDTH 1000 0
DWIDTH 24 0
BBX 15 4 5 6
BITMAP
600C
F01E
F01E
600C
ENDCHAR
STARTCHAR 2026
ENCODING 8230
SWIDTH 1000 0
DWIDTH 24 0
BBX 18 4 3 6
BITMAP
60C180
F1E3C0
F1E3C0
60C180
ENDCHAR
STARTCHAR 2030
ENCODING 8240
SWIDTH 1000 0
DWIDTH 24 0
BBX 20 20 2 -2
BITMAP
001800
003800
703000
787000
FC6000
CCC000
CCC000
CD8000
CD8000
FF0000
7BF9E0
06F9F0
079F30
0D8F30
0D8F30
198F30
198F30
30F9E0
6070E0
600000
ENDCHAR
STARTCHAR 2032
ENCODING 8242
SWIDTH 1000 0
DWIDTH 24 0
BBX 6 6 9 12
BITMAP
3C
38
30
60
60
C0
ENDCHAR
STARTCHAR 2033
ENCODING 8243
SWIDTH 1000 0
DWIDTH 24 0
BBX 9 6 7 12
BITMAP
1F80
3B80
3700
7600
6600
CC00
ENDCHAR
STARTCHAR 2034
ENCODING 8244
SWIDTH 1000 0
DWIDTH 24 0
BBX 10 6 7 12
BITMAP
7FC0
6FC0
6D80
DF80
DB00
9B00
ENDCHAR
STARTCHAR 2035
ENCODING 8245
SWIDTH 1000 0
DWIDTH 24 0
BBX 5 5 9 13
BITMAP
80
C0
E0
30
08
ENDCHAR
STARTCHAR 2036
ENCODING 8246
SWIDTH 1000 0
DWIDTH 24 0
BBX 5 9 9 9
BITMAP
80
C0
E0
30
88
C0
E0
70
08
ENDCHAR
STARTCHAR 2039
ENCODING 8249
SWIDTH 1000 0
DWIDTH 24 0
BBX 17 21 3 -3
BITMAP
000180
000200
000C00
001000
006000
008000
030000
040000
180000
600000
C00000
200000
180000
040000
030000
008000
006000
001800
000400
000300
000080
ENDCHAR
STARTCHAR 203A
ENCODING 8250
SWIDTH 1000 0
DWIDTH 24 0
BBX 17 21 4 -3
BITMAP
800000
600000
180000
040000
030000
008000
006000
001000
000C00
000300
000180
000200
000C00
001000
006000
018000
030000
0C0000
100000
600000
800000
ENDCHAR
STARTCHAR 203B
ENCODING 8251
SWIDTH 1000 0
DWIDTH 24 0
BBX 16 16 4 -1
BITMAP
4100
6386
738E
391C
1C30
0EE0
67C6
F38F
F38F
67C6
0E70
1C38
391C
738E
6386
0100
ENDCHAR
STARTCHAR 203C
ENCODING 8252
SWIDTH 1000 0
DWIDTH 24 0
BBX 10 20 7 -2
BITMAP
E1C0
E1C0
E1C0
E1C0
E1C0
E1C0
E1C0
E1C0
E1C0
E1C0
E1C0
E1C0
E1C0
60C0
4080
0000
0000
E1C0
E1C0
E1C0
ENDCHAR
STARTCHAR 2042
ENCODING 8258
SWIDTH 1000 0
DWIDTH 24 0
BBX 17 19 3 -2
BITMAP
008000
008000
06B000
01C000
01C000
06B000
008000
008000
000000
000000
000000
100400
100400
D63580
380E00
380E00
D63580
100400
100400
ENDCHAR
STARTCHAR 2074
ENCODING 8308
SWIDTH 1000 0
DWIDTH 24 0
BBX 4 6 10 13
BITMAP
10
30
50
F0
10
10
ENDCHAR
STARTCHAR 207A
ENCODING 8314
SWIDTH 1000 0
DWIDTH 24 0
BBX 9 9 8 9
BITMAP
0800
0800
0800
0800
FF80
0800
0800
0800
0800
ENDCHAR
STARTCHAR 207B
ENCODING 8315
SWIDTH 1000 0
DWIDTH 24 0
BBX 8 1 8 13
BITMAP
FF
ENDCHAR
STARTCHAR 207C
ENCODING 8316
SWIDTH 1000 0
DWIDTH 24 0
BBX 8 4 8 11
BITMAP
FF
00
00
FF
ENDCHAR
STARTCHAR 207D
ENCODING 8317
SWIDTH 1000 0
DWIDTH 24 0
BBX 3 12 10 7
BITMAP
20
40
40
80
80
80
80
80
80
40
40
20
ENDCHAR
STARTCHAR 207E
ENCODING 8318
SWIDTH 1000 0
DWIDTH 24 0
BBX 3 12 10 7
BITMAP
80
40
40
20
20
20
20
20
20
40
40
80
ENDCHAR
STARTCHAR 207F
ENCODING 8319
SWIDTH 1000 0
DWIDTH 24 0
BBX 4 6 10 12
BITMAP
E0
90
90
90
90
90
ENDCHAR
STARTCHAR 2081
ENCODING 8321
SWIDTH 1000 0
DWIDTH 24 0
BBX 2 6 11 -3
BITMAP
40
C0
40
40
40
40
ENDCHAR
STARTCHAR 2082
ENCODING 8322
SWIDTH 1000 0
DWIDTH 24 0
BBX 4 6 10 -4
BITMAP
E0
90
10
60
C0
F0
ENDCHAR
STARTCHAR 2083
ENCODING 8323
SWIDTH 1000 0
DWIDTH 24 0
BBX 4 6 10 -3
BITMAP
70
90
30
10
90
60
ENDCHAR
STARTCHAR 2084
ENCODING 8324
SWIDTH 1000 0
DWIDTH 24 0
BBX 4 6 10 -3
BITMAP
10
30
70
D0
F0
10
ENDCHAR
STARTCHAR 20A9
ENCODING 8361
SWIDTH 1000 0
DWIDTH 24 0
BBX 21 17 1 -1
BITMAP
707070
307060
307060
38F8E0
38D8E0
18D8C0
FFFFF8
FFFFF8
1DDDC0
1D8DC0
0D8D80
0F8D80
0F8F80
0F0780
070700
070700
070700
ENDCHAR
STARTCHAR 20AC
ENCODING 8364
SWIDTH 1000 0
DWIDTH 24 0
BBX 12 18 6 0
BITMAP
07E0
1FE0
1C20
3800
3000
7000
FF80
FF80
7000
7000
FE00
FE00
7000
3000
3810
1EF0
1FF0
07C0
ENDCHAR
STARTCHAR 2103
ENCODING 8451
SWIDTH 1000 0
DWIDTH 24 0
BBX 17 18 3 -2
BITMAP
700000
780000
CCF800
79FE00
7B8F00
070300
060300
0E0000
0C0000
0C0000
0C0000
0C0000
0E0380
0E0380
070300
078700
03FE00
00FC00
ENDCHAR
STARTCHAR 2109
ENCODING 8457
SWIDTH 1000 0
DWIDTH 24 0
BBX 16 18 4 -1
BITMAP
7000
F800
D9FF
F9FF
7180
0180
0180
0180
0180
01FE
01FE
0180
0180
0180
0180
0180
0180
0180
ENDCHAR
STARTCHAR 2113
ENCODING 8467
SWIDTH 1000 0
DWIDTH 24 0
BBX 9 18 8 -2
BITMAP
0200
0700
0F80
1D80
1980
1980
3980
3B80
3300
3700
3600
3E00
3C00
3800
7380
F300
FE00
1E00
ENDCHAR
STARTCHAR 2116
ENCODING 8470
SWIDTH 1000 0
DWIDTH 24 0
BBX 20 17 2 -1
BITMAP
C18000
E18000
E18000
F18000
F18F00
F19F80
D99980
D9B0C0
CDB0C0
CDB0C0
CDB0C0
C7B0C0
C7B0C0
C3B0C0
C399F0
C39FF0
C18F70
ENDCHAR
STARTCHAR 2121
ENCODING 8481
SWIDTH 1000 0
DWIDTH 24 0
BBX 20 17 2 -1
BITMAP
FFC030
FFC030
0C0030
0C0030
0C7830
0CFC30
0CCE30
0DC630
0D8630
0D8230
0DFF30
0DFF30
0D8030
0D8330
0CC630
0CFE30
0C7C30
ENDCHAR
STARTCHAR 2122
ENCODING 8482
SWIDTH 1000 0
DWIDTH 24 0
BBX 20 7 2 10
BITMAP
FF6030
FF7070
1878F0
187DF0
186DB0
1867B0
186730
ENDCHAR
STARTCHAR 2126
ENCODING 8486
SWIDTH 1000 0
DWIDTH 24 0
BBX 14 18 5 -2
BITMAP
0FC0
3FF0
7878
7018
E01C
C00C
C00C
C00C
C00C
E01C
7038
7878
3CF0
0CC0
CCCC
CCCC
FCFC
FCFC
ENDCHAR
STARTCHAR 212B
ENCODING 8491
SWIDTH 1000 0
DWIDTH 24 0
BBX 14 19 5 -1
BITMAP
0780
0CC0
0CC0
0780
0000
0300
0780
0780
0780
0FC0
0CC0
1CE0
1860
3FF0
3FF0
3030
7038
6018
E01C
ENDCHAR
STARTCHAR 2153
ENCODING 8531
SWIDTH 1000 0
DWIDTH 24 0
BBX 14 21 5 -3
BITMAP
3000
3000
F000
F008
3018
3030
3070
30E0
31C0
0180
0300
0630
0CF8
18CC
30CC
6038
C03C
800C
00CC
00FC
0078
ENDCHAR
STARTCHAR 2154
ENCODING 8532
SWIDTH 1000 0
DWIDTH 24 0
BBX 15 21 4 -3
BITMAP
7800
FC00
EC00
EC06
180C
381C
6018
FC30
FC60
00C0
0180
0338
067C
0E66
1C66
181C
301E
2006
0066
007E
003C
ENDCHAR
STARTCHAR 215B
ENCODING 8539
SWIDTH 1000 0
DWIDTH 24 0
BBX 14 21 5 -3
BITMAP
3000
3000
F000
F008
3018
3030
3070
30E0
31C0
0180
0300
0630
0C78
18CC
30CC
6078
C0FC
80CC
00CC
00FC
0070
ENDCHAR
STARTCHAR 215C
ENCODING 8540
SWIDTH 1000 0
DWIDTH 24 0
BBX 15 21 5 -3
BITMAP
7800
FC00
CC00
380C
3C18
0C30
CC20
FC40
78C0
0180
0300
0638
0C7C
186C
306C
307C
607C
40C6
00C6
007C
0038
ENDCHAR
STARTCHAR 215D
ENCODING 8541
SWIDTH 1000 0
DWIDTH 24 0
BBX 15 21 5 -3
BITMAP
7C00
7C00
7804
FC0C
CC18
0C30
CC60
FCE0
79C0
0380
0300
0638
0C7C
1866
307C
607C
E0C6
40C6
00C6
007C
0038
ENDCHAR
STARTCHAR 215E
ENCODING 8542
SWIDTH 1000 0
DWIDTH 24 0
BBX 14 21 5 -3
BITMAP
FC00
FC00
1800
301C
3018
2030
6060
60C0
6180
0300
0600
0E70
0CF8
18CC
30CC
6078
C0F8
80CC
00CC
00FC
0070
ENDCHAR
STARTCHAR 2160
ENCODING 8544
SWIDTH 1000 0
DWIDTH 24 0
BBX 3 18 11 -1
BITMAP
E0
E0
E0
E0
E0
E0
E0
E0
E0
E0
E0
E0
E0
E0
E0
E0
E0
E0
ENDCHAR
STARTCHAR 2161
ENCODING 8545
SWIDTH 1000 0
DWIDTH 24 0
BBX 9 18 7 -1
BITMAP
E380
E380
E380
E380
E380
E380
E380
E380
E380
E380
E380
E380
E380
E380
E380
E380
E380
E380
ENDCHAR
STARTCHAR 2162
ENCODING 8546
SWIDTH 1000 0
DWIDTH 24 0
BBX 13 18 5 -1
BITMAP
E718
E718
E718
E718
E718
E718
E718
E718
E718
E718
E718
E718
E718
E718
E718
E718
E718
E718
ENDCHAR
STARTCHAR 2163
ENCODING 8547
SWIDTH 1000 0
DWIDTH 24 0
BBX 17 18 4 -1
BITMAP
E60380
E70700
E70700
E70700
E30600
E38E00
E38E00
E38E00
E18C00
E1DC00
E1DC00
E1DC00
E0D800
E0F800
E0F800
E07000
E07000
E07000
ENDCHAR
STARTCHAR 2164
ENCODING 8548
SWIDTH 1000 0
DWIDTH 24 0
BBX 14 18 5 -1
BITMAP
E01C
E01C
7038
7038
7038
3870
3870
3870
1CE0
1CE0
1CE0
0CC0
0FC0
0FC0
0780
0780
0780
0300
ENDCHAR
STARTCHAR 2165
ENCODING 8549
SWIDTH 1000 0
DWIDTH 24 0
BBX 17 18 4 -1
BITMAP
E07380
E07380
607380
706380
70E380
70E380
30C380
38C380
39C380
19C380
198380
1D8380
1F8380
0F8380
0F0380
0F0380
0F0380
060380
ENDCHAR
STARTCHAR 2166
ENCODING 8550
SWIDTH 1000 0
DWIDTH 24 0
BBX 18 18 3 -1
BITMAP
C1DDC0
C19DC0
E19DC0
E39DC0
639DC0
631DC0
631DC0
631DC0
731DC0
371DC0
361DC0
361DC0
361DC0
3E1DC0
1E1DC0
1C1DC0
1C1DC0
1C1DC0
ENDCHAR
STARTCHAR 2167
ENCODING 8551
SWIDTH 1000 0
DWIDTH 24 0
BBX 19 18 2 -1
BITMAP
E1BF60
E3BF60
63BF60
633F60
633F60
633F60
633F60
773F60
363F60
363F60
363F60
363F60
363F60
1E3F60
1C3F60
1C3F60
1C3F60
1C3F60
ENDCHAR
STARTCHAR 2168
ENCODING 8552
SWIDTH 1000 0
DWIDTH 24 0
BBX 17 18 4 -1
BITMAP
E70380
E70700
E38600
E38E00
E1DC00
E1DC00
E0F800
E0F800
E07000
E07000
E0F800
E0F800
E1DC00
E1CE00
E38E00
E38700
E70700
E70380
ENDCHAR
STARTCHAR 2169
ENCODING 8553
SWIDTH 1000 0
DWIDTH 24 0
BBX 14 18 5 -1
BITMAP
F03C
7038
3870
38F0
1CE0
1FE0
0FC0
0780
0780
0780
0FC0
0FC0
1EE0
1CE0
3870
7878
7038
F03C
ENDCHAR
STARTCHAR 2170
ENCODING 8560
SWIDTH 1000 0
DWIDTH 24 0
BBX 3 18 11 -1
BITMAP
E0
E0
E0
00
00
E0
E0
E0
E0
E0
E0
E0
E0
E0
E0
E0
E0
E0
ENDCHAR
STARTCHAR 2171
ENCODING 8561
SWIDTH 1000 0
DWIDTH 24 0
BBX 9 18 7 -1
BITMAP
E380
E380
E380
0000
0000
E380
E380
E380
E380
E380
E380
E380
E380
E380
E380
E380
E380
E380
ENDCHAR
STARTCHAR 2172
ENCODING 8562
SWIDTH 1000 0
DWIDTH 24 0
BBX 13 18 6 -1
BITMAP
E738
E738
E738
0000
0000
E738
E738
E738
E738
E738
E738
E738
E738
E738
E738
E738
E738
E738
ENDCHAR
STARTCHAR 2173
ENCODING 8563
SWIDTH 1000 0
DWIDTH 24 0
BBX 14 18 5 -1
BITMAP
E000
E000
E000
0000
0000
EE0C
E61C
E61C
E718
E318
E338
E3B0
E3B0
E1F0
E1F0
E1E0
E0E0
E0E0
ENDCHAR
STARTCHAR 2174
ENCODING 8564
SWIDTH 1000 0
DWIDTH 24 0
BBX 10 13 7 -1
BITMAP
C1C0
E1C0
E1C0
6180
7380
7380
3300
3F00
3F00
1E00
1E00
1E00
0C00
ENDCHAR
STARTCHAR 2175
ENCODING 8565
SWIDTH 1000 0
DWIDTH 24 0
BBX 15 18 5 -1
BITMAP
000E
000E
000E
0000
0000
E0CE
61CE
61CE
718E
318E
338E
3B0E
3B0E
1F0E
1F0E
1E0E
0E0E
0E0E
ENDCHAR
STARTCHAR 2176
ENCODING 8566
SWIDTH 1000 0
DWIDTH 24 0
BBX 16 18 4 -1
BITMAP
003F
003F
003F
0000
0000
C33F
C33F
E73F
673F
663F
663F
763F
3E3F
3C3F
3C3F
3C3F
1C3F
183F
ENDCHAR
STARTCHAR 2177
ENCODING 8567
SWIDTH 1000 0
DWIDTH 24 0
BBX 18 18 3 -1
BITMAP
007EC0
007EC0
007EC0
000000
000000
C77EC0
C67EC0
C67EC0
E67EC0
667EC0
6E7EC0
6C7EC0
6C7EC0
3C7EC0
3C7EC0
387EC0
387EC0
187EC0
ENDCHAR
STARTCHAR 2178
ENCODING 8568
SWIDTH 1000 0
DWIDTH 24 0
BBX 15 18 5 -1
BITMAP
E000
E000
E000
0000
0000
E71C
E71C
E3B8
E1B0
E1F0
E0E0
E0E0
E1F0
E1F0
E3B8
E318
E71C
EE0E
ENDCHAR
STARTCHAR 2179
ENCODING 8569
SWIDTH 1000 0
DWIDTH 24 0
BBX 10 13 7 -1
BITMAP
E1C0
7380
7380
3F00
1E00
1E00
1E00
1E00
3F00
3300
7380
E1C0
E1C0
ENDCHAR
STARTCHAR 2190
ENCODING 8592
SWIDTH 1000 0
DWIDTH 24 0
BBX 22 8 1 4
BITMAP
080000
100000
300000
FFFFFC
700000
300000
100000
080000
ENDCHAR
STARTCHAR 2191
ENCODING 8593
SWIDTH 1000 0
DWIDTH 24 0
BBX 7 24 8 -4
BITMAP
10
38
7C
FE
18
18
18
18
18
18
18
18
18
18
18
18
18
18
18
18
18
18
18
18
ENDCHAR
STARTCHAR 2192
ENCODING 8594
SWIDTH 1000 0
DWIDTH 24 0
BBX 22 8 1 4
BITMAP
000040
000020
000030
FFFFFC
000038
000030
000020
000040
ENDCHAR
STARTCHAR 2193
ENCODING 8595
SWIDTH 1000 0
DWIDTH 24 0
BBX 8 24 8 -4
BITMAP
18
18
18
18
18
18
18
18
18
18
18
18
18
18
18
18
18
18
18
99
7E
3C
18
10
ENDCHAR
STARTCHAR 2194
ENCODING 8596
SWIDTH 1000 0
DWIDTH 24 0
BBX 21 8 1 4
BITMAP
080040
100020
300030
FFFFF8
700038
300030
100020
080040
ENDCHAR
STARTCHAR 2195
ENCODING 8597
SWIDTH 1000 0
DWIDTH 24 0
BBX 8 24 8 -4
BITMAP
10
38
7C
FE
18
18
18
18
18
18
18
18
18
18
18
18
18
18
18
99
7E
3C
18
10
ENDCHAR
STARTCHAR 2196
ENCODING 8598
SWIDTH 1000 0
DWIDTH 24 0
BBX 21 23 1 -5
BITMAP
C00000
FC0000
E00000
F00000
D80000
8C0000
060000
030000
018000
00C000
006000
003000
003000
001800
000C00
000600
000300
000180
0000C0
000060
000030
000018
000018
ENDCHAR
STARTCHAR 2197
ENCODING 8599
SWIDTH 1000 0
DWIDTH 24 0
BBX 20 23 2 -5
BITMAP
000010
0001F0
000070
000070
0000D0
000190
000300
000600
000C00
001800
003000
006000
00E000
00C000
018000
030000
060000
0C0000
180000
300000
600000
C00000
C00000
ENDCHAR
STARTCHAR 2198
ENCODING 8600
SWIDTH 1000 0
DWIDTH 24 0
BBX 20 23 2 -5
BITMAP
800000
C00000
600000
300000
180000
180000
0C0000
060000
030000
018000
00C000
006000
003000
001800
000C00
000C00
000600
000300
000190
0000D0
000070
000070
0001F0
ENDCHAR
STARTCHAR 2199
ENCODING 8601
SWIDTH 1000 0
DWIDTH 24 0
BBX 21 23 1 -5
BITMAP
000008
000018
000030
000060
0000C0
0001C0
000180
000300
000600
000C00
001800
003000
006000
00C000
018000
038000
030000
860000
8C0000
D80000
F00000
F00000
FC0000
ENDCHAR
STARTCHAR 21B0
ENCODING 8624
SWIDTH 1000 0
DWIDTH 24 0
BBX 19 22 2 -4
BITMAP
100000
300000
700000
FFFFE0
300020
100020
100020
000020
000020
000020
000020
000020
000020
000020
000020
000020
000020
000020
000020
000020
000020
000020
ENDCHAR
STARTCHAR 21B1
ENCODING 8625
SWIDTH 1000 0
DWIDTH 24 0
BBX 19 22 3 -4
BITMAP
000100
000180
0001C0
FFFFE0
8001C0
800180
800100
800000
800000
800000
800000
800000
800000
800000
800000
800000
800000
800000
800000
800000
800000
800000
ENDCHAR
STARTCHAR 21B2
ENCODING 8626
SWIDTH 1000 0
DWIDTH 24 0
BBX 19 22 2 -3
BITMAP
000020
000020
000020
000020
000020
000020
000020
000020
000020
000020
000020
000020
000020
000020
000020
100020
300020
700020
FFFFE0
700000
300000
100000
ENDCHAR
STARTCHAR 21B3
ENCODING 8627
SWIDTH 1000 0
DWIDTH 24 0
BBX 19 22 3 -3
BITMAP
800000
800000
800000
800000
800000
800000
800000
800000
800000
800000
800000
800000
800000
800000
800000
800100
800180
8001C0
FFFFE0
0001C0
000180
000100
ENDCHAR
STARTCHAR 21B4
ENCODING 8628
SWIDTH 1000 0
DWIDTH 24 0
BBX 20 21 2 -5
BITMAP
FFFF80
000080
000080
000080
000080
000080
000080
000080
000080
000080
000080
000080
000080
000080
000080
000080
000080
000FF0
0007E0
0003C0
000180
ENDCHAR
STARTCHAR 21BC
ENCODING 8636
SWIDTH 1000 0
DWIDTH 24 0
BBX 21 5 2 7
BITMAP
030000
0E0000
1C0000
7C0000
FFFFF8
ENDCHAR
STARTCHAR 21C0
ENCODING 8640
SWIDTH 1000 0
DWIDTH 24 0
BBX 21 5 1 7
BITMAP
000600
000380
0001C0
0001F0
FFFFF8
ENDCHAR
STARTCHAR 21C4
ENCODING 8644
SWIDTH 1000 0
DWIDTH 24 0
BBX 22 16 1 0
BITMAP
000040
000020
000030
FFFFFC
FFFFF8
000030
000020
000040
080000
100000
300000
7FFFFC
700000
300000
100000
080000
ENDCHAR
STARTCHAR 21C5
ENCODING 8645
SWIDTH 1000 0
DWIDTH 24 0
BBX 15 24 5 -4
BITMAP
1010
3810
7C10
DE10
1010
1010
1010
1010
1010
1010
1010
1010
1010
1010
1010
1010
1010
1010
1010
1112
10FC
1078
1030
1010
ENDCHAR
STARTCHAR 21CD
ENCODING 8653
SWIDTH 1000 0
DWIDTH 24 0
BBX 21 14 2 1
BITMAP
000800
041800
0C1800
181000
3FFFF8
7FFFF8
C03000
C02000
7FFFF8
3FFFF8
184000
0C4000
04C000
00C000
ENDCHAR
STARTCHAR 21CF
ENCODING 8655
SWIDTH 1000 0
DWIDTH 24 0
BBX 22 14 1 1
BITMAP
001800
001100
001180
0030C0
FFFFE0
FFFFF0
00201C
006018
FFFFF0
FFFFE0
0040C0
00C180
008100
008000
ENDCHAR
STARTCHAR 21D0
ENCODING 8656
SWIDTH 1000 0
DWIDTH 24 0
BBX 21 12 2 2
BITMAP
040000
0C0000
180000
3FFFF8
7FFFF8
C00000
C00000
7FFFF8
3FFFF8
180000
0C0000
040000
ENDCHAR
STARTCHAR 21D1
ENCODING 8657
SWIDTH 1000 0
DWIDTH 24 0
BBX 20 24 2 -4
BITMAP
011000
010800
030C00
070E00
0D0B00
190900
190980
3108C0
610860
C10830
010800
010800
010800
010800
010800
010800
010800
010800
010800
010800
010800
010800
010800
010800
ENDCHAR
STARTCHAR 21D2
ENCODING 8658
SWIDTH 1000 0
DWIDTH 24 0
BBX 22 12 1 2
BITMAP
000100
000180
0000C0
FFFFE0
FFFFF0
00001C
000018
FFFFF0
FFFFE0
0000C0
000180
000100
ENDCHAR
STARTCHAR 21D3
ENCODING 8659
SWIDTH 1000 0
DWIDTH 24 0
BBX 20 23 2 -4
BITMAP
010800
010800
010800
010800
010800
010800
010800
010800
010800
010800
010800
010800
010800
810810
C10830
610860
3108C0
190980
0D0B00
070E00
030C00
030C00
010800
ENDCHAR
STARTCHAR 21D4
ENCODING 8660
SWIDTH 1000 0
DWIDTH 24 0
BBX 21 12 2 2
BITMAP
040200
0C0300
180180
3FFFC0
7FFFE0
C00038
C00030
7FFFE0
3FFFC0
180180
0C0300
040200
ENDCHAR
STARTCHAR 21E0
ENCODING 8672
SWIDTH 1000 0
DWIDTH 24 0
BBX 21 9 1 3
BITMAP
080000
180000
380000
79CE38
F9CE38
79CE38
380000
180000
080000
ENDCHAR
STARTCHAR 21E1
ENCODING 8673
SWIDTH 1000 0
DWIDTH 24 0
BBX 9 21 7 -3
BITMAP
0800
1C00
3E00
7F00
FF80
0000
0000
1C00
1C00
1C00
0000
0000
1C00
1C00
1C00
0000
0000
0000
1C00
1C00
1C00
ENDCHAR
STARTCHAR 21E2
ENCODING 8674
SWIDTH 1000 0
DWIDTH 24 0
BBX 21 9 2 3
BITMAP
000080
0000C0
0000E0
E71CF0
E71CF8
E71CF0
0000E0
0000C0
000080
ENDCHAR
STARTCHAR 21E3
ENCODING 8675
SWIDTH 1000 0
DWIDTH 24 0
BBX 9 21 7 -4
BITMAP
1C00
1C00
1C00
0000
0000
1C00
1C00
1C00
0000
0000
0000
1C00
1C00
1C00
0000
0000
FF80
7F00
3E00
1C00
0800
ENDCHAR
STARTCHAR 21E6
ENCODING 8678
SWIDTH 1000 0
DWIDTH 24 0
BBX 19 18 3 -2
BITMAP
010000
030000
070000
0D0000
190000
31FFE0
200020
400020
800020
C00020
400020
200020
11FFE0
090000
050000
030000
010000
010000
ENDCHAR
STARTCHAR 21E7
ENCODING 8679
SWIDTH 1000 0
DWIDTH 24 0
BBX 18 22 3 -4
BITMAP
00C000
01E000
033000
061800
0C0C00
180600
300300
7C0F80
840840
040800
040800
040800
040800
040800
040800
040800
040800
040800
040800
040800
040800
07F800
ENDCHAR
STARTCHAR 21E8
ENCODING 8680
SWIDTH 1000 0
DWIDTH 24 0
BBX 19 18 2 -2
BITMAP
001000
001800
001C00
001600
001300
FFF100
800080
800040
800020
800060
8000C0
800180
FFF300
001200
001400
001800
001800
001000
ENDCHAR
STARTCHAR 21E9
ENCODING 8681
SWIDTH 1000 0
DWIDTH 24 0
BBX 18 21 3 -3
BITMAP
07F800
040800
040800
040800
040800
040800
040800
040800
040800
040800
040800
040800
040800
FC0FC0
200180
100200
080400
040800
021000
012000
00C000
ENDCHAR
STARTCHAR 2200
ENCODING 8704
SWIDTH 1000 0
DWIDTH 24 0
BBX 14 17 5 -1
BITMAP
E01C
E01C
6038
7038
7FF8
3FF0
3FF0
3870
1CE0
1CE0
1CE0
0DC0
0FC0
0FC0
0780
0780
0780
ENDCHAR
STARTCHAR 2202
ENCODING 8706
SWIDTH 1000 0
DWIDTH 24 0
BBX 8 11 8 2
BITMAP
1C
7E
67
03
3F
7F
E7
C7
CE
FC
78
ENDCHAR
STARTCHAR 2203
ENCODING 8707
SWIDTH 1000 0
DWIDTH 24 0
BBX 12 17 6 -1
BITMAP
7FF0
7FF0
7FF0
0070
0070
0070
0070
7FF0
7FF0
7FF0
0070
0070
0070
0070
FFF0
FFF0
FFF0
ENDCHAR
STARTCHAR 2206
ENCODING 8710
SWIDTH 1000 0
DWIDTH 24 0
BBX 16 16 4 -1
BITMAP
0180
0180
03C0
03C0
06E0
06E0
0470
0C70
0830
1838
1018
301C
201C
600E
7FFE
FFFF
ENDCHAR
STARTCHAR 2207
ENCODING 8711
SWIDTH 1000 0
DWIDTH 24 0
BBX 18 14 3 0
BITMAP
FFFFC0
FFFF80
700380
300300
380700
1C0E00
0C0C00
0E1C00
063800
033000
03F000
01E000
01C000
00C000
ENDCHAR
STARTCHAR 2208
ENCODING 8712
SWIDTH 1000 0
DWIDTH 24 0
BBX 17 13 4 1
BITMAP
0FFF80
3FFF80
700000
600000
C00000
C00000
FFFF80
FFFF80
C00000
600000
700000
3FFF80
1FFF80
ENDCHAR
STARTCHAR 2209
ENCODING 8713
SWIDTH 1000 0
DWIDTH 24 0
BBX 14 16 5 0
BITMAP
0060
0040
1FFC
3CC0
60C0
C080
C080
FFFC
FFFC
C100
C100
7300
3FFC
03FC
0600
0200
ENDCHAR
STARTCHAR 220B
ENCODING 8715
SWIDTH 1000 0
DWIDTH 24 0
BBX 17 13 4 1
BITMAP
FFF800
FFFE00
000700
000300
000380
000180
FFFF80
FFFF80
000180
000300
000700
FFFE00
FFF800
ENDCHAR
STARTCHAR 220C
ENCODING 8716
SWIDTH 1000 0
DWIDTH 24 0
BBX 14 16 5 0
BITMAP
0180
0100
FFE0
FFF0
0318
020C
020C
FFFC
FFFC
040C
0C0C
0C38
FFF0
FF00
1800
0800
ENDCHAR
STARTCHAR 220F
ENCODING 8719
SWIDTH 1000 0
DWIDTH 24 0
BBX 16 17 4 0
BITMAP
FFFF
FFFF
1830
1830
1830
1830
1830
1830
1830
1830
1830
1830
1830
1830
1830
1830
1830
ENDCHAR
STARTCHAR 2211
ENCODING 8721
SWIDTH 1000 0
DWIDTH 24 0
BBX 13 17 6 0
BITMAP
FFF0
FFF0
7000
3800
1C00
1E00
0F00
0780
0380
0700
0E00
1E00
3C00
3800
7000
FFF8
FFF8
ENDCHAR
STARTCHAR 2213
ENCODING 8723
SWIDTH 1000 0
DWIDTH 24 0
BBX 15 15 5 -1
BITMAP
FFFE
FFFE
0000
0300
0300
0300
0300
0300
FFFE
FFFE
0300
0300
0300
0300
0300
ENDCHAR
STARTCHAR 221A
ENCODING 8730
SWIDTH 1000 0
DWIDTH 24 0
BBX 18 17 3 -2
BITMAP
00FFC0
01FFC0
018000
018000
038000
030000
030000
030000
060000
260000
660000
FC0000
3C0000
1C0000
180000
080000
080000
ENDCHAR
STARTCHAR 221D
ENCODING 8733
SWIDTH 1000 0
DWIDTH 24 0
BBX 16 9 4 3
BITMAP
3C0F
7F3F
E3F1
C1E0
C0C0
C1E0
E3F0
7F3F
3E0F
ENDCHAR
STARTCHAR 221E
ENCODING 8734
SWIDTH 1000 0
DWIDTH 24 0
BBX 18 9 3 3
BITMAP
3C0F00
7F3F80
E3F1C0
C1E0C0
C0C0C0
C1E0C0
E3F1C0
7F3F80
3C1F00
ENDCHAR
STARTCHAR 221F
ENCODING 8735
SWIDTH 1000 0
DWIDTH 24 0
BBX 14 13 5 2
BITMAP
C000
C000
C000
C000
C000
C000
C000
C000
C000
C000
C000
FFFC
FFFC
ENDCHAR
STARTCHAR 2220
ENCODING 8736
SWIDTH 1000 0
DWIDTH 24 0
BBX 15 14 4 1
BITMAP
0018
0038
0070
00E0
00C0
0180
0300
0600
0C00
1800
3800
7000
7FFE
FFFE
ENDCHAR
STARTCHAR 2222
ENCODING 8738
SWIDTH 1000 0
DWIDTH 24 0
BBX 14 14 5 1
BITMAP
0180
00CC
0078
01E0
0730
1C30
F010
7810
0E30
03B0
00E0
007C
01C4
0100
ENDCHAR
STARTCHAR 2225
ENCODING 8741
SWIDTH 1000 0
DWIDTH 24 0
BBX 15 16 5 0
BITMAP
00C6
018C
0188
0318
0230
0630
0C60
0C40
18C0
1180
3180
6300
6200
C600
8C00
8400
ENDCHAR
STARTCHAR 2226
ENCODING 8742
SWIDTH 1000 0
DWIDTH 24 0
BBX 15 16 5 0
BITMAP
20C6
318C
1988
1B18
0E30
0630
0E60
0F40
1BC0
1180
3180
63C0
6260
C660
8C30
8410
ENDCHAR
STARTCHAR 2227
ENCODING 8743
SWIDTH 1000 0
DWIDTH 24 0
BBX 16 14 4 0
BITMAP
0180
03C0
03C0
0660
0660
0C30
0C30
1818
1818
300C
300C
6006
6006
C003
ENDCHAR
STARTCHAR 2228
ENCODING 8744
SWIDTH 1000 0
DWIDTH 24 0
BBX 16 14 4 1
BITMAP
C003
6006
6006
300C
300C
1818
1818
0C30
0C30
0660
0660
03C0
03C0
0180
ENDCHAR
STARTCHAR 2229
ENCODING 8745
SWIDTH 1000 0
DWIDTH 24 0
BBX 14 17 5 -1
BITMAP
0FC0
3FF0
7038
6018
C00C
C00C
C00C
C00C
C00C
C00C
C00C
C00C
C00C
C00C
C00C
C00C
C00C
ENDCHAR
STARTCHAR 222A
ENCODING 8746
SWIDTH 1000 0
DWIDTH 24 0
BBX 14 17 5 -1
BITMAP
C00C
C00C
C00C
C00C
C00C
C00C
C00C
C00C
C00C
C00C
C00C
C00C
C00C
6018
7038
3FF0
0FC0
ENDCHAR
STARTCHAR 222B
ENCODING 8747
SWIDTH 1000 0
DWIDTH 24 0
BBX 10 20 7 -3
BITMAP
0380
07C0
0680
0600
0E00
0C00
0C00
0C00
0C00
0C00
0C00
0C00
0C00
0C00
1C00
1C00
1800
5800
F800
7000
ENDCHAR
STARTCHAR 222C
ENCODING 8748
SWIDTH 1000 0
DWIDTH 24 0
BBX 16 20 4 -3
BITMAP
038E
07DF
069A
0638
0E30
0C30
0C30
0C30
0C30
0C30
0C30
0C30
0C30
0C30
0C70
1C70
1860
5B60
FBC0
7180
ENDCHAR
STARTCHAR 222E
ENCODING 8750
SWIDTH 1000 0
DWIDTH 24 0
BBX 10 20 7 -3
BITMAP
0380
07C0
0680
0600
0E00
0C00
1E00
3F80
7D80
6D80
6D80
6F80
3F00
1C00
1C00
1800
1800
5800
F000
6000
ENDCHAR
STARTCHAR 2234
ENCODING 8756
SWIDTH 1000 0
DWIDTH 24 0
BBX 13 12 5 2
BITMAP
0700
0700
0700
0000
0000
0000
0000
0000
0000
E038
E038
E038
ENDCHAR
STARTCHAR 2235
ENCODING 8757
SWIDTH 1000 0
DWIDTH 24 0
BBX 13 12 5 1
BITMAP
E018
E038
E038
0000
0000
0000
0000
0000
0000
0700
0700
0700
ENDCHAR
STARTCHAR 2236
ENCODING 8758
SWIDTH 1000 0
DWIDTH 24 0
BBX 4 10 10 3
BITMAP
F0
60
00
00
00
00
00
40
60
F0
ENDCHAR
STARTCHAR 2237
ENCODING 8759
SWIDTH 1000 0
DWIDTH 24 0
BBX 9 10 7 3
BITMAP
C180
C180
0000
0000
0000
0000
0000
0000
C180
C180
ENDCHAR
STARTCHAR 223D
ENCODING 8765
SWIDTH 1000 0
DWIDTH 24 0
BBX 18 9 3 3
BITMAP
3C0F00
7E3F80
E271C0
C060C0
C0C0C0
C180C0
E391C0
7F3F80
3C0F00
ENDCHAR
STARTCHAR 2243
ENCODING 8771
SWIDTH 1000 0
DWIDTH 24 0
BBX 17 9 3 3
BITMAP
0C0000
3FC300
61FF00
001800
000000
000000
000000
FFFF80
FFFF80
ENDCHAR
STARTCHAR 2245
ENCODING 8773
SWIDTH 1000 0
DWIDTH 24 0
BBX 17 12 3 1
BITMAP
1F0100
7FFF00
407E00
000000
000000
000000
FFFF80
FFFF80
000000
000000
FFFF80
FFFF80
ENDCHAR
STARTCHAR 2248
ENCODING 8776
SWIDTH 1000 0
DWIDTH 24 0
BBX 16 10 4 2
BITMAP
1C00
7F83
C1FE
0038
0000
0000
1800
7F83
C1FE
0038
ENDCHAR
STARTCHAR 2250
ENCODING 8784
SWIDTH 1000 0
DWIDTH 24 0
BBX 16 11 4 2
BITMAP
0380
0380
0380
0000
0000
FFFF
FFFF
0000
0000
FFFF
FFFF
ENDCHAR
STARTCHAR 2251
ENCODING 8785
SWIDTH 1000 0
DWIDTH 24 0
BBX 16 14 4 1
BITMAP
0380
0380
0180
0000
FFFF
FFFF
0000
FFFF
FFFF
0000
0000
0380
0380
0180
ENDCHAR
STARTCHAR 2252
ENCODING 8786
SWIDTH 1000 0
DWIDTH 24 0
BBX 16 14 4 1
BITMAP
3800
3800
3800
0000
FFFF
FFFF
0000
FFFF
FFFF
0000
0000
001C
001C
0018
ENDCHAR
STARTCHAR 2253
ENCODING 8787
SWIDTH 1000 0
DWIDTH 24 0
BBX 16 14 4 1
BITMAP
001C
001C
0018
0000
FFFF
FFFF
0000
FFFF
FFFF
0000
0000
3800
3800
3800
ENDCHAR
STARTCHAR 225A
ENCODING 8794
SWIDTH 1000 0
DWIDTH 24 0
BBX 15 16 5 0
BITMAP
2018
3018
1830
1820
0C60
04C0
06C0
0380
0300
0100
0000
FFFE
FFFE
0000
FFFE
FFFE
ENDCHAR
STARTCHAR 2260
ENCODING 8800
SWIDTH 1000 0
DWIDTH 24 0
BBX 14 16 5 0
BITMAP
00C0
0180
0180
0180
FFFC
FFFC
0300
0300
0300
FFFC
FFFC
0600
0600
0C00
0C00
0400
ENDCHAR
STARTCHAR 2261
ENCODING 8801
SWIDTH 1000 0
DWIDTH 24 0
BBX 16 9 4 3
BITMAP
FFFF
FFFF
0000
0000
FFFF
FFFF
0000
FFFF
FFFF
ENDCHAR
STARTCHAR 2262
ENCODING 8802
SWIDTH 1000 0
DWIDTH 24 0
BBX 16 15 4 0
BITMAP
0010
0010
0030
0060
FFFF
00C0
0080
FFFF
0300
0300
0600
FFFF
0C00
0800
0800
ENDCHAR
STARTCHAR 2264
ENCODING 8804
SWIDTH 1000 0
DWIDTH 24 0
BBX 15 17 5 0
BITMAP
000C
003C
00F0
03C0
0F00
3C00
F000
F000
3C00
0F00
03C0
00F0
003C
000C
0000
FFFE
FFFE
ENDCHAR
STARTCHAR 2265
ENCODING 8805
SWIDTH 1000 0
DWIDTH 24 0
BBX 15 17 5 0
BITMAP
E000
7800
1E00
0780
01E0
0078
001E
001E
0078
01E0
0780
1E00
7800
E000
0000
FFFE
FFFE
ENDCHAR
STARTCHAR 2266
ENCODING 8806
SWIDTH 1000 0
DWIDTH 24 0
BBX 15 17 4 0
BITMAP
0006
003E
01F0
0780
3C00
F000
7C00
0F00
01E0
003C
000E
0000
FFFE
FFFE
0000
FFFE
FFFE
ENDCHAR
STARTCHAR 2267
ENCODING 8807
SWIDTH 1000 0
DWIDTH 24 0
BBX 15 17 4 0
BITMAP
C000
7800
1F00
03C0
0078
001E
007C
01E0
0F00
7800
E000
0000
FFFE
FFFE
0000
FFFE
FFFE
ENDCHAR
STARTCHAR 226E
ENCODING 8814
SWIDTH 1000 0
DWIDTH 24 0
BBX 14 16 5 -1
BITMAP
00C0
00CC
00B8
00E0
0380
0F80
7900
E100
F300
3F00
0F00
07C0
06F0
043C
040C
0400
ENDCHAR
STARTCHAR 226F
ENCODING 8815
SWIDTH 1000 0
DWIDTH 24 0
BBX 14 15 5 -1
BITMAP
00C0
C080
7180
1D80
0700
01C0
0370
031C
023C
02F0
07C0
0F00
3C00
FC00
CC00
ENDCHAR
STARTCHAR 2270
ENCODING 8816
SWIDTH 1000 0
DWIDTH 24 0
BBX 15 20 5 -3
BITMAP
0060
0064
007E
00F0
07C0
3EC0
F080
3D80
0F80
01E0
013C
030C
0300
FFFE
0600
0600
FFFE
0400
0C00
0C00
ENDCHAR
STARTCHAR 2271
ENCODING 8817
SWIDTH 1000 0
DWIDTH 24 0
BBX 15 21 4 -4
BITMAP
0040
0060
4040
F840
1EC0
03C0
00F8
019E
01F8
03E0
1F00
7B00
6300
0200
FFFE
0600
0400
FFFE
0C00
0C00
0800
ENDCHAR
STARTCHAR 2272
ENCODING 8818
SWIDTH 1000 0
DWIDTH 24 0
BBX 16 16 4 0
BITMAP
0006
003C
00F0
0780
1E00
F000
1E00
0780
01E0
003C
000E
0000
0800
7F83
C1FE
0010
ENDCHAR
STARTCHAR 2273
ENCODING 8819
SWIDTH 1000 0
DWIDTH 24 0
BBX 16 16 4 0
BITMAP
6000
3C00
0F00
01E0
0078
000F
0078
01E0
0F00
3C00
7000
0000
0800
7F83
C1FE
0010
ENDCHAR
STARTCHAR 2276
ENCODING 8822
SWIDTH 1000 0
DWIDTH 24 0
BBX 16 16 4 -1
BITMAP
0001
000F
007C
07C0
3E00
7C00
07C0
80F8
F81F
1F03
03E0
003C
007E
07C0
3E00
F000
ENDCHAR
STARTCHAR 2277
ENCODING 8823
SWIDTH 1000 0
DWIDTH 24 0
BBX 16 17 4 -1
BITMAP
8000
F000
3E00
07C0
007C
007E
03E0
1F03
F81F
80F8
0FC0
7C00
3E00
07C0
007C
000F
0001
ENDCHAR
STARTCHAR 2279
ENCODING 8825
SWIDTH 1000 0
DWIDTH 24 0
BBX 16 20 4 -3
BITMAP
0020
8060
F060
3E40
07C0
00FC
00FE
03E0
1F83
F99F
81F8
0780
7F00
3E00
07C0
067C
060F
0401
0400
0C00
ENDCHAR
STARTCHAR 227A
ENCODING 8826
SWIDTH 1000 0
DWIDTH 24 0
BBX 15 13 4 1
BITMAP
0002
000E
001C
0070
01C0
0F00
FC00
0F00
01C0
0070
001C
000E
0002
ENDCHAR
STARTCHAR 227B
ENCODING 8827
SWIDTH 1000 0
DWIDTH 24 0
BBX 15 13 4 1
BITMAP
4000
6000
3800
0E00
0380
00F0
003E
00F0
0380
0E00
3800
7000
C000
ENDCHAR
STARTCHAR 2280
ENCODING 8832
SWIDTH 1000 0
DWIDTH 24 0
BBX 15 17 5 -1
BITMAP
0100
0100
0106
011C
0138
01E0
0780
1F00
F900
1F00
03C0
01E0
0138
010C
0104
0100
0100
ENDCHAR
STARTCHAR 2281
ENCODING 8833
SWIDTH 1000 0
DWIDTH 24 0
BBX 15 17 4 -1
BITMAP
0100
0100
C100
7100
3900
0F00
0380
01F0
013E
01F0
0780
0F00
3900
6100
4100
0100
0100
ENDCHAR
STARTCHAR 2282
ENCODING 8834
SWIDTH 1000 0
DWIDTH 24 0
BBX 17 13 4 1
BITMAP
0FFF80
3FFF80
700000
600000
C00000
C00000
C00000
C00000
C00000
600000
700000
3FFF80
1FFF80
ENDCHAR
STARTCHAR 2283
ENCODING 8835
SWIDTH 1000 0
DWIDTH 24 0
BBX 17 13 3 1
BITMAP
FFF800
FFFE00
000700
000300
000180
000180
000180
000180
000180
000300
000700
FFFE00
FFFC00
ENDCHAR
STARTCHAR 2284
ENCODING 8836
SWIDTH 1000 0
DWIDTH 24 0
BBX 14 16 5 0
BITMAP
0060
0060
1FFC
3CC0
60C0
C080
C080
C180
C180
C100
4100
7300
3FFC
03FC
0200
0200
ENDCHAR
STARTCHAR 2285
ENCODING 8837
SWIDTH 1000 0
DWIDTH 24 0
BBX 14 16 5 0
BITMAP
0180
0100
FFE0
FFF0
0318
020C
060C
060C
040C
040C
0C08
0C38
FFF0
FF00
1800
1800
ENDCHAR
STARTCHAR 2286
ENCODING 8838
SWIDTH 1000 0
DWIDTH 24 0
BBX 17 16 3 -1
BITMAP
0FFF80
3FFF80
700000
E00000
C00000
C00000
C00000
C00000
600000
700000
3FFF80
0FFF80
000000
000000
FFFF80
FFFF80
ENDCHAR
STARTCHAR 2287
ENCODING 8839
SWIDTH 1000 0
DWIDTH 24 0
BBX 17 16 3 -1
BITMAP
FFFC00
FFFE00
000700
000180
000180
000180
000180
000180
000380
000700
FFFE00
FFF800
000000
000000
FFFF80
FFFF80
ENDCHAR
STARTCHAR 228A
ENCODING 8842
SWIDTH 1000 0
DWIDTH 24 0
BBX 17 19 3 -3
BITMAP
03FF80
3FFF80
700000
600000
C00000
C00000
C00000
C00000
600000
3FFF80
1FFF80
004000
FFFF80
FFFF80
008000
FFFF80
FFFF80
018000
010000
ENDCHAR
STARTCHAR 228B
ENCODING 8843
SWIDTH 1000 0
DWIDTH 24 0
BBX 17 19 3 -3
BITMAP
FFE000
FFFE00
000700
000180
000180
000180
000180
000180
000300
FFFF00
FFFC00
004000
FFFF80
FFFF80
00C000
FFFF80
FFFF80
018000
010000
ENDCHAR
STARTCHAR 2295
ENCODING 8853
SWIDTH 1000 0
DWIDTH 24 0
BBX 19 19 2 -3
BITMAP
01F800
071E00
1C6300
306180
6060C0
606040
406060
C06020
806020
BFFFE0
BFFFE0
C06020
C06060
406060
6060C0
306080
186380
0E0E00
03FC00
ENDCHAR
STARTCHAR 2296
ENCODING 8854
SWIDTH 1000 0
DWIDTH 24 0
BBX 19 19 2 -3
BITMAP
01F800
071E00
1C0300
300180
6000C0
600040
400060
C00020
800020
BFFFE0
BFFFE0
C00020
C00060
400060
6000C0
300080
180380
0E0E00
03FC00
ENDCHAR
STARTCHAR 2297
ENCODING 8855
SWIDTH 1000 0
DWIDTH 24 0
BBX 19 19 2 -3
BITMAP
01F800
071E00
1C0300
300180
6C02C0
6E0640
470C60
C39820
81F020
80E020
80F020
C1B820
C31C60
460E60
6C07C0
300280
180380
0E0E00
03FC00
ENDCHAR
STARTCHAR 22A3
ENCODING 8867
SWIDTH 1000 0
DWIDTH 24 0
BBX 12 15 6 0
BITMAP
0030
0030
0030
0030
0030
0030
0030
FFF0
FFF0
0030
0030
0030
0030
0030
0030
ENDCHAR
STARTCHAR 22A4
ENCODING 8868
SWIDTH 1000 0
DWIDTH 24 0
BBX 15 14 4 0
BITMAP
FFFE
FFFE
0180
0180
0180
0180
0180
0180
0180
0180
0180
0180
0180
0180
ENDCHAR
STARTCHAR 22A5
ENCODING 8869
SWIDTH 1000 0
DWIDTH 24 0
BBX 15 14 4 0
BITMAP
0180
0180
0180
0180
0180
0180
0180
0180
0180
0180
0180
0180
FFFE
FFFE
ENDCHAR
STARTCHAR 22BB
ENCODING 8891
SWIDTH 1000 0
DWIDTH 24 0
BBX 15 15 5 1
BITMAP
600C
2008
3018
1010
1830
0820
0C60
0440
06C0
0280
0380
0100
0100
FFFE
FFFE
ENDCHAR
STARTCHAR 22BC
ENCODING 8892
SWIDTH 1000 0
DWIDTH 24 0
BBX 15 15 5 -2
BITMAP
FFFE
FFFE
0100
0100
0380
0280
06C0
0440
0C60
0820
1830
1010
3018
2008
600C
ENDCHAR
STARTCHAR 22CE
ENCODING 8910
SWIDTH 1000 0
DWIDTH 24 0
BBX 12 14 6 1
BITMAP
0400
0600
0600
0600
0F00
0900
1980
1980
30C0
30C0
6060
C020
C030
8010
ENDCHAR
STARTCHAR 22CF
ENCODING 8911
SWIDTH 1000 0
DWIDTH 24 0
BBX 12 14 6 0
BITMAP
8010
C030
C030
6060
30C0
30C0
1980
1980
0900
0F00
0600
0600
0600
0400
ENDCHAR
STARTCHAR 22DA
ENCODING 8922
SWIDTH 1000 0
DWIDTH 24 0
BBX 16 17 4 0
BITMAP
0007
00FC
0FC0
FC00
07E0
007E
0003
0000
FFFF
0000
E000
3F00
01F0
007E
0FC0
FC00
8000
ENDCHAR
STARTCHAR 22DB
ENCODING 8923
SWIDTH 1000 0
DWIDTH 24 0
BBX 16 17 4 0
BITMAP
E000
7E00
03F0
003E
07E0
FC00
C000
0000
FFFF
0000
000F
00FC
1F80
7E00
03E0
003F
0003
ENDCHAR
STARTCHAR 22EE
ENCODING 8942
SWIDTH 1000 0
DWIDTH 24 0
BBX 2 16 11 -1
BITMAP
C0
C0
00
00
00
00
00
C0
C0
00
00
00
00
00
C0
C0
ENDCHAR
STARTCHAR 22EF
ENCODING 8943
SWIDTH 1000 0
DWIDTH 24 0
BBX 18 4 3 6
BITMAP
60C180
F1E3C0
F1E3C0
60C180
ENDCHAR
STARTCHAR 2306
ENCODING 8966
SWIDTH 1000 0
DWIDTH 24 0
BBX 15 16 5 -1
BITMAP
FFFE
FFFE
0000
FFFE
FFFE
0000
0100
0380
0680
06C0
0C40
0860
1830
3030
3018
2000
ENDCHAR
STARTCHAR 2312
ENCODING 8978
SWIDTH 1000 0
DWIDTH 24 0
BBX 12 4 6 11
BITMAP
1F80
3FC0
7060
C030
ENDCHAR
STARTCHAR 2314
ENCODING 8980
SWIDTH 1000 0
DWIDTH 24 0
BBX 14 15 5 -1
BITMAP
3FF0
F03C
C00C
C00C
6018
2010
3030
1020
1860
0840
0CC0
0780
0300
0300
0200
ENDCHAR
STARTCHAR 2460
ENCODING 9312
SWIDTH 1000 0
DWIDTH 24 0
BBX 21 22 2 -5
BITMAP
01F800
070700
0C0180
1000C0
203060
607020
41F010
C1F010
807018
807008
807008
807008
807008
807008
C07010
407010
407030
207020
100040
180180
060700
01FC00
ENDCHAR
STARTCHAR 2461
ENCODING 9313
SWIDTH 1000 0
DWIDTH 24 0
BBX 21 22 2 -4
BITMAP
01F800
070700
0C0180
10F8C0
21FC60
61DE20
438E10
C38E10
800E18
800E08
801C08
803808
80F008
81C008
C18010
438010
43FE30
23FE20
100040
180180
060700
01FC00
ENDCHAR
STARTCHAR 2462
ENCODING 9314
SWIDTH 1000 0
DWIDTH 24 0
BBX 21 22 2 -4
BITMAP
01F800
070700
0C0180
10F8C0
21FC60
63DE20
438E10
C38E10
800E18
803C08
803C08
801E08
800608
838708
C38710
438E10
41FE30
20FC20
100040
180180
060700
01FC00
ENDCHAR
STARTCHAR 2463
ENCODING 9315
SWIDTH 1000 0
DWIDTH 24 0
BBX 21 22 2 -4
BITMAP
01F800
070700
0C0180
1000C0
203860
603820
407810
C0F810
80F818
81B808
81B808
833808
873808
87FC08
C7FC10
403810
403830
203820
100040
180180
060700
01FC00
ENDCHAR
STARTCHAR 2464
ENCODING 9316
SWIDTH 1000 0
DWIDTH 24 0
BBX 21 22 2 -4
BITMAP
01F800
070700
0C0180
1000C0
21FC60
61FC20
418010
C18010
81F818
83FC08
83FE08
830E08
800E08
800E08
C30E10
438E10
43FC30
21F820
100040
180180
060700
01FC00
ENDCHAR
STARTCHAR 2465
ENCODING 9317
SWIDTH 1000 0
DWIDTH 24 0
BBX 21 22 2 -4
BITMAP
01F800
070700
0C0180
1000C0
20F860
61FC20
41CE10
C38010
838018
83FC08
83FC08
838E08
838E08
838E08
C38E10
418E10
41FC30
20FC20
100040
180180
060700
01FC00
ENDCHAR
STARTCHAR 2466
ENCODING 9318
SWIDTH 1000 0
DWIDTH 24 0
BBX 21 22 2 -4
BITMAP
01F800
070700
0C0180
1000C0
23FE60
63FE20
400E10
C00C10
801818
803808
803008
807008
806008
806008
C0E010
40E010
40E030
20E020
10E040
180180
060700
01FC00
ENDCHAR
STARTCHAR 2467
ENCODING 9319
SWIDTH 1000 0
DWIDTH 24 0
BBX 21 22 2 -4
BITMAP
01F800
070700
0C0180
1000C0
20F860
61FC20
438C10
C38E10
838C18
81DC08
81F808
81FC08
838E08
870E08
C70E10
470E10
43FE30
23FC20
10F840
180180
060700
01FC00
ENDCHAR
STARTCHAR 2468
ENCODING 9320
SWIDTH 1000 0
DWIDTH 24 0
BBX 21 22 2 -4
BITMAP
01F800
070700
0C0180
1000C0
20F860
61FC20
438C10
C38E10
838E18
838E08
838E08
81FE08
81FE08
800E08
C00E18
439C10
41FC30
20F820
300040
180080
060300
01FC00
ENDCHAR
STARTCHAR 2469
ENCODING 9321
SWIDTH 1000 0
DWIDTH 24 0
BBX 21 22 2 -5
BITMAP
01F800
070700
0C0180
1000C0
231F60
673FA0
5F3390
DF7190
877198
8771C8
8771C8
8771C8
8771C8
877188
C77190
473390
473FB0
271F20
100040
180180
060700
01FC00
ENDCHAR
STARTCHAR 246A
ENCODING 9322
SWIDTH 1000 0
DWIDTH 24 0
BBX 21 22 2 -5
BITMAP
01F800
070700
0C0180
1000C0
218760
638720
4F9F10
CF9F10
838718
838708
838708
838708
838708
838708
C38710
438710
438730
238720
100040
180180
060700
01FC00
ENDCHAR
STARTCHAR 246B
ENCODING 9323
SWIDTH 1000 0
DWIDTH 24 0
BBX 21 22 2 -4
BITMAP
01F800
070700
0C0180
1000C0
271E60
673F20
4F7F90
DF7390
9F7398
870388
870308
870708
870E08
871C08
C73810
477010
477FB0
277FA0
100040
180180
060700
01FC00
ENDCHAR
STARTCHAR 246C
ENCODING 9324
SWIDTH 1000 0
DWIDTH 24 0
BBX 21 22 2 -4
BITMAP
01F800
070700
0C0180
1000C0
231E60
633F20
477F90
DF7390
9F7388
870788
870E08
870F88
870388
8701C8
C7E1D8
477390
677FB0
273F20
300040
1C0180
070700
01FC00
ENDCHAR
STARTCHAR 246D
ENCODING 9325
SWIDTH 1000 0
DWIDTH 24 0
BBX 21 22 2 -4
BITMAP
01F800
070700
0C0180
1000C0
230360
670720
470710
DF0F10
9F0F18
871B08
871B08
873308
877308
877F88
C77F90
470310
470330
270320
100040
180180
060700
01FC00
ENDCHAR
STARTCHAR 246E
ENCODING 9326
SWIDTH 1000 0
DWIDTH 24 0
BBX 21 22 2 -4
BITMAP
01F800
070700
0C0180
1000C0
233FE0
673FB0
473010
DF3010
9F3008
873F08
877F08
877388
870188
870188
C76198
476190
677FB0
273F20
301E40
1C0180
070700
01FC00
ENDCHAR
STARTCHAR 246F
ENCODING 9327
SWIDTH 1000 0
DWIDTH 24 0
BBX 21 22 2 -4
BITMAP
01F800
070700
0C0180
1000C0
230E60
671FA0
473F90
DF3190
9F7018
876F08
877F88
877F88
877188
8771C8
C771D0
473390
473FB0
271F20
100040
180180
060700
01FC00
ENDCHAR
STARTCHAR 2470
ENCODING 9328
SWIDTH 1000 0
DWIDTH 24 0
BBX 21 22 2 -4
BITMAP
01F800
070700
0C0180
1000C0
237FE0
677FA0
470190
DF0310
9F0618
870E08
870C08
870C08
871C08
871808
C71810
471810
473830
273820
100040
180180
060700
01FC00
ENDCHAR
STARTCHAR 2471
ENCODING 9329
SWIDTH 1000 0
DWIDTH 24 0
BBX 21 22 2 -4
BITMAP
01F800
070700
0C0180
1000C0
271E60
673F20
477F90
DF7190
9F7198
877F88
873F08
877F88
877388
87E1C8
C7E1D0
477390
477FB0
273F20
100040
180180
060700
01FC00
ENDCHAR
STARTCHAR 2472
ENCODING 9330
SWIDTH 1000 0
DWIDTH 24 0
BBX 21 22 2 -4
BITMAP
01F800
070700
0C0180
1000C0
231F60
633FA0
477390
DF7190
9F7188
8771C8
8771C8
877FC8
873FC8
871D88
C70198
477390
673F30
273F20
300040
1C0180
070700
01FC00
ENDCHAR
STARTCHAR 2473
ENCODING 9331
SWIDTH 1000 0
DWIDTH 24 0
BBX 21 22 2 -4
BITMAP
01F800
070700
0C0180
1000C0
27CFE0
67CFA0
4C7DD0
CC78D0
8C78D8
8078C8
80D8C8
8198C8
8318C8
8618C8
CC18D0
4C0D90
6FEFB0
3FE720
100040
1C0180
070300
01FC00
ENDCHAR
STARTCHAR 2474
ENCODING 9332
SWIDTH 1000 0
DWIDTH 24 0
BBX 22 23 1 -5
BITMAP
100060
300020
300030
603030
607038
607018
E1F018
E1F018
E07018
E0701C
E0701C
E0701C
E0701C
E0701C
E07018
E07018
E07018
607018
607038
600030
300030
300020
100060
ENDCHAR
STARTCHAR 2475
ENCODING 9333
SWIDTH 1000 0
DWIDTH 24 0
BBX 22 23 1 -4
BITMAP
100060
300020
300030
607830
61FE38
61FE18
E38718
E38718
E38718
E0061C
E00E1C
E01C1C
E0781C
E0F01C
E1C018
E18018
E38018
63FF18
63FF38
600030
300030
300020
100060
ENDCHAR
STARTCHAR 2476
ENCODING 9334
SWIDTH 1000 0
DWIDTH 24 0
BBX 22 23 1 -4
BITMAP
100060
300020
300030
607830
60FE38
61FE18
E18718
E38718
E00618
E01E1C
E03C1C
E03E1C
E0071C
E0071C
E38718
E38718
E38718
61FE18
60FC38
600030
300030
300020
100060
ENDCHAR
STARTCHAR 2477
ENCODING 9335
SWIDTH 1000 0
DWIDTH 24 0
BBX 22 23 1 -4
BITMAP
100060
300060
300030
601C30
601C38
603C18
E07C18
E07C18
E0FC18
E1DC1C
E1DC1C
E39C1C
E31C1C
E7FE1C
E7FE18
E01C18
E01C18
601C18
601C38
600030
300030
300060
100060
ENDCHAR
STARTCHAR 2478
ENCODING 9336
SWIDTH 1000 0
DWIDTH 24 0
BBX 22 23 1 -4
BITMAP
100060
300020
300030
60FE30
60FE38
61C018
E1C018
E1C018
E18018
E1FC1C
E1FE1C
E38F1C
E0071C
E0071C
E00718
E38718
E38F18
61FE18
60FC38
600030
300030
300020
100060
ENDCHAR
STARTCHAR 2479
ENCODING 9337
SWIDTH 1000 0
DWIDTH 24 0
BBX 22 23 1 -4
BITMAP
100060
300020
300030
607830
60FE38
61FE18
E18718
E38018
E38018
E3FC1C
E3FE1C
E3CF1C
E3871C
E3871C
E38718
E38718
E1CF18
61FE18
60FC38
600030
300030
300020
100060
ENDCHAR
STARTCHAR 247A
ENCODING 9338
SWIDTH 1000 0
DWIDTH 24 0
BBX 22 23 1 -4
BITMAP
180060
300020
300030
600030
61FF38
61FF18
E00718
E00E18
E00C18
E0181C
E0381C
E0301C
E0301C
E0701C
E07018
E06018
E06018
60E018
60E038
60E030
300030
300020
180060
ENDCHAR
STARTCHAR 247B
ENCODING 9339
SWIDTH 1000 0
DWIDTH 24 0
BBX 22 23 1 -4
BITMAP
100060
300020
300030
60F830
61FC38
63DE18
E38E18
E38E18
E38E18
E3DE1C
E1FC1C
E1FE1C
E38F1C
E3071C
E70718
E70718
E38718
63FE18
61FE38
60F830
300030
300020
100060
ENDCHAR
STARTCHAR 247C
ENCODING 9340
SWIDTH 1000 0
DWIDTH 24 0
BBX 22 23 1 -4
BITMAP
100060
300060
300030
607830
61FC38
61FE18
E38618
E38618
E38618
E3871C
E38F1C
E1FF1C
E1FF1C
E0F61C
E00618
E38618
E18E18
61FC18
60F838
600030
300030
300060
100060
ENDCHAR
STARTCHAR 247D
ENCODING 9341
SWIDTH 1000 0
DWIDTH 24 0
BBX 22 23 1 -4
BITMAP
100060
300060
300030
600030
630E30
673F18
E73B98
FF3198
FF71D8
E771DC
E771DC
E771DC
E771DC
E771DC
E771D8
E771D8
E73198
673B98
673F38
670E30
200030
300060
100060
ENDCHAR
STARTCHAR 247E
ENCODING 9342
SWIDTH 1000 0
DWIDTH 24 0
BBX 22 23 1 -4
BITMAP
100060
300060
300030
600030
618338
638718
E38718
EF9F18
EF9F18
E3871C
E3871C
E3871C
E3871C
E3871C
E38718
E38718
E38718
638718
638738
638730
300030
300060
100060
ENDCHAR
STARTCHAR 247F
ENCODING 9343
SWIDTH 1000 0
DWIDTH 24 0
BBX 22 24 1 -5
BITMAP
100060
300060
300030
200030
630F30
673FB8
673B98
FF31D8
FF71D8
E701D8
E7019C
E7039C
E7071C
E70E1C
E71C18
E73818
E73818
673018
677FD8
677FF8
600030
300030
300060
100060
ENDCHAR
STARTCHAR 2480
ENCODING 9344
SWIDTH 1000 0
DWIDTH 24 0
BBX 22 23 1 -5
BITMAP
100060
300060
200030
630F30
673FB8
673B98
FF31D8
FF71D8
E70198
E7039C
E7071C
E7079C
E701DC
E701DC
E771D8
E771D8
E77BD8
673F98
671F38
600030
200030
300060
100060
ENDCHAR
STARTCHAR 2481
ENCODING 9345
SWIDTH 1000 0
DWIDTH 24 0
BBX 22 24 1 -5
BITMAP
100060
300060
300030
200030
6303B0
670398
670798
FF0798
FF0F98
E70F98
E71B9C
E71B9C
E7339C
E7339C
E76398
E77FD8
E77FD8
670398
670398
6703B8
600030
200030
300020
100060
ENDCHAR
STARTCHAR 2482
ENCODING 9346
SWIDTH 1000 0
DWIDTH 24 0
BBX 22 24 1 -5
BITMAP
100060
300060
300030
200030
631FB0
671F98
673818
FF3818
FF3018
E73018
E73F9C
E73F9C
E771DC
E701DC
E701D8
E701D8
E771D8
6771D8
673F98
673F38
600030
300030
300020
100060
ENDCHAR
STARTCHAR 2483
ENCODING 9347
SWIDTH 1000 0
DWIDTH 24 0
BBX 21 22 1 -5
BITMAP
100040
200020
200020
211E20
433310
5F2190
416010
814008
814008
815E08
817308
816108
814088
814088
814088
814088
414190
412110
413310
211E20
200020
100040
ENDCHAR
STARTCHAR 2484
ENCODING 9348
SWIDTH 1000 0
DWIDTH 24 0
BBX 21 21 1 -4
BITMAP
100040
200020
210020
413F90
430190
5F0310
410208
810608
810408
810C08
810C08
811808
811808
811808
811008
413010
413010
413010
213020
200020
100040
ENDCHAR
STARTCHAR 2485
ENCODING 9349
SWIDTH 1000 0
DWIDTH 24 0
BBX 21 21 1 -4
BITMAP
100040
200020
211C20
413210
472110
5F2110
412110
812108
813308
811E08
813E08
812108
814188
814088
814088
414090
416190
413310
211E20
200020
100040
ENDCHAR
STARTCHAR 2486
ENCODING 9350
SWIDTH 1000 0
DWIDTH 24 0
BBX 21 22 1 -5
BITMAP
100040
200020
200020
211E20
433310
5F6110
414090
814088
814088
814088
814188
816388
813E88
810088
810088
810188
416110
416110
413310
211E20
200020
100040
ENDCHAR
STARTCHAR 2487
ENCODING 9351
SWIDTH 1000 0
DWIDTH 24 0
BBX 21 21 1 -4
BITMAP
100040
200020
230720
448D90
484890
485850
485048
885048
805048
80D048
819048
819048
831048
861048
8C1048
4C10D0
580890
580D90
3FC720
200020
100040
ENDCHAR
STARTCHAR 249C
ENCODING 9372
SWIDTH 1000 0
DWIDTH 24 0
BBX 22 23 1 -4
BITMAP
100060
300020
300030
600030
600038
60FC18
E1FE18
E18E18
E38E18
E01E1C
E0FE1C
E1FE1C
E38E1C
E38E1C
E38E18
E3FF18
E1FF18
600018
600038
600030
300030
300020
100060
ENDCHAR
STARTCHAR 249D
ENCODING 9373
SWIDTH 1000 0
DWIDTH 24 0
BBX 22 23 1 -4
BITMAP
100060
300020
300030
638030
638038
638018
E38018
E3BC18
E3FE18
E3FF1C
E3871C
E3831C
E3839C
E3839C
E38398
E38318
E38718
63C718
63FE38
63FC30
300030
300020
100060
ENDCHAR
STARTCHAR 249E
ENCODING 9374
SWIDTH 1000 0
DWIDTH 24 0
BBX 22 23 1 -4
BITMAP
100060
300020
300030
600030
600038
60F818
E1FC18
E3FE18
E38618
E3001C
E7001C
E7001C
E7001C
E3071C
E38E18
E1FE18
E0FC18
600018
600038
600030
200030
300020
100060
ENDCHAR
STARTCHAR 249F
ENCODING 9375
SWIDTH 1000 0
DWIDTH 24 0
BBX 22 23 1 -5
BITMAP
100060
300020
300730
600730
600738
600718
E0F718
E1FF18
E3FF18
E70F1C
E7071C
E7071C
E7071C
E7071C
E70718
E70F18
E38F18
63FF18
61FF38
600030
300030
300020
100060
ENDCHAR
STARTCHAR 24A0
ENCODING 9376
SWIDTH 1000 0
DWIDTH 24 0
BBX 22 23 1 -4
BITMAP
100060
300020
300030
600030
600038
60F818
E1FC18
E38E18
E30618
E7061C
E7FF1C
E7FF1C
E7001C
E3071C
E38E18
E1FE18
E0FC18
600018
600038
600030
200030
300020
100060
ENDCHAR
STARTCHAR 24A1
ENCODING 9377
SWIDTH 1000 0
DWIDTH 24 0
BBX 22 23 1 -4
BITMAP
180060
300020
300030
600030
603C38
607C18
E07018
E07018
E0FC18
E0FC1C
E0701C
E0701C
E0701C
E0701C
E07018
E07018
E07018
607018
607038
607030
300030
300020
180060
ENDCHAR
STARTCHAR 24A2
ENCODING 9378
SWIDTH 1000 0
DWIDTH 24 0
BBX 22 23 1 -4
BITMAP
100060
300060
300030
600030
61FF38
63FF18
E38F18
E30718
E70718
E7071C
E7071C
E3071C
E38F1C
E3FF1C
E1FF18
E00718
E30618
63DE18
61FC38
60F830
200030
300060
100060
ENDCHAR
STARTCHAR 24A3
ENCODING 9379
SWIDTH 1000 0
DWIDTH 24 0
BBX 22 23 1 -4
BITMAP
100060
300020
300030
638030
638038
638018
E38018
E3BC18
E3FE18
E3FE1C
E3861C
E3871C
E3871C
E3871C
E38718
E38718
E38718
638718
638738
638730
300030
300020
100060
ENDCHAR
STARTCHAR 24A4
ENCODING 9380
SWIDTH 1000 0
DWIDTH 24 0
BBX 21 23 1 -4
BITMAP
100060
300060
300030
607030
607030
607038
E00018
E00018
E07018
E07018
E07018
E07018
E07018
E07018
E07018
E07018
E07018
607038
607030
607030
300030
300060
100060
ENDCHAR
STARTCHAR 24A5
ENCODING 9381
SWIDTH 1000 0
DWIDTH 24 0
BBX 22 23 1 -3
BITMAP
100060
300020
303830
603830
603838
600018
E03818
E03818
E03818
E0381C
E0381C
E0381C
E0381C
E0381C
E03818
E03818
E03818
603818
603838
607830
307030
307020
100060
ENDCHAR
STARTCHAR 24A6
ENCODING 9382
SWIDTH 1000 0
DWIDTH 24 0
BBX 22 23 1 -4
BITMAP
100060
300020
338030
638030
638038
638018
E38018
E38718
E38E18
E39C1C
E3B81C
E3F01C
E3F01C
E3F81C
E39C18
E39C18
E38E18
638618
638738
600030
300030
300020
100060
ENDCHAR
STARTCHAR 24A7
ENCODING 9383
SWIDTH 1000 0
DWIDTH 24 0
BBX 22 23 1 -4
BITMAP
100060
300020
300030
607030
607038
607018
E07018
E07018
E07018
E0701C
E0701C
E0701C
E0701C
E0701C
E07018
E07018
E07018
607018
607038
607030
300030
300020
100060
ENDCHAR
STARTCHAR 24A8
ENCODING 9384
SWIDTH 1000 0
DWIDTH 24 0
BBX 22 24 1 -5
BITMAP
100060
300060
300030
600030
600030
600018
FFEF98
FFFF98
FE79D8
FC71D8
FC71DC
FC71DC
FC71DC
FC71DC
FC71D8
FC71D8
FC71D8
7C71D8
600038
600030
200030
300060
300060
180040
ENDCHAR
STARTCHAR 24A9
ENCODING 9385
SWIDTH 1000 0
DWIDTH 24 0
BBX 22 23 1 -4
BITMAP
100060
300020
300030
600030
600038
63FC18
E3FE18
E3FE18
E38618
E3871C
E3871C
E3871C
E3871C
E3871C
E38718
E38718
E38718
600018
600038
600030
300030
300020
100060
ENDCHAR
STARTCHAR 24AA
ENCODING 9386
SWIDTH 1000 0
DWIDTH 24 0
BBX 22 23 1 -4
BITMAP
100060
300020
300030
600030
600038
60F818
E1FC18
E3FE18
E38718
E3071C
E7071C
E7071C
E7071C
E3071C
E38E18
E1FE18
E0FC18
600018
600038
600030
300030
300020
100060
ENDCHAR
STARTCHAR 24AB
ENCODING 9387
SWIDTH 1000 0
DWIDTH 24 0
BBX 22 23 1 -4
BITMAP
100060
300020
300030
600030
63FE38
63FE18
E3C718
E38318
E38398
E3839C
E3839C
E3839C
E3831C
E3C71C
E3FE18
E3FC18
E38018
638018
638038
638030
300030
300020
100060
ENDCHAR
STARTCHAR 24AC
ENCODING 9388
SWIDTH 1000 0
DWIDTH 24 0
BBX 22 23 1 -4
BITMAP
100060
300020
300030
600030
60F738
63FF18
E3FF18
E70F18
E70718
E7071C
E7071C
E7071C
E7071C
E70F1C
E3FF18
E1FF18
E0F718
600718
600738
600730
200030
300020
100060
ENDCHAR
STARTCHAR 24AD
ENCODING 9389
SWIDTH 1000 0
DWIDTH 24 0
BBX 22 23 1 -4
BITMAP
100060
300020
300030
600030
600038
600018
E0EC18
E0FC18
E0FC18
E0F01C
E0E01C
E0E01C
E0E01C
E0E01C
E0E018
E0E018
E0E018
60E018
600038
600030
300030
300020
100060
ENDCHAR
STARTCHAR 24AE
ENCODING 9390
SWIDTH 1000 0
DWIDTH 24 0
BBX 22 23 1 -4
BITMAP
100060
300020
300030
600030
600038
60FC18
E1FE18
E38E18
E38618
E1C01C
E1FC1C
E07E1C
E00E1C
E3871C
E38718
E1FE18
E0FC18
600018
600038
600030
300030
300020
100060
ENDCHAR
STARTCHAR 24AF
ENCODING 9391
SWIDTH 1000 0
DWIDTH 24 0
BBX 22 23 1 -4
BITMAP
100060
300060
300030
600030
607038
607018
E07018
E1F818
E1F818
E0701C
E0701C
E0701C
E0701C
E0701C
E07018
E07018
E07018
607818
607838
600030
300030
300060
100060
ENDCHAR
STARTCHAR 24B0
ENCODING 9392
SWIDTH 1000 0
DWIDTH 24 0
BBX 22 23 1 -4
BITMAP
100060
300020
300030
600030
600038
638718
E38718
E38718
E38718
E3871C
E3871C
E3871C
E3871C
E3871C
E38718
E1FF18
E1FF18
60F018
600038
600030
300030
300020
100060
ENDCHAR
STARTCHAR 24B1
ENCODING 9393
SWIDTH 1000 0
DWIDTH 24 0
BBX 22 23 1 -4
BITMAP
100060
300020
300030
600030
600038
600018
E30718
E38618
E18E18
E18E1C
E1CC1C
E0CC1C
E0DC1C
E0F81C
E07818
E07818
E07018
603018
600038
600030
300030
300020
100060
ENDCHAR
STARTCHAR 24B2
ENCODING 9394
SWIDTH 1000 0
DWIDTH 24 0
BBX 22 24 1 -4
BITMAP
180040
100060
300030
300030
600030
600018
600018
EC70D8
EC71D8
EC79D8
EE799C
E6799C
E6DB9C
E6DB1C
E7CF18
E3CF18
E38F18
638E18
618618
600038
600030
300030
300020
100060
ENDCHAR
STARTCHAR 24B3
ENCODING 9395
SWIDTH 1000 0
DWIDTH 24 0
BBX 22 23 1 -4
BITMAP
100060
300020
300030
600030
600038
638618
E1CE18
E0DC18
E0F818
E0781C
E0701C
E0781C
E0F81C
E0DC1C
E1CC18
E18E18
E38718
600018
600038
600030
300030
300020
100060
ENDCHAR
STARTCHAR 24B4
ENCODING 9396
SWIDTH 1000 0
DWIDTH 24 0
BBX 22 23 1 -4
BITMAP
100060
300020
300030
600030
600038
618718
E18618
E1CE18
E0CE18
E0EC1C
E0EC1C
E07C1C
E0781C
E0381C
E03818
E03818
E03018
607018
61E038
61E030
300030
300020
100060
ENDCHAR
STARTCHAR 24B5
ENCODING 9397
SWIDTH 1000 0
DWIDTH 24 0
BBX 22 23 1 -4
BITMAP
100060
300020
300030
600030
600038
61FE18
E1FE18
E00E18
E01C18
E0381C
E0381C
E0701C
E0E01C
E1E01C
E1C018
E3FE18
E3FE18
600018
600038
600030
300030
300020
100060
ENDCHAR
STARTCHAR 24B6
ENCODING 9398
SWIDTH 1000 0
DWIDTH 24 0
BBX 21 22 2 -4
BITMAP
01F800
070700
0C0180
1070C0
207060
60F020
40F810
C0D810
80D818
81DC08
818C08
818C08
83FE08
83FE08
C30610
470710
460330
260320
100040
180180
060700
01FC00
ENDCHAR
STARTCHAR 24B7
ENCODING 9399
SWIDTH 1000 0
DWIDTH 24 0
BBX 21 22 2 -4
BITMAP
01F800
070700
0C0180
1000C0
23FE60
63FF20
438710
C38710
838718
838F08
83FE08
83FE08
838708
838388
C38390
438710
43FF30
23FE20
100040
180180
060700
01FC00
ENDCHAR
STARTCHAR 24B8
ENCODING 9400
SWIDTH 1000 0
DWIDTH 24 0
BBX 21 22 2 -4
BITMAP
01F800
070700
0C0180
1000C0
21FC60
63FE20
478E10
C70710
8E0318
8E0008
8E0008
8E0008
8E0008
8E0308
CE0710
470710
47DE30
23FC20
10F840
180180
060700
01FC00
ENDCHAR
STARTCHAR 24B9
ENCODING 9401
SWIDTH 1000 0
DWIDTH 24 0
BBX 21 22 2 -4
BITMAP
01F800
070700
0C0180
1000C0
27FC60
67FE20
470F10
C70710
870318
870388
870388
870388
870388
870308
C70710
470F10
47FE30
27FC20
100040
180180
060700
01FC00
ENDCHAR
STARTCHAR 24BA
ENCODING 9402
SWIDTH 1000 0
DWIDTH 24 0
BBX 21 22 2 -4
BITMAP
01F800
070700
0C0180
1000C0
23FE60
63FE20
438010
C38010
838018
838008
83FE08
83FE08
838008
838008
C38010
438010
43FE30
23FE20
100040
180180
060700
01FC00
ENDCHAR
STARTCHAR 24BB
ENCODING 9403
SWIDTH 1000 0
DWIDTH 24 0
BBX 21 22 2 -4
BITMAP
01F800
070700
0C0180
1000C0
23FE60
63FE20
438010
C38010
838018
838008
83FC08
83FC08
838008
838008
C38010
438010
438030
238020
138040
180180
060700
01FC00
ENDCHAR
STARTCHAR 24BC
ENCODING 9404
SWIDTH 1000 0
DWIDTH 24 0
BBX 21 22 2 -4
BITMAP
01F800
070700
0C0180
1000C0
21FC60
63FE20
478E10
C70710
8E0318
8E0008
8E0008
8E3F08
8E3F08
8E0308
C60710
470F10
43FF30
21FB20
100040
180180
060700
01FC00
ENDCHAR
STARTCHAR 24BD
ENCODING 9405
SWIDTH 1000 0
DWIDTH 24 0
BBX 21 22 2 -4
BITMAP
01F800
070700
0C0180
1000C0
270760
670720
470710
C70710
870718
870708
87FF08
87FF08
870708
870708
C70710
470710
470730
270720
100040
180180
060700
01FC00
ENDCHAR
STARTCHAR 24BE
ENCODING 9406
SWIDTH 1000 0
DWIDTH 24 0
BBX 21 22 2 -4
BITMAP
01F800
070700
0C0180
1000C0
207060
607020
407010
C07010
807018
807008
807008
807008
807008
807008
C07010
407010
407030
207020
100040
180180
060700
01FC00
ENDCHAR
STARTCHAR 24BF
ENCODING 9407
SWIDTH 1000 0
DWIDTH 24 0
BBX 21 22 2 -4
BITMAP
01F800
070700
0C0180
1000C0
201C60
601C20
401C10
C01C10
801C18
801C08
801C08
801C08
801C08
801C08
C71C18
471C10
439C30
23F820
31F040
180080
060300
01FC00
ENDCHAR
STARTCHAR 24C0
ENCODING 9408
SWIDTH 1000 0
DWIDTH 24 0
BBX 21 22 2 -4
BITMAP
01F800
070700
0C0180
1000C0
270760
670E20
471C10
C73810
877018
87E008
87E008
87F008
873008
873808
C71C10
470C10
470E30
270720
100040
180180
060700
01FC00
ENDCHAR
STARTCHAR 24C1
ENCODING 9409
SWIDTH 1000 0
DWIDTH 24 0
BBX 21 22 2 -4
BITMAP
01F800
070700
0C0180
1000C0
238060
638020
438010
C38010
838018
838008
838008
838008
838008
838008
C38010
438010
43FE30
23FE20
100040
180180
060700
01FC00
ENDCHAR
STARTCHAR 24C2
ENCODING 9410
SWIDTH 1000 0
DWIDTH 24 0
BBX 21 22 2 -4
BITMAP
01F800
070700
0C0180
1000C0
2E03E0
6F07A0
4F0790
CF0790
8F8F98
8F8F88
8F8F88
8E9B88
8EDB88
8EDB88
CE5390
4E7390
4E73B0
2E73A0
100040
180180
060700
01FC00
ENDCHAR
STARTCHAR 24C3
ENCODING 9411
SWIDTH 1000 0
DWIDTH 24 0
BBX 21 22 2 -4
BITMAP
01F800
070700
0C0180
1000C0
270760
670720
478710
C7C710
87C718
87E708
876708
873708
873F08
871F08
C71F10
470F10
470730
270720
100040
180180
060700
01FC00
ENDCHAR
STARTCHAR 24C4
ENCODING 9412
SWIDTH 1000 0
DWIDTH 24 0
BBX 21 22 2 -4
BITMAP
01F800
070700
0C0180
1000C0
21FC60
63FE20
470E10
C60710
8E0318
8E0308
8E0388
8E0388
8E0388
8E0308
C60710
470F10
43FE30
21FC20
100040
180180
060700
01FC00
ENDCHAR
STARTCHAR 24C5
ENCODING 9413
SWIDTH 1000 0
DWIDTH 24 0
BBX 21 22 2 -4
BITMAP
01F800
070700
0C0180
1000C0
23FC60
63FE20
439F10
C38710
838718
838708
839F08
83FE08
83FC08
838008
C38010
438010
438030
238020
138040
180180
060700
01FC00
ENDCHAR
STARTCHAR 24C6
ENCODING 9414
SWIDTH 1000 0
DWIDTH 24 0
BBX 21 22 2 -4
BITMAP
01F800
070700
0C0180
1000C0
21FC60
63FE20
478F10
C70710
8E0388
8E0388
8E0388
8E0388
8E0388
8E0B88
C61F10
478F10
43FF30
21FFA0
1001C0
180180
060700
01FC00
ENDCHAR
STARTCHAR 24C7
ENCODING 9415
SWIDTH 1000 0
DWIDTH 24 0
BBX 21 22 2 -4
BITMAP
01F800
070700
0C0180
1000C0
27FE60
67FE20
470710
C70710
870718
870708
87FE08
87FC08
871E08
870708
C70710
470710
470730
270320
100040
180180
060700
01FC00
ENDCHAR
STARTCHAR 24C8
ENCODING 9416
SWIDTH 1000 0
DWIDTH 24 0
BBX 21 22 2 -4
BITMAP
01F800
070700
0C0180
1000C0
21FC60
63FE20
438E10
C70710
830018
838008
81F008
807C08
800E08
870608
C70710
478E10
43FE30
21FC20
100040
180180
060700
01FC00
ENDCHAR
STARTCHAR 24C9
ENCODING 9417
SWIDTH 1000 0
DWIDTH 24 0
BBX 21 22 2 -4
BITMAP
01F800
070700
0C0180
1000C0
200060
67FE20
47FE10
C07010
807018
807008
807008
807008
807008
807008
C07010
407010
407030
207020
107040
180180
060700
01FC00
ENDCHAR
STARTCHAR 24CA
ENCODING 9418
SWIDTH 1000 0
DWIDTH 24 0
BBX 21 22 2 -4
BITMAP
01F800
070700
0C0180
1000C0
270760
670720
470710
C70710
870718
870708
870708
870708
870708
870708
C70710
470710
43DE30
23FE20
10F840
180180
060700
01FC00
ENDCHAR
STARTCHAR 24CB
ENCODING 9419
SWIDTH 1000 0
DWIDTH 24 0
BBX 21 22 2 -4
BITMAP
01F800
070700
0C0180
1000C0
200060
660720
470710
C30610
830618
838E08
818C08
818C08
819C08
80D808
C0D810
40F810
40F030
207020
107040
180180
060700
01FC00
ENDCHAR
STARTCHAR 24CC
ENCODING 9420
SWIDTH 1000 0
DWIDTH 24 0
BBX 21 22 2 -4
BITMAP
01F800
070700
0C0180
1000C0
200060
7870E0
5870D0
D871D0
9CF198
8CD988
8CD988
8CD988
8CDB08
878B08
C78F18
478F10
478F30
230E20
330640
180080
060300
01FC00
ENDCHAR
STARTCHAR 24CD
ENCODING 9421
SWIDTH 1000 0
DWIDTH 24 0
BBX 21 22 2 -4
BITMAP
01F800
070700
0C0180
1000C0
270760
630E20
438C10
C1DC10
80D818
80F808
807008
807008
80F808
80D808
C1DC10
438E10
430630
270720
100040
180180
060700
01FC00
ENDCHAR
STARTCHAR 24CE
ENCODING 9422
SWIDTH 1000 0
DWIDTH 24 0
BBX 21 22 2 -4
BITMAP
01F800
070700
0C0180
1000C0
200060
660720
470610
C30E10
838C18
819C08
80D808
80F808
807008
807008
C07010
407010
407030
207020
107040
180180
060700
01FC00
ENDCHAR
STARTCHAR 24CF
ENCODING 9423
SWIDTH 1000 0
DWIDTH 24 0
BBX 21 22 2 -4
BITMAP
01F800
070700
0C0180
1000C0
27FE60
67FE20
401C10
C01C10
803818
807008
806008
80E008
81C008
818008
C38010
430010
47FE30
27FE20
100040
180180
060700
01FC00
ENDCHAR
STARTCHAR 24D0
ENCODING 9424
SWIDTH 1000 0
DWIDTH 24 0
BBX 21 22 2 -4
BITMAP
01F800
070700
0C0180
1000C0
200060
60FC20
41FC10
C18E10
838E18
801E08
80FE08
81EE08
838E08
838E08
C3FF10
43FF10
41F230
200020
100040
180180
060700
01FC00
ENDCHAR
STARTCHAR 24D1
ENCODING 9425
SWIDTH 1000 0
DWIDTH 24 0
BBX 21 22 2 -4
BITMAP
01F800
070700
0C0180
1380C0
238060
638020
438010
C3B810
83FE18
83FE08
838708
838708
838708
838708
C38710
438710
43FE30
23FE20
103840
180180
060700
01FC00
ENDCHAR
STARTCHAR 24D2
ENCODING 9426
SWIDTH 1000 0
DWIDTH 24 0
BBX 21 22 2 -4
BITMAP
01F800
070700
0C0180
1000C0
200060
60F820
41FC10
C3DC10
838E18
870008
870008
870008
830008
838E08
C3DE10
41FC10
40F830
200020
100040
180180
060700
01FC00
ENDCHAR
STARTCHAR 24D3
ENCODING 9427
SWIDTH 1000 0
DWIDTH 24 0
BBX 21 22 2 -4
BITMAP
01F800
070700
0C0180
1000C0
200E60
600E20
400E10
C1EE10
83FE18
83FE08
871E08
870E08
870E08
870E08
C70E10
470E10
439E30
23FE20
11FE40
180180
060700
01FC00
ENDCHAR
STARTCHAR 24D4
ENCODING 9428
SWIDTH 1000 0
DWIDTH 24 0
BBX 21 22 2 -4
BITMAP
01F800
070700
0C0180
1000C0
200060
60F020
41F810
C3DC10
830E18
870608
87FE08
87FE08
830008
830608
C3FC10
41FC10
40F830
200020
100040
180180
060700
01FC00
ENDCHAR
STARTCHAR 24D5
ENCODING 9429
SWIDTH 1000 0
DWIDTH 24 0
BBX 21 22 2 -4
BITMAP
01F800
070700
0C0180
1000C0
207060
60F020
40E010
C0E010
81F018
81F008
80E008
80E008
80E008
80E008
C0E010
40E010
40E030
20E020
10E040
180180
060700
01FC00
ENDCHAR
STARTCHAR 24D6
ENCODING 9430
SWIDTH 1000 0
DWIDTH 24 0
BBX 21 22 2 -4
BITMAP
01F800
070700
0C0180
1000C0
21FE60
63FE20
438E10
C30E10
870E18
870E08
870E08
830E08
83FE08
81FE08
C0FE18
430E10
43FE30
21FC20
30F840
180080
060300
01FC00
ENDCHAR
STARTCHAR 24D7
ENCODING 9431
SWIDTH 1000 0
DWIDTH 24 0
BBX 21 22 2 -4
BITMAP
01F800
070700
0C0180
1380C0
238060
638020
438010
C3B810
83FC18
83FE08
838E08
838E08
838E08
838E08
C38E10
438E10
438E30
238E20
100040
180180
060700
01FC00
ENDCHAR
STARTCHAR 24D8
ENCODING 9432
SWIDTH 1000 0
DWIDTH 24 0
BBX 21 22 2 -4
BITMAP
01F800
070700
0C0180
1000C0
207060
607020
400010
C00010
807018
807008
807008
807008
807008
807008
C07010
407010
407030
207020
107040
180180
060700
01FC00
ENDCHAR
STARTCHAR 24D9
ENCODING 9433
SWIDTH 1000 0
DWIDTH 24 0
BBX 21 22 2 -5
BITMAP
01F800
070700
0C7180
1070C0
200060
600020
407010
C07010
807018
807008
807008
807008
807008
807008
C07010
407010
407030
207020
10F040
18E180
060700
01FC00
ENDCHAR
STARTCHAR 24DA
ENCODING 9434
SWIDTH 1000 0
DWIDTH 24 0
BBX 21 22 2 -4
BITMAP
01F800
070700
0C0180
1380C0
238060
638020
438010
C38E10
839C18
83B808
83F008
83F008
83F008
83F808
C39C10
438C10
438E30
238620
100040
180180
060700
01FC00
ENDCHAR
STARTCHAR 24DB
ENCODING 9435
SWIDTH 1000 0
DWIDTH 24 0
BBX 21 22 2 -4
BITMAP
01F800
070700
0C0180
1000C0
207060
607020
407010
C07010
807018
807008
807008
807008
807008
807008
C07010
407010
407030
207020
107040
180180
060700
01FC00
ENDCHAR
STARTCHAR 24DC
ENCODING 9436
SWIDTH 1000 0
DWIDTH 24 0
BBX 21 22 2 -4
BITMAP
01F800
070700
0C0180
1000C0
200060
7DCF20
5FFF90
DFFFD0
9C71D8
9C71C8
9C71C8
9C71C8
9C71C8
9C71C8
DC71D0
5C71D0
400030
200020
100040
180180
060700
01FC00
ENDCHAR
STARTCHAR 24DD
ENCODING 9437
SWIDTH 1000 0
DWIDTH 24 0
BBX 21 22 2 -4
BITMAP
01F800
070700
0C0180
1000C0
200060
63F820
43FC10
C3FE10
838E18
838E08
838E08
838E08
838E08
838E08
C38E10
438E10
400030
200020
100040
180180
060700
01FC00
ENDCHAR
STARTCHAR 24DE
ENCODING 9438
SWIDTH 1000 0
DWIDTH 24 0
BBX 21 22 2 -4
BITMAP
01F800
070700
0C0180
1000C0
200060
60F820
41FC10
C3DE10
838E18
830608
870708
870708
830608
838E08
C3DE10
41FC10
40F830
200020
100040
180180
060700
01FC00
ENDCHAR
STARTCHAR 24DF
ENCODING 9439
SWIDTH 1000 0
DWIDTH 24 0
BBX 21 22 2 -4
BITMAP
01F800
070700
0C0180
1000C0
23F860
63FE20
43FE10
C38710
838718
838708
838708
838708
838708
83FE08
C3FE10
43F810
438030
238020
138040
180180
060700
01FC00
ENDCHAR
STARTCHAR 24E0
ENCODING 9440
SWIDTH 1000 0
DWIDTH 24 0
BBX 21 22 2 -4
BITMAP
01F800
070700
0C0180
1000C0
21EE60
63FE20
43FE10
C70E10
870E18
870E08
870E08
870E08
871E08
83FE08
C3FE10
41EE10
400E30
200E20
100E40
180180
060700
01FC00
ENDCHAR
STARTCHAR 24E1
ENCODING 9441
SWIDTH 1000 0
DWIDTH 24 0
BBX 21 22 2 -4
BITMAP
01F800
070700
0C0180
1000C0
200060
600020
40F810
C0F810
80F018
80E008
80E008
80E008
80E008
80E008
C0E018
40E010
40E030
200020
300040
180080
060300
01FC00
ENDCHAR
STARTCHAR 24E2
ENCODING 9442
SWIDTH 1000 0
DWIDTH 24 0
BBX 21 22 2 -4
BITMAP
01F800
070700
0C0180
1000C0
200060
60F820
41FC10
C3DC10
838E18
81C008
81F808
807C08
800E08
838E08
C3DE18
41FC10
40F830
200020
300040
180080
060300
01FC00
ENDCHAR
STARTCHAR 24E3
ENCODING 9443
SWIDTH 1000 0
DWIDTH 24 0
BBX 21 22 2 -4
BITMAP
01F800
070700
0C0180
1000C0
20E060
60E020
40E010
C1F810
81F808
80E008
80E008
80E008
80E008
80E008
C0E018
40E010
60F830
207820
303840
1C0180
070700
01FC00
ENDCHAR
STARTCHAR 24E4
ENCODING 9444
SWIDTH 1000 0
DWIDTH 24 0
BBX 21 22 2 -4
BITMAP
01F800
070700
0C0180
1000C0
200060
600020
438E10
C38E10
838E18
838E08
838E08
838E08
838E08
838E08
C39E18
43FE10
41FE30
200020
300040
180080
060300
01FC00
ENDCHAR
STARTCHAR 24E5
ENCODING 9445
SWIDTH 1000 0
DWIDTH 24 0
BBX 21 22 2 -5
BITMAP
01F800
070700
0C0180
1000C0
200060
600020
430610
C38E10
818C18
818C08
819C08
81D808
80D808
80D808
C0F010
407010
407030
200020
100040
180180
060700
01FC00
ENDCHAR
STARTCHAR 24E6
ENCODING 9446
SWIDTH 1000 0
DWIDTH 24 0
BBX 21 22 2 -4
BITMAP
01F800
070700
0C0180
1000C0
200060
600020
5C71D0
DC7190
8C7198
8CF388
8EDB88
86DB08
86DB08
879F08
C78E18
438E10
438E30
200020
300040
180080
060300
01FC00
ENDCHAR
STARTCHAR 24E7
ENCODING 9447
SWIDTH 1000 0
DWIDTH 24 0
BBX 21 22 2 -4
BITMAP
01F800
070700
0C0180
1000C0
200060
600020
438E10
C19C10
81D818
80F808
807008
807008
80F008
80D808
C1DC10
418C10
430E30
200020
100040
180180
060700
01FC00
ENDCHAR
STARTCHAR 24E8
ENCODING 9448
SWIDTH 1000 0
DWIDTH 24 0
BBX 21 22 2 -4
BITMAP
01F800
070700
0C0180
1000C0
200060
638E20
418C10
C18C10
81DC18
80DC08
80D808
80F808
807808
807008
C07010
407010
406030
21E020
11C040
180180
060700
01FC00
ENDCHAR
STARTCHAR 24E9
ENCODING 9449
SWIDTH 1000 0
DWIDTH 24 0
BBX 21 22 2 -4
BITMAP
01F800
070700
0C0180
1000C0
200060
63FC20
43FC10
C01C10
803818
807008
806008
80E008
81C008
818008
C3FC10
43FC10
400030
200020
100040
180180
060700
01FC00
ENDCHAR
STARTCHAR 2500
ENCODING 9472
SWIDTH 1000 0
DWIDTH 24 0
BBX 24 1 0 7
BITMAP
FFFFFF
ENDCHAR
STARTCHAR 2501
ENCODING 9473
SWIDTH 1000 0
DWIDTH 24 0
BBX 24 1 0 6
BITMAP
FFFFFF
ENDCHAR
STARTCHAR 2502
ENCODING 9474
SWIDTH 1000 0
DWIDTH 24 0
BBX 1 24 11 -5
BITMAP
80
80
80
80
80
80
80
80
80
80
80
80
80
80
80
80
80
80
80
80
80
80
80
80
ENDCHAR
STARTCHAR 2503
ENCODING 9475
SWIDTH 1000 0
DWIDTH 24 0
BBX 1 24 11 -5
BITMAP
80
80
80
80
80
80
80
80
80
80
80
80
80
80
80
80
80
80
80
80
80
80
80
80
ENDCHAR
STARTCHAR 250C
ENCODING 9484
SWIDTH 1000 0
DWIDTH 24 0
BBX 13 13 11 -5
BITMAP
FFF8
8000
8000
8000
8000
8000
8000
8000
8000
8000
8000
8000
8000
ENDCHAR
STARTCHAR 250D
ENCODING 9485
SWIDTH 1000 0
DWIDTH 24 0
BBX 13 13 11 -5
BITMAP
FFF8
FFF8
8000
8000
8000
8000
8000
8000
8000
8000
8000
8000
8000
ENDCHAR
STARTCHAR 250E
ENCODING 9486
SWIDTH 1000 0
DWIDTH 24 0
BBX 13 13 11 -5
BITMAP
FFF8
C000
C000
C000
C000
C000
C000
C000
C000
C000
C000
C000
C000
ENDCHAR
STARTCHAR 250F
ENCODING 9487
SWIDTH 1000 0
DWIDTH 24 0
BBX 13 12 11 -5
BITMAP
FFF8
8000
8000
8000
8000
8000
8000
8000
8000
8000
8000
8000
ENDCHAR
STARTCHAR 2510
ENCODING 9488
SWIDTH 1000 0
DWIDTH 24 0
BBX 13 13 0 -5
BITMAP
FFF8
0008
0008
0008
0008
0008
0008
0008
0008
0008
0008
0008
0008
ENDCHAR
STARTCHAR 2511
ENCODING 9489
SWIDTH 1000 0
DWIDTH 24 0
BBX 13 13 0 -5
BITMAP
FFF8
FFF8
0008
0008
0008
0008
0008
0008
0008
0008
0008
0008
0008
ENDCHAR
STARTCHAR 2512
ENCODING 9490
SWIDTH 1000 0
DWIDTH 24 0
BBX 13 13 0 -5
BITMAP
FFF8
0018
0018
0018
0018
0018
0018
0018
0018
0018
0018
0018
0018
ENDCHAR
STARTCHAR 2513
ENCODING 9491
SWIDTH 1000 0
DWIDTH 24 0
BBX 12 12 0 -5
BITMAP
FFF0
0010
0010
0010
0010
0010
0010
0010
0010
0010
0010
0010
ENDCHAR
STARTCHAR 2514
ENCODING 9492
SWIDTH 1000 0
DWIDTH 24 0
BBX 13 12 11 8
BITMAP
8000
8000
8000
8000
8000
8000
8000
8000
8000
8000
8000
FFF8
ENDCHAR
STARTCHAR 2515
ENCODING 9493
SWIDTH 1000 0
DWIDTH 24 0
BBX 13 13 11 7
BITMAP
8000
8000
8000
8000
8000
8000
8000
8000
8000
8000
8000
FFF8
FFF8
ENDCHAR
STARTCHAR 2516
ENCODING 9494
SWIDTH 1000 0
DWIDTH 24 0
BBX 13 12 11 8
BITMAP
C000
C000
C000
C000
C000
C000
C000
C000
C000
C000
C000
FFF8
ENDCHAR
STARTCHAR 2517
ENCODING 9495
SWIDTH 1000 0
DWIDTH 24 0
BBX 13 12 11 7
BITMAP
8000
8000
8000
8000
8000
8000
8000
8000
8000
8000
8000
FFF8
ENDCHAR
STARTCHAR 2518
ENCODING 9496
SWIDTH 1000 0
DWIDTH 24 0
BBX 13 12 0 8
BITMAP
0008
0008
0008
0008
0008
0008
0008
0008
0008
0008
0008
FFF8
ENDCHAR
STARTCHAR 2519
ENCODING 9497
SWIDTH 1000 0
DWIDTH 24 0
BBX 13 13 0 7
BITMAP
0008
0008
0008
0008
0008
0008
0008
0008
0008
0008
0008
FFF8
FFF8
ENDCHAR
STARTCHAR 251A
ENCODING 9498
SWIDTH 1000 0
DWIDTH 24 0
BBX 13 12 0 8
BITMAP
0018
0018
0018
0018
0018
0018
0018
0018
0018
0018
0018
FFF8
ENDCHAR
STARTCHAR 251B
ENCODING 9499
SWIDTH 1000 0
DWIDTH 24 0
BBX 12 12 0 7
BITMAP
0010
0010
0010
0010
0010
0010
0010
0010
0010
0010
0010
FFF0
ENDCHAR
STARTCHAR 251C
ENCODING 9500
SWIDTH 1000 0
DWIDTH 24 0
BBX 13 24 11 -5
BITMAP
8000
8000
8000
8000
8000
8000
8000
8000
8000
8000
8000
FFF8
8000
8000
8000
8000
8000
8000
8000
8000
8000
8000
8000
8000
ENDCHAR
STARTCHAR 251D
ENCODING 9501
SWIDTH 1000 0
DWIDTH 24 0
BBX 13 24 11 -5
BITMAP
8000
8000
8000
8000
8000
8000
8000
8000
8000
8000
8000
FFF8
FFF8
8000
8000
8000
8000
8000
8000
8000
8000
8000
8000
8000
ENDCHAR
STARTCHAR 251E
ENCODING 9502
SWIDTH 1000 0
DWIDTH 24 0
BBX 13 24 11 -4
BITMAP
C000
C000
C000
C000
C000
C000
C000
C000
C000
C000
C000
FFF8
8000
8000
8000
8000
8000
8000
8000
8000
8000
8000
8000
8000
ENDCHAR
STARTCHAR 251F
ENCODING 9503
SWIDTH 1000 0
DWIDTH 24 0
BBX 13 24 11 -5
BITMAP
8000
8000
8000
8000
8000
8000
8000
8000
8000
8000
8000
FFF8
C000
C000
C000
C000
C000
C000
C000
C000
C000
C000
C000
C000
ENDCHAR
STARTCHAR 2520
ENCODING 9504
SWIDTH 1000 0
DWIDTH 24 0
BBX 13 24 11 -5
BITMAP
C000
C000
C000
C000
C000
C000
C000
C000
C000
C000
C000
FFF8
C000
C000
C000
C000
C000
C000
C000
C000
C000
C000
C000
C000
ENDCHAR
STARTCHAR 2521
ENCODING 9505
SWIDTH 1000 0
DWIDTH 24 0
BBX 13 24 11 -4
BITMAP
C000
C000
C000
C000
C000
C000
C000
C000
C000
C000
C000
FFF8
FFF8
8000
8000
8000
8000
8000
8000
8000
8000
8000
8000
8000
ENDCHAR
STARTCHAR 2522
ENCODING 9506
SWIDTH 1000 0
DWIDTH 24 0
BBX 13 24 11 -5
BITMAP
8000
8000
8000
8000
8000
8000
8000
8000
8000
8000
8000
FFF8
FFF8
C000
C000
C000
C000
C000
C000
C000
C000
C000
C000
C000
ENDCHAR
STARTCHAR 2523
ENCODING 9507
SWIDTH 1000 0
DWIDTH 24 0
BBX 13 24 11 -5
BITMAP
8000
8000
8000
8000
8000
8000
8000
8000
8000
8000
8000
FFF8
8000
8000
8000
8000
8000
8000
8000
8000
8000
8000
8000
8000
ENDCHAR
STARTCHAR 2524
ENCODING 9508
SWIDTH 1000 0
DWIDTH 24 0
BBX 13 24 0 -5
BITMAP
0008
0008
0008
0008
0008
0008
0008
0008
0008
0008
0008
FFF8
0008
0008
0008
0008
0008
0008
0008
0008
0008
0008
0008
0008
ENDCHAR
STARTCHAR 2525
ENCODING 9509
SWIDTH 1000 0
DWIDTH 24 0
BBX 13 24 0 -5
BITMAP
0008
0008
0008
0008
0008
0008
0008
0008
0008
0008
0008
FFF8
FFF8
0008
0008
0008
0008
0008
0008
0008
0008
0008
0008
0008
ENDCHAR
STARTCHAR 2526
ENCODING 9510
SWIDTH 1000 0
DWIDTH 24 0
BBX 13 24 0 -5
BITMAP
0018
0018
0018
0018
0018
0018
0018
0018
0018
0018
0018
FFF8
0010
0010
0010
0010
0010
0010
0010
0010
0010
0010
0010
0010
ENDCHAR
STARTCHAR 2527
ENCODING 9511
SWIDTH 1000 0
DWIDTH 24 0
BBX 13 24 0 -4
BITMAP
0010
0010
0010
0010
0010
0010
0010
0010
0010
0010
0010
FFF0
0018
0018
0018
0018
0018
0018
0018
0018
0018
0018
0018
0018
ENDCHAR
STARTCHAR 2528
ENCODING 9512
SWIDTH 1000 0
DWIDTH 24 0
BBX 13 24 0 -5
BITMAP
0018
0018
0018
0018
0018
0018
0018
0018
0018
0018
0018
FFF8
0018
0018
0018
0018
0018
0018
0018
0018
0018
0018
0018
0018
ENDCHAR
STARTCHAR 2529
ENCODING 9513
SWIDTH 1000 0
DWIDTH 24 0
BBX 13 24 0 -5
BITMAP
0018
0018
0018
0018
0018
0018
0018
0018
0018
0018
0018
FFF8
FFF0
0010
0010
0010
0010
0010
0010
0010
0010
0010
0010
0010
ENDCHAR
STARTCHAR 252A
ENCODING 9514
SWIDTH 1000 0
DWIDTH 24 0
BBX 13 24 0 -4
BITMAP
0010
0010
0010
0010
0010
0010
0010
0010
0010
0010
0010
FFF0
FFF8
0018
0018
0018
0018
0018
0018
0018
0018
0018
0018
0018
ENDCHAR
STARTCHAR 252B
ENCODING 9515
SWIDTH 1000 0
DWIDTH 24 0
BBX 12 24 0 -5
BITMAP
0010
0010
0010
0010
0010
0010
0010
0010
0010
0010
0010
FFF0
0010
0010
0010
0010
0010
0010
0010
0010
0010
0010
0010
0010
ENDCHAR
STARTCHAR 252C
ENCODING 9516
SWIDTH 1000 0
DWIDTH 24 0
BBX 24 13 0 -5
BITMAP
FFFFFF
000800
000800
000800
000800
000800
000800
000800
000800
000800
000800
000800
000800
ENDCHAR
STARTCHAR 252D
ENCODING 9517
SWIDTH 1000 0
DWIDTH 24 0
BBX 24 13 0 -5
BITMAP
FFFFFF
FFF800
000800
000800
000800
000800
000800
000800
000800
000800
000800
000800
000800
ENDCHAR
STARTCHAR 252E
ENCODING 9518
SWIDTH 1000 0
DWIDTH 24 0
BBX 24 13 0 -5
BITMAP
FFFFFF
000FFF
000800
000800
000800
000800
000800
000800
000800
000800
000800
000800
000800
ENDCHAR
STARTCHAR 252F
ENCODING 9519
SWIDTH 1000 0
DWIDTH 24 0
BBX 24 13 0 -5
BITMAP
FFFFFF
FFFFFF
000800
000800
000800
000800
000800
000800
000800
000800
000800
000800
000800
ENDCHAR
STARTCHAR 2530
ENCODING 9520
SWIDTH 1000 0
DWIDTH 24 0
BBX 24 13 0 -5
BITMAP
FFFFFF
001800
001800
001800
001800
001800
001800
001800
001800
001800
001800
001800
001800
ENDCHAR
STARTCHAR 2531
ENCODING 9521
SWIDTH 1000 0
DWIDTH 24 0
BBX 24 13 0 -5
BITMAP
FFFFFF
FFF800
001800
001800
001800
001800
001800
001800
001800
001800
001800
001800
001800
ENDCHAR
STARTCHAR 2532
ENCODING 9522
SWIDTH 1000 0
DWIDTH 24 0
BBX 24 13 0 -5
BITMAP
FFFFFF
001FFF
001800
001800
001800
001800
001800
001800
001800
001800
001800
001800
001800
ENDCHAR
STARTCHAR 2533
ENCODING 9523
SWIDTH 1000 0
DWIDTH 24 0
BBX 24 12 0 -5
BITMAP
FFFFFF
001000
001000
001000
001000
001000
001000
001000
001000
001000
001000
001000
ENDCHAR
STARTCHAR 2534
ENCODING 9524
SWIDTH 1000 0
DWIDTH 24 0
BBX 24 12 0 8
BITMAP
000800
000800
000800
000800
000800
000800
000800
000800
000800
000800
000800
FFFFFF
ENDCHAR
STARTCHAR 2535
ENCODING 9525
SWIDTH 1000 0
DWIDTH 24 0
BBX 24 13 0 7
BITMAP
000800
000800
000800
000800
000800
000800
000800
000800
000800
000800
000800
FFFFFF
FFF000
ENDCHAR
STARTCHAR 2536
ENCODING 9526
SWIDTH 1000 0
DWIDTH 24 0
BBX 24 13 0 7
BITMAP
000800
000800
000800
000800
000800
000800
000800
000800
000800
000800
000800
FFFFFF
000FFF
ENDCHAR
STARTCHAR 2537
ENCODING 9527
SWIDTH 1000 0
DWIDTH 24 0
BBX 24 13 0 7
BITMAP
000800
000800
000800
000800
000800
000800
000800
000800
000800
000800
000800
FFFFFF
FFFFFF
ENDCHAR
STARTCHAR 2538
ENCODING 9528
SWIDTH 1000 0
DWIDTH 24 0
BBX 24 12 0 8
BITMAP
001800
001800
001800
001800
001800
001800
001800
001800
001800
001800
001800
FFFFFF
ENDCHAR
STARTCHAR 2539
ENCODING 9529
SWIDTH 1000 0
DWIDTH 24 0
BBX 24 13 0 7
BITMAP
001800
001800
001800
001800
001800
001800
001800
001800
001800
001800
001800
FFFFFF
FFF000
ENDCHAR
STARTCHAR 253A
ENCODING 9530
SWIDTH 1000 0
DWIDTH 24 0
BBX 24 13 0 7
BITMAP
001800
001800
001800
001800
001800
001800
001800
001800
001800
001800
001800
FFFFFF
000FFF
ENDCHAR
STARTCHAR 253B
ENCODING 9531
SWIDTH 1000 0
DWIDTH 24 0
BBX 24 12 0 7
BITMAP
001000
001000
001000
001000
001000
001000
001000
001000
001000
001000
001000
FFFFFF
ENDCHAR
STARTCHAR 253C
ENCODING 9532
SWIDTH 1000 0
DWIDTH 24 0
BBX 24 24 0 -5
BITMAP
000800
000800
000800
000800
000800
000800
000800
000800
000800
000800
000800
FFFFFF
000800
000800
000800
000800
000800
000800
000800
000800
000800
000800
000800
000800
ENDCHAR
STARTCHAR 253D
ENCODING 9533
SWIDTH 1000 0
DWIDTH 24 0
BBX 24 24 0 -5
BITMAP
000800
000800
000800
000800
000800
000800
000800
000800
000800
000800
000800
FFF800
FFFFFF
000800
000800
000800
000800
000800
000800
000800
000800
000800
000800
000800
ENDCHAR
STARTCHAR 253E
ENCODING 9534
SWIDTH 1000 0
DWIDTH 24 0
BBX 24 24 0 -5
BITMAP
000800
000800
000800
000800
000800
000800
000800
000800
000800
000800
000800
FFFFFF
000FFF
000800
000800
000800
000800
000800
000800
000800
000800
000800
000800
000800
ENDCHAR
STARTCHAR 253F
ENCODING 9535
SWIDTH 1000 0
DWIDTH 24 0
BBX 24 24 0 -5
BITMAP
000800
000800
000800
000800
000800
000800
000800
000800
000800
000800
000800
FFFFFF
FFFFFF
000800
000800
000800
000800
000800
000800
000800
000800
000800
000800
000800
ENDCHAR
STARTCHAR 2540
ENCODING 9536
SWIDTH 1000 0
DWIDTH 24 0
BBX 24 24 0 -4
BITMAP
001800
001800
001800
001800
001800
001800
001800
001800
001800
001800
001800
FFFFFF
001000
001000
001000
001000
001000
001000
001000
001000
001000
001000
001000
001000
ENDCHAR
STARTCHAR 2541
ENCODING 9537
SWIDTH 1000 0
DWIDTH 24 0
BBX 24 24 0 -4
BITMAP
001000
001000
001000
001000
001000
001000
001000
001000
001000
001000
001000
FFFFFF
001800
001800
001800
001800
001800
001800
001800
001800
001800
001800
001800
001800
ENDCHAR
STARTCHAR 2542
ENCODING 9538
SWIDTH 1000 0
DWIDTH 24 0
BBX 24 24 0 -5
BITMAP
001800
001800
001800
001800
001800
001800
001800
001800
001800
001800
001800
FFFFFF
001800
001800
001800
001800
001800
001800
001800
001800
001800
001800
001800
001800
ENDCHAR
STARTCHAR 2543
ENCODING 9539
SWIDTH 1000 0
DWIDTH 24 0
BBX 24 24 0 -4
BITMAP
001800
001800
001800
001800
001800
001800
001800
001800
001800
001800
001800
FFFFFF
FFF000
001000
001000
001000
001000
001000
001000
001000
001000
001000
001000
001000
ENDCHAR
STARTCHAR 2544
ENCODING 9540
SWIDTH 1000 0
DWIDTH 24 0
BBX 24 24 0 -4
BITMAP
001800
001800
001800
001800
001800
001800
001800
001800
001800
001800
001800
FFFFFF
001FFF
001000
001000
001000
001000
001000
001000
001000
001000
001000
001000
001000
ENDCHAR
STARTCHAR 2545
ENCODING 9541
SWIDTH 1000 0
DWIDTH 24 0
BBX 24 24 0 -4
BITMAP
001000
001000
001000
001000
001000
001000
001000
001000
001000
001000
001000
FFFFFF
FFF800
001800
001800
001800
001800
001800
001800
001800
001800
001800
001800
001800
ENDCHAR
STARTCHAR 2546
ENCODING 9542
SWIDTH 1000 0
DWIDTH 24 0
BBX 24 24 0 -4
BITMAP
001000
001000
001000
001000
001000
001000
001000
001000
001000
001000
001000
FFFFFF
001FFF
001800
001800
001800
001800
001800
001800
001800
001800
001800
001800
001800
ENDCHAR
STARTCHAR 2547
ENCODING 9543
SWIDTH 1000 0
DWIDTH 24 0
BBX 24 24 0 -4
BITMAP
001800
001800
001800
001800
001800
001800
001800
001800
001800
001800
001800
FFFFFF
FFFFFF
001000
001000
001000
001000
001000
001000
001000
001000
001000
001000
001000
ENDCHAR
STARTCHAR 2548
ENCODING 9544
SWIDTH 1000 0
DWIDTH 24 0
BBX 24 24 0 -4
BITMAP
001000
001000
001000
001000
001000
001000
001000
001000
001000
001000
001000
FFFFFF
FFFFFF
001800
001800
001800
001800
001800
001800
001800
001800
001800
001800
001800
ENDCHAR
STARTCHAR 2549
ENCODING 9545
SWIDTH 1000 0
DWIDTH 24 0
BBX 24 24 0 -5
BITMAP
001800
001800
001800
001800
001800
001800
001800
001800
001800
001800
001800
FFFFFF
FFF800
001800
001800
001800
001800
001800
001800
001800
001800
001800
001800
001800
ENDCHAR
STARTCHAR 254A
ENCODING 9546
SWIDTH 1000 0
DWIDTH 24 0
BBX 24 24 0 -5
BITMAP
001800
001800
001800
001800
001800
001800
001800
001800
001800
001800
001800
FFFFFF
001FFF
001800
001800
001800
001800
001800
001800
001800
001800
001800
001800
001800
ENDCHAR
STARTCHAR 254B
ENCODING 9547
SWIDTH 1000 0
DWIDTH 24 0
BBX 24 24 0 -5
BITMAP
001000
001000
001000
001000
001000
001000
001000
001000
001000
001000
001000
FFFFFF
001000
001000
001000
001000
001000
001000
001000
001000
001000
001000
001000
001000
ENDCHAR
STARTCHAR 2592
ENCODING 9618
SWIDTH 1000 0
DWIDTH 24 0
BBX 18 18 3 -2
BITMAP
FFFFC0
800040
AA9540
800040
AA9540
800040
AA9540
800040
AA9540
800040
800040
AA9540
800040
AA9540
800040
AA9540
800040
FFFFC0
ENDCHAR
STARTCHAR 25A0
ENCODING 9632
SWIDTH 1000 0
DWIDTH 24 0
BBX 17 17 4 -1
BITMAP
FFFF80
FFFF80
FFFF80
FFFF80
FFFF80
FFFF80
FFFF80
FFFF80
FFFF80
FFFF80
FFFF80
FFFF80
FFFF80
FFFF80
FFFF80
FFFF80
FFFF80
ENDCHAR
STARTCHAR 25A1
ENCODING 9633
SWIDTH 1000 0
DWIDTH 24 0
BBX 17 17 4 -1
BITMAP
FFFF80
FFFF80
C00180
C00180
C00180
C00180
C00180
C00180
C00180
C00180
C00180
C00180
C00180
C00180
C00180
FFFF80
FFFF80
ENDCHAR
STARTCHAR 25A3
ENCODING 9635
SWIDTH 1000 0
DWIDTH 24 0
BBX 18 18 3 -2
BITMAP
FFFFC0
FFFFC0
C000C0
CFFEC0
CFFEC0
CFFEC0
CFFEC0
CFFEC0
CFFEC0
CFFEC0
CFFEC0
CFFEC0
CFFEC0
CFFEC0
C000C0
C000C0
FFFFC0
FFFFC0
ENDCHAR
STARTCHAR 25A4
ENCODING 9636
SWIDTH 1000 0
DWIDTH 24 0
BBX 18 18 3 -2
BITMAP
FFFFC0
800040
FFFFC0
800040
800040
FFFFC0
800040
FFFFC0
800040
800040
FFFFC0
800040
FFFFC0
800040
FFFFC0
800040
800040
FFFFC0
ENDCHAR
STARTCHAR 25A5
ENCODING 9637
SWIDTH 1000 0
DWIDTH 24 0
BBX 18 18 3 -2
BITMAP
FFFFC0
A52940
A52940
A52940
A52940
A52940
A52940
A52940
A52940
A52940
A52940
A52940
A52940
A52940
A52940
A52940
A52940
FFFFC0
ENDCHAR
STARTCHAR 25A6
ENCODING 9638
SWIDTH 1000 0
DWIDTH 24 0
BBX 18 18 3 -2
BITMAP
FFFFC0
A52940
FFFFC0
A52940
A52940
FFFFC0
A52940
FFFFC0
A52940
A52940
FFFFC0
A52940
FFFFC0
A52940
FFFFC0
A52940
A52940
FFFFC0
ENDCHAR
STARTCHAR 25A7
ENCODING 9639
SWIDTH 1000 0
DWIDTH 24 0
BBX 18 18 3 -2
BITMAP
FFFFC0
C44440
A22240
911140
8888C0
C44440
A22240
911140
8888C0
C44440
A22240
911140
8888C0
C44440
A22240
911140
8888C0
FFFFC0
ENDCHAR
STARTCHAR 25A8
ENCODING 9640
SWIDTH 1000 0
DWIDTH 24 0
BBX 18 18 3 -2
BITMAP
FFFFC0
8888C0
911140
A22240
C44440
8888C0
911140
A22240
C44440
8888C0
911140
A22240
C44440
8888C0
911140
A22240
C44440
FFFFC0
ENDCHAR
STARTCHAR 25A9
ENCODING 9641
SWIDTH 1000 0
DWIDTH 24 0
BBX 18 18 3 -2
BITMAP
FFFFC0
CCCCC0
B33340
B33340
CCCCC0
CCCCC0
B33340
B33340
CCCCC0
DCCCC0
B33340
F33340
CCCCC0
CCCCC0
B33340
B33340
CCCCC0
FFFFC0
ENDCHAR
STARTCHAR 25B1
ENCODING 9649
SWIDTH 1000 0
DWIDTH 24 0
BBX 16 11 4 2
BITMAP
1FFF
3FFF
3003
3002
2006
6006
6006
4004
400C
FFFC
FFF8
ENDCHAR
STARTCHAR 25B2
ENCODING 9650
SWIDTH 1000 0
DWIDTH 24 0
BBX 18 14 3 1
BITMAP
00C000
01E000
01E000
03F000
03F000
07F800
0FFC00
0FFC00
1FFE00
3FFF00
3FFF00
7FFF80
7FFF80
FFFFC0
ENDCHAR
STARTCHAR 25B3
ENCODING 9651
SWIDTH 1000 0
DWIDTH 24 0
BBX 18 14 3 1
BITMAP
00C000
01E000
01E000
033000
021000
061800
0C0C00
0C0C00
180600
300300
300300
600180
400080
FFFFC0
ENDCHAR
STARTCHAR 25B5
ENCODING 9653
SWIDTH 1000 0
DWIDTH 24 0
BBX 18 14 3 1
BITMAP
00C000
01C000
01E000
033000
033000
061800
0C0C00
0C0C00
180600
300200
300300
600180
7FFF80
FFFFC0
ENDCHAR
STARTCHAR 25B6
ENCODING 9654
SWIDTH 1000 0
DWIDTH 24 0
BBX 15 19 4 -3
BITMAP
8000
C000
F000
FC00
FE00
FF80
FFC0
FFF0
FFF8
FFFE
FFFC
FFF8
FFE0
FFC0
FF00
FC00
F800
E000
C000
ENDCHAR
STARTCHAR 25B7
ENCODING 9655
SWIDTH 1000 0
DWIDTH 24 0
BBX 15 19 4 -3
BITMAP
8000
C000
F000
F800
CE00
C380
C1C0
C070
C038
C00E
C01C
C038
C0E0
C3C0
C700
DC00
F800
E000
C000
ENDCHAR
STARTCHAR 25B9
ENCODING 9657
SWIDTH 1000 0
DWIDTH 24 0
BBX 15 19 4 -3
BITMAP
8000
C000
F000
F800
CE00
C700
C1C0
C0F0
C038
C00E
C01C
C078
C0E0
C380
C700
DC00
F800
E000
8000
ENDCHAR
STARTCHAR 25BC
ENCODING 9660
SWIDTH 1000 0
DWIDTH 24 0
BBX 18 14 3 0
BITMAP
FFFFC0
7FFF80
7FFF80
3FFF00
1FFE00
1FFE00
0FFC00
0FFC00
07F800
03F000
03F000
01E000
00C000
00C000
ENDCHAR
STARTCHAR 25BD
ENCODING 9661
SWIDTH 1000 0
DWIDTH 24 0
BBX 18 15 3 -1
BITMAP
FFFFC0
FFFFC0
600180
600180
300300
180600
180600
0C0C00
040800
061800
033000
033000
01E000
00C000
00C000
ENDCHAR
STARTCHAR 25BF
ENCODING 9663
SWIDTH 1000 0
DWIDTH 24 0
BBX 18 15 3 -1
BITMAP
FFFFC0
FFFFC0
600180
300300
300300
180600
180600
0C0C00
061800
061800
033000
01E000
01E000
00C000
008000
ENDCHAR
STARTCHAR 25C0
ENCODING 9664
SWIDTH 1000 0
DWIDTH 24 0
BBX 14 18 5 -2
BITMAP
0004
001C
007C
00FC
03FC
07FC
1FFC
7FFC
FFFC
7FFC
3FFC
0FFC
07FC
01FC
007C
003C
000C
0004
ENDCHAR
STARTCHAR 25C1
ENCODING 9665
SWIDTH 1000 0
DWIDTH 24 0
BBX 15 19 5 -3
BITMAP
0002
0006
001E
007E
00E6
0386
0706
1C06
3806
E006
7006
3806
0E06
0706
01C6
0076
003E
000E
0006
ENDCHAR
STARTCHAR 25C3
ENCODING 9667
SWIDTH 1000 0
DWIDTH 24 0
BBX 15 19 5 -3
BITMAP
0002
0006
001E
003E
00E6
01C6
0706
1E06
3806
E006
7006
3806
0E06
0386
01C6
0076
003E
000E
0002
ENDCHAR
STARTCHAR 25C6
ENCODING 9670
SWIDTH 1000 0
DWIDTH 24 0
BBX 20 20 2 -3
BITMAP
006000
00F000
01F800
03FC00
07FE00
0FFF00
1FFF80
3FFFC0
7FFFE0
FFFFF0
FFFFF0
7FFFE0
3FFFC0
1FFF80
0FFF00
07FE00
03FC00
01F800
00F000
006000
ENDCHAR
STARTCHAR 25C7
ENCODING 9671
SWIDTH 1000 0
DWIDTH 24 0
BBX 20 20 2 -3
BITMAP
006000
00F000
019800
030C00
060600
0C0300
180180
3000C0
600060
C00030
C00030
600060
3000C0
180180
0C0300
060600
030C00
019800
00F000
006000
ENDCHAR
STARTCHAR 25C8
ENCODING 9672
SWIDTH 1000 0
DWIDTH 24 0
BBX 20 20 2 -3
BITMAP
006000
00F000
019800
030C00
066600
0CF300
19F980
33FCC0
67FE60
CFFF30
C7FE70
63FCE0
31F9C0
18F380
0C6700
060E00
031C00
01B800
00F000
006000
ENDCHAR
STARTCHAR 25C9
ENCODING 9673
SWIDTH 1000 0
DWIDTH 24 0
BBX 19 19 2 -2
BITMAP
01F000
07FC00
1E0F00
380380
3001C0
6000C0
60F0C0
C1F860
C3FC60
C3FC60
C3FC60
C3F860
61F860
60E0C0
3001C0
380380
1C0700
0FFE00
01F800
ENDCHAR
STARTCHAR 25CA
ENCODING 9674
SWIDTH 1000 0
DWIDTH 24 0
BBX 16 20 4 -3
BITMAP
0180
03C0
07E0
0660
0C30
1818
381C
700E
E007
C003
C003
6006
300C
381C
1C38
0E70
0660
03C0
0180
0180
ENDCHAR
STARTCHAR 25CB
ENCODING 9675
SWIDTH 1000 0
DWIDTH 24 0
BBX 18 18 3 -1
BITMAP
07F800
0E1C00
180600
300300
600180
400080
C000C0
C000C0
800040
800040
C000C0
C000C0
400080
600180
300300
180600
0F3C00
03F000
ENDCHAR
STARTCHAR 25CC
ENCODING 9676
SWIDTH 1000 0
DWIDTH 24 0
BBX 22 22 1 -4
BITMAP
003000
030300
000000
100020
000000
000000
400008
400008
000000
000000
800004
800004
000000
000000
400008
400008
000000
000000
100020
000000
030300
003000
ENDCHAR
STARTCHAR 25CE
ENCODING 9678
SWIDTH 1000 0
DWIDTH 24 0
BBX 20 19 2 -2
BITMAP
03FC00
0E0700
180180
31F8C0
270E40
660260
4C0320
480120
C80130
C80130
480120
4C0320
660660
239C40
31F8C0
180180
0E0700
03FC00
006000
ENDCHAR
STARTCHAR 25CF
ENCODING 9679
SWIDTH 1000 0
DWIDTH 24 0
BBX 18 18 3 -1
BITMAP
03F000
0FFC00
1FFE00
3FFF00
7FFF80
7FFF80
FFFFC0
FFFFC0
FFFFC0
FFFFC0
FFFFC0
FFFFC0
7FFF80
7FFF80
3FFF00
1FFE00
0FFC00
03F000
ENDCHAR
STARTCHAR 25D0
ENCODING 9680
SWIDTH 1000 0
DWIDTH 24 0
BBX 19 19 3 -2
BITMAP
01F000
0FFC00
1F8F00
3F8380
7F8180
7F80C0
FF80C0
FF8060
FF8060
FF8060
FF8060
FF8060
FF80C0
FF80C0
7F8180
3F8380
1F8F00
0FFC00
03F000
ENDCHAR
STARTCHAR 25D1
ENCODING 9681
SWIDTH 1000 0
DWIDTH 24 0
BBX 19 19 2 -2
BITMAP
01F000
07FC00
1E3F00
383F80
303FC0
603FC0
603FE0
C03FE0
C03FE0
C03FE0
C03FE0
C03FE0
603FE0
603FC0
303FC0
383F80
1E3F00
0FFE00
01F800
ENDCHAR
STARTCHAR 25E6
ENCODING 9702
SWIDTH 1000 0
DWIDTH 24 0
BBX 12 12 6 1
BITMAP
1F80
70E0
4020
C030
8010
8010
8010
8010
C030
6060
39C0
1F80
ENDCHAR
STARTCHAR 25EF
ENCODING 9711
SWIDTH 1000 0
DWIDTH 24 0
BBX 22 21 1 -3
BITMAP
00FC00
030300
0C00C0
100020
200010
200010
400008
400008
800004
800004
800004
800004
800004
800008
400008
400008
200010
100020
080040
060180
01FE00
ENDCHAR
STARTCHAR 2605
ENCODING 9733
SWIDTH 1000 0
DWIDTH 24 0
BBX 20 18 2 -2
BITMAP
004000
006000
006000
00F000
00F000
00F000
FFFFF0
3FFFC0
1FFF80
07FF00
03FC00
03FC00
07FE00
07FE00
079E00
0E0700
0C0300
100100
ENDCHAR
STARTCHAR 2606
ENCODING 9734
SWIDTH 1000 0
DWIDTH 24 0
BBX 18 17 3 -1
BITMAP
008000
00C000
00C000
01E000
01E000
012000
FF3FC0
600180
300300
0C0C00
061800
040800
0CCC00
0FF400
0E1C00
1C0E00
180600
ENDCHAR
STARTCHAR 260E
ENCODING 9742
SWIDTH 1000 0
DWIDTH 24 0
BBX 20 16 2 -1
BITMAP
03FC00
1FFF80
7FFFE0
FB0DF0
FBFDF0
FBFDF0
F70CF0
060600
0E0700
1C0380
3C0380
3E07C0
3E07C0
3F0FC0
7FFFC0
7FFFC0
ENDCHAR
STARTCHAR 260F
ENCODING 9743
SWIDTH 1000 0
DWIDTH 24 0
BBX 21 16 1 -1
BITMAP
00F800
0F0780
33FF60
4E8A90
8AFA88
860288
8A7AC8
758530
060280
0A0240
120240
220220
210420
20F820
200020
3FFFE0
ENDCHAR
STARTCHAR 261C
ENCODING 9756
SWIDTH 1000 0
DWIDTH 24 0
BBX 18 7 3 3
BITMAP
3FF000
C10CC0
7EE3C0
0550C0
03C8C0
03C1C0
03FEC0
ENDCHAR
STARTCHAR 261D
ENCODING 9757
SWIDTH 1000 0
DWIDTH 24 0
BBX 8 17 8 -2
BITMAP
40
A0
A0
A0
B0
AC
AE
ED
AD
B3
91
92
82
42
44
7E
7E
ENDCHAR
STARTCHAR 261E
ENCODING 9758
SWIDTH 1000 0
DWIDTH 24 0
BBX 18 7 3 3
BITMAP
03FF80
CC4040
F1FF80
C2A800
C4F000
E0F000
DFF000
ENDCHAR
STARTCHAR 261F
ENCODING 9759
SWIDTH 1000 0
DWIDTH 24 0
BBX 8 18 8 -1
BITMAP
7E
42
7E
24
42
92
92
91
A7
BD
ED
AE
B0
A0
A0
A0
A0
40
ENDCHAR
STARTCHAR 262F
ENCODING 9775
SWIDTH 1000 0
DWIDTH 24 0
BBX 19 19 2 -2
BITMAP
01F000
060C00
180300
300080
200080
400040
400040
800FA0
801FA0
803FE0
C07FE0
C0FFE0
7FFFE0
7FFFC0
3FFFC0
3FFF80
1FFF00
07FE00
01F800
ENDCHAR
STARTCHAR 2640
ENCODING 9792
SWIDTH 1000 0
DWIDTH 24 0
BBX 14 21 5 -3
BITMAP
0780
0FC0
1860
3030
3030
3030
3030
1860
0FC0
0780
0300
0300
FFFC
FFFC
0300
0300
0300
0300
0300
0300
0300
ENDCHAR
STARTCHAR 2642
ENCODING 9794
SWIDTH 1000 0
DWIDTH 24 0
BBX 12 20 6 -2
BITMAP
0600
0F00
1F00
1F80
36C0
6660
C670
4620
0600
0600
0600
1F00
3FC0
30C0
6060
6060
6060
30C0
3F80
0F00
ENDCHAR
STARTCHAR 2660
ENCODING 9824
SWIDTH 1000 0
DWIDTH 24 0
BBX 16 20 4 -2
BITMAP
0180
0380
03C0
07E0
0FF0
1FF8
1FF8
3FFC
7FFC
7FFE
FFFE
FFFF
FFFF
FFFF
7FFE
3BDC
03C0
03C0
07E0
07E0
ENDCHAR
STARTCHAR 2661
ENCODING 9825
SWIDTH 1000 0
DWIDTH 24 0
BBX 17 19 3 -3
BITMAP
1C1E00
7F3F00
636300
C1C180
C1C180
C08180
C00180
400180
600300
600300
300600
180E00
180C00
0C1800
063000
037000
03E000
01C000
008000
ENDCHAR
STARTCHAR 2663
ENCODING 9827
SWIDTH 1000 0
DWIDTH 24 0
BBX 19 20 2 -3
BITMAP
01F000
03F800
07FC00
07FC00
07FC00
07FC00
03F800
3DF780
7FFFC0
FFFFE0
FFFFE0
FFFFE0
FFFFE0
FFFFE0
7FFFC0
3DF780
01F000
01F000
01F800
01F000
ENDCHAR
STARTCHAR 2664
ENCODING 9828
SWIDTH 1000 0
DWIDTH 24 0
BBX 16 20 4 -3
BITMAP
0180
0380
03C0
0660
0C30
1830
1818
300C
600C
6006
C002
C003
C003
C3C3
7FFE
3BFC
02C0
0240
07E0
07E0
ENDCHAR
STARTCHAR 2665
ENCODING 9829
SWIDTH 1000 0
DWIDTH 24 0
BBX 17 18 4 -2
BITMAP
3E3E00
7F7F00
FF7F80
FFFF80
FFFF80
FFFF80
FFFF80
7FFF00
7FFF00
7FFF00
3FFE00
1FFC00
1FFC00
0FF800
07F000
03E000
01C000
008000
ENDCHAR
STARTCHAR 2667
ENCODING 9831
SWIDTH 1000 0
DWIDTH 24 0
BBX 19 20 2 -3
BITMAP
01F000
03F800
071C00
060C00
060C00
060C00
031800
09B200
3FBFC0
63B8C0
C00060
C00060
C08060
C1B060
63B8C0
7FBFC0
1DB700
01B000
01F800
00F000
ENDCHAR
STARTCHAR 2668
ENCODING 9832
SWIDTH 1000 0
DWIDTH 24 0
BBX 19 19 2 -2
BITMAP
002000
002000
026400
026C00
024C00
06CC00
06CC00
026C00
036400
036600
036600
1B6780
236C40
426C20
C24820
E45060
7803E0
3FFF80
0FFE00
ENDCHAR
STARTCHAR 2669
ENCODING 9833
SWIDTH 1000 0
DWIDTH 24 0
BBX 4 18 10 -2
BITMAP
10
10
10
10
10
10
10
10
10
10
10
10
10
30
F0
F0
E0
80
ENDCHAR
STARTCHAR 266A
ENCODING 9834
SWIDTH 1000 0
DWIDTH 24 0
BBX 10 18 7 -2
BITMAP
0800
0C00
0E00
0F00
0F80
0B80
08C0
0840
0840
0840
0840
0880
0900
1800
7800
7800
F000
4000
ENDCHAR
STARTCHAR 266C
ENCODING 9836
SWIDTH 1000 0
DWIDTH 24 0
BBX 14 16 5 -1
BITMAP
007C
0FFC
0FC4
0C0C
08FC
0FFC
0F84
0804
0804
0804
081C
083C
1878
7830
F000
E000
ENDCHAR
STARTCHAR 266D
ENCODING 9837
SWIDTH 1000 0
DWIDTH 24 0
BBX 8 16 8 -1
BITMAP
C0
C0
C0
C0
C0
DC
E6
C3
C3
C3
C3
C2
C6
CC
F8
E0
ENDCHAR
STARTCHAR 266F
ENCODING 9839
SWIDTH 1000 0
DWIDTH 24 0
BBX 12 20 6 -3
BITMAP
0080
1080
1080
1080
1080
17F0
FFE0
F080
1080
1080
1080
1080
10F0
FFF0
FC80
1080
1080
1080
1080
1000
ENDCHAR
STARTCHAR 2716
ENCODING 10006
SWIDTH 1000 0
DWIDTH 24 0
BBX 18 17 3 -2
BITMAP
080400
1C0E00
3E1F00
7F3F80
FFFFC0
7FFF80
3FFF00
1FFE00
0FFC00
0FFC00
1FFE00
3FFF00
7FFF80
7FFF80
3F3F00
1E1E00
0C0C00
ENDCHAR
STARTCHAR 271A
ENCODING 10010
SWIDTH 1000 0
DWIDTH 24 0
BBX 19 19 2 -2
BITMAP
01F800
01F800
01F800
01F800
01F800
01F800
01F800
FFFFE0
FFFFE0
FFFFE0
FFFFE0
FFFFE0
FFFFE0
01F800
01F800
01F800
01F800
01F800
01F800
ENDCHAR
STARTCHAR 273D
ENCODING 10045
SWIDTH 1000 0
DWIDTH 24 0
BBX 12 13 6 0
BITMAP
0600
0600
0600
C630
E470
3DC0
0600
0900
74E0
E670
4620
0600
0600
ENDCHAR
STARTCHAR 2756
ENCODING 10070
SWIDTH 1000 0
DWIDTH 24 0
BBX 18 18 3 -2
BITMAP
00C000
01E000
03F000
07F800
03F000
11E200
38C700
7C0F80
FE1FC0
FE1FC0
7C0F80
38C700
11E200
03F000
07F800
03F000
01E000
00C000
ENDCHAR
STARTCHAR 2776
ENCODING 10102
SWIDTH 1000 0
DWIDTH 24 0
BBX 21 21 1 -4
BITMAP
00FC00
07FF00
0FFF80
1FCFE0
3FCFE0
3FCFF0
7E0FF0
7E0FF8
7FCFF8
FFCFF8
FFCFF8
FFCFF8
FFCFF8
7FCFF8
7FCFF8
7FCFF0
3FCFF0
1FCFE0
0FFFC0
07FF80
01FE00
ENDCHAR
STARTCHAR 2777
ENCODING 10103
SWIDTH 1000 0
DWIDTH 24 0
BBX 21 22 1 -4
BITMAP
00FC00
07FF00
0FFF80
1F87C0
3F03E0
7E31F0
7E79F0
7C79F8
FFF9F8
FFF1F8
FFE3F8
FFC7F8
FF8FF8
FF3FF8
7E7FF8
7E01F0
3C01F0
3C01E0
1FFFC0
0FFF80
03FE00
007000
ENDCHAR
STARTCHAR 2778
ENCODING 10104
SWIDTH 1000 0
DWIDTH 24 0
BBX 22 21 1 -4
BITMAP
00FC00
07FF00
0FFFC0
1F87E0
3E03F0
3E31F0
7C79F8
7C79F8
FFF1FC
FFC3FC
FFC3FC
FFF1FC
FFF8FC
7CF8F8
7CF8F8
7C70F8
3E01F0
1F07E0
0FFFC0
07FF80
01FE00
ENDCHAR
STARTCHAR 2779
ENCODING 10105
SWIDTH 1000 0
DWIDTH 24 0
BBX 22 22 1 -4
BITMAP
00FC00
07FF00
0FFFC0
1FE7E0
3FC7F0
7FC7F0
7F87F8
7F07F8
FF27F8
FE67F8
FC67FC
FCE7FC
F801F8
F801F8
7801F8
7FE7F8
3FE7F0
3FE7E0
1FFFC0
0FFF80
03FF00
007000
ENDCHAR
STARTCHAR 277A
ENCODING 10106
SWIDTH 1000 0
DWIDTH 24 0
BBX 21 21 1 -4
BITMAP
01FC00
07FF00
0FFF80
1F03C0
3E03E0
7E03F0
7E7FF0
FE7FF8
FE7FF8
FE03F8
FC73F8
FFF9F8
FFF9F8
FFF9F8
7CF9F0
7C71F0
3E03E0
1F07C0
0FFF80
07FF00
01FC00
ENDCHAR
STARTCHAR 277B
ENCODING 10107
SWIDTH 1000 0
DWIDTH 24 0
BBX 22 21 1 -4
BITMAP
00FC00
03FF80
0FFFC0
1FC7E0
3F01F0
3E11F8
7E38F8
7C7FFC
FC6FFC
FC01FC
FC01FC
FC78FC
FC78FC
7CF8FC
7C78F8
7E70F8
3E01F0
1F83E0
0FFFC0
07FF80
01FE00
ENDCHAR
STARTCHAR 277C
ENCODING 10108
SWIDTH 1000 0
DWIDTH 24 0
BBX 21 21 1 -3
BITMAP
00FC00
07FF00
0FFF80
1FFFC0
3C01E0
7C01F0
7FF3F0
FFE3F8
FFE7F8
FFCFF8
FFCFF8
FF8FF8
FF9FF8
FF9FF8
7F9FF0
7F1FF0
3F1FE0
1F1FE0
0FFFC0
07FF00
01FC00
ENDCHAR
STARTCHAR 277D
ENCODING 10109
SWIDTH 1000 0
DWIDTH 24 0
BBX 21 21 1 -4
BITMAP
00FC00
07FF00
0FFFC0
1F8FE0
3E03E0
7E31F0
7E79F8
7E79F8
FE31F8
FE03F8
FE03F8
FC71F8
FCF9F8
7CF8F8
7CF9F8
7C71F0
3E01F0
1F07E0
0FFFC0
07FF00
01FC00
ENDCHAR
STARTCHAR 277E
ENCODING 10110
SWIDTH 1000 0
DWIDTH 24 0
BBX 21 21 1 -4
BITMAP
01FC00
07FF00
0FFF80
1F8FC0
3E03E0
7E23F0
7C79F0
FCF9F8
FCF9F8
FC79F8
FC71F8
FE01F8
FF09F8
FFF9F8
7C79F0
7E73F0
3E03E0
1F07C0
1FFF80
07FF00
01FC00
ENDCHAR
STARTCHAR 277F
ENCODING 10111
SWIDTH 1000 0
DWIDTH 24 0
BBX 21 21 1 -4
BITMAP
00FC00
07FF00
0FFF80
1FFBC0
3CE0E0
3CC070
60C670
608F38
FC8F38
FC8F38
FC8F38
FC8F38
FC8F38
7C8F38
7CCF30
7CC670
3CE060
1CF1E0
0FFFC0
07FF80
01FE00
ENDCHAR
STARTCHAR 278A
ENCODING 10122
SWIDTH 1000 0
DWIDTH 24 0
BBX 21 22 2 -4
BITMAP
01F800
07FF00
1FFF80
3FCFC0
3F8FE0
7E0FF0
FE0FF0
FE0FF0
FF8FF8
FF8FF8
FF8FF8
FF8FF8
FF8FF8
FF8FF8
FF8FF0
7F8FF0
7F8FE0
3F8FE0
1F8FC0
0FFF80
07FE00
00F800
ENDCHAR
STARTCHAR 278B
ENCODING 10123
SWIDTH 1000 0
DWIDTH 24 0
BBX 21 21 1 -4
BITMAP
01FC00
07FF00
0F8780
1F03C0
3E03E0
7E31F0
7E71F0
FFF3F8
FFE3F8
FFE3F8
FFC7F8
FFC7F8
FF8FF8
FF1FF8
7F1FF8
7E3FF0
3E03E0
1E03E0
0FFFC0
07FF00
01FC00
ENDCHAR
STARTCHAR 278C
ENCODING 10124
SWIDTH 1000 0
DWIDTH 24 0
BBX 21 21 2 -3
BITMAP
01F800
07FF00
1FFF80
3F0FC0
3E07E0
7E07F0
FE63F0
FE63F0
FFE7F8
FF87F8
FF8FF8
FF87F8
FFE3F8
FFE3F0
FE63F0
7E63F0
3E07E0
3F0FC0
1FFF80
07FF00
01F800
ENDCHAR
STARTCHAR 278D
ENCODING 10125
SWIDTH 1000 0
DWIDTH 24 0
BBX 21 21 1 -3
BITMAP
00F800
03FF00
0FFF80
1FC7C0
3FC7E0
7F87F0
7F87F0
7F07F8
FF47F8
FE47F8
FE47F8
FC47F8
FC03F8
7C03F8
7FC7F0
7FC7F0
3FC7E0
1FC7C0
0FFF80
07FF00
01FC00
ENDCHAR
STARTCHAR 278E
ENCODING 10126
SWIDTH 1000 0
DWIDTH 24 0
BBX 21 22 2 -4
BITMAP
01FC00
07FF00
0FFF80
1E07C0
3E07E0
7E07F0
7E7FF0
FE7FF0
FE07F8
FE03F8
FE63F8
FFE3F8
FFE3F8
FFE3F8
FE63F0
7E63F0
7E03F0
3F07E0
1F8FC0
0FFF80
07FF00
00F800
ENDCHAR
STARTCHAR 278F
ENCODING 10127
SWIDTH 1000 0
DWIDTH 24 0
BBX 21 22 1 -4
BITMAP
00F800
07FE00
0FFF80
1F87C0
3F03E0
7E23F0
7E33F0
7E33F0
FE3FF8
FE07F8
FE03F8
FE33F8
FE33F8
FE33F8
7E33F0
7E33F0
7E03F0
3E03E0
1F0FC0
0FFF80
07FF00
00F800
ENDCHAR
STARTCHAR 2790
ENCODING 10128
SWIDTH 1000 0
DWIDTH 24 0
BBX 21 22 1 -4
BITMAP
01FC00
07FF00
0FFF80
1E03C0
3E03E0
7E03F0
7FE3F0
7FE3F8
FFE3F8
FFE7F8
FFC7F8
FFC7F8
FFC7F8
FFCFF8
7F8FF8
7F8FF0
7F8FF0
3F9FE0
1F1FC0
0FFF80
07FF00
00F800
ENDCHAR
STARTCHAR 2791
ENCODING 10129
SWIDTH 1000 0
DWIDTH 24 0
BBX 21 21 1 -3
BITMAP
01FC00
07FF00
0FFF80
1F07C0
3E03E0
7E23F0
7E33F0
FE33F8
FE33F8
FF07F8
FF07F8
FE03F8
FE33F8
FE33F8
7E33F0
7E33F0
3E03E0
1F07C0
0FFF80
07FF00
01FC00
ENDCHAR
STARTCHAR 2792
ENCODING 10130
SWIDTH 1000 0
DWIDTH 24 0
BBX 21 21 1 -3
BITMAP
01FC00
07FF00
0FFF80
1F07C0
3F03E0
7E33F0
7E33F0
7E33F8
FE33F8
FE33F8
FE03F8
FF03F8
FF93F8
7FF3F8
7E33F0
7E33F0
3E03E0
1F07C0
0FFF80
07FF00
01FC00
ENDCHAR
STARTCHAR 2793
ENCODING 10131
SWIDTH 1000 0
DWIDTH 24 0
BBX 21 21 1 -2
BITMAP
01FE00
07FF00
1FFFC0
1EF1E0
3CE0E0
70C070
70C670
FCC678
FCC678
FCC678
FCC678
FCC678
FCC678
FCC678
7CC670
7CC670
3CC060
1CE0C0
0FFF80
07FF00
01FC00
ENDCHAR
STARTCHAR 3000
ENCODING 12288
SWIDTH 1000 0
DWIDTH 24 0
BBX 0 0 0 0
BITMAP
ENDCHAR
STARTCHAR 3001
ENCODING 12289
SWIDTH 1000 0
DWIDTH 24 0
BBX 6 5 9 -5
BITMAP
80
E0
3C
1C
0C
ENDCHAR
STARTCHAR 3002
ENCODING 12290
SWIDTH 1000 0
DWIDTH 24 0
BBX 6 6 9 -4
BITMAP
78
FC
CC
CC
FC
78
ENDCHAR
STARTCHAR 3003
ENCODING 12291
SWIDTH 1000 0
DWIDTH 24 0
BBX 11 8 7 3
BITMAP
1DE0
3DC0
3B80
7300
6700
6600
CC00
8C00
ENDCHAR
STARTCHAR 3008
ENCODING 12296
SWIDTH 1000 0
DWIDTH 24 0
BBX 10 21 7 -4
BITMAP
0080
01C0
0180
0300
0600
0E00
0C00
1800
3000
6000
E000
6000
3000
3000
1800
0C00
0600
0700
0300
0180
0080
ENDCHAR
STARTCHAR 3009
ENCODING 12297
SWIDTH 1000 0
DWIDTH 24 0
BBX 10 21 7 -4
BITMAP
4000
C000
6000
3000
1800
1C00
0C00
0600
0300
0180
01C0
0180
0300
0700
0600
0C00
1800
3800
7000
6000
4000
ENDCHAR
STARTCHAR 300A
ENCODING 12298
SWIDTH 1000 0
DWIDTH 24 0
BBX 10 22 7 -3
BITMAP
0240
06C0
0580
0D80
1B00
1A00
3600
3C00
6C00
5800
D800
D800
6800
6C00
3600
3600
1B00
0B00
0D80
0680
06C0
0200
ENDCHAR
STARTCHAR 300B
ENCODING 12299
SWIDTH 1000 0
DWIDTH 24 0
BBX 10 22 7 -3
BITMAP
9000
D800
6800
6C00
3600
1600
1B00
0900
0D80
0680
06C0
06C0
0580
0D80
1B00
1B00
3600
3400
6C00
5800
D800
1000
ENDCHAR
STARTCHAR 300C
ENCODING 12300
SWIDTH 1000 0
DWIDTH 24 0
BBX 7 11 9 7
BITMAP
FE
FE
C0
C0
C0
C0
C0
C0
C0
C0
C0
ENDCHAR
STARTCHAR 300D
ENCODING 12301
SWIDTH 1000 0
DWIDTH 24 0
BBX 7 11 8 -4
BITMAP
06
06
06
06
06
06
06
06
06
FE
FE
ENDCHAR
STARTCHAR 300E
ENCODING 12302
SWIDTH 1000 0
DWIDTH 24 0
BBX 8 10 8 8
BITMAP
FF
C3
FF
F0
F0
F0
F0
F0
F0
F0
ENDCHAR
STARTCHAR 300F
ENCODING 12303
SWIDTH 1000 0
DWIDTH 24 0
BBX 8 12 8 -4
BITMAP
0F
0F
0F
0F
0F
0F
0F
0F
FF
C3
FF
FF
ENDCHAR
STARTCHAR 3010
ENCODING 12304
SWIDTH 1000 0
DWIDTH 24 0
BBX 7 21 8 -3
BITMAP
FE
FC
F8
F0
F0
E0
E0
E0
C0
C0
C0
C0
C0
C0
E0
E0
F0
F0
F8
FC
FE
ENDCHAR
STARTCHAR 3011
ENCODING 12305
SWIDTH 1000 0
DWIDTH 24 0
BBX 8 21 8 -3
BITMAP
FF
3F
1F
0F
0F
07
07
07
03
03
03
03
03
07
07
07
0F
0F
1F
3F
7F
ENDCHAR
STARTCHAR 3012
ENCODING 12306
SWIDTH 1000 0
DWIDTH 24 0
BBX 19 18 2 -2
BITMAP
FFFFE0
FFFFE0
000000
000000
000000
FFFFE0
FFFFE0
006000
006000
006000
006000
006000
006000
006000
006000
006000
006000
006000
ENDCHAR
STARTCHAR 3013
ENCODING 12307
SWIDTH 1000 0
DWIDTH 24 0
BBX 16 7 4 4
BITMAP
FFFF
FFFF
0000
0000
0000
FFFF
FFFF
ENDCHAR
STARTCHAR 3014
ENCODING 12308
SWIDTH 1000 0
DWIDTH 24 0
BBX 6 22 9 -3
BITMAP
04
1C
78
E0
C0
C0
C0
C0
C0
C0
C0
C0
C0
C0
C0
C0
C0
C0
F0
3C
0C
04
ENDCHAR
STARTCHAR 3015
ENCODING 12309
SWIDTH 1000 0
DWIDTH 24 0
BBX 6 21 9 -3
BITMAP
80
E0
78
1C
0C
0C
0C
0C
0C
0C
0C
0C
0C
0C
0C
0C
0C
1C
3C
F0
C0
ENDCHAR
STARTCHAR 3016
ENCODING 12310
SWIDTH 1000 0
DWIDTH 24 0
BBX 7 21 8 -3
BITMAP
FE
C4
C4
C8
C8
C8
D0
D0
D0
D0
D0
D0
D0
D0
D0
C8
C8
C8
C4
C4
FE
ENDCHAR
STARTCHAR 3017
ENCODING 12311
SWIDTH 1000 0
DWIDTH 24 0
BBX 7 21 8 -3
BITMAP
FE
46
46
26
26
26
16
16
16
16
16
16
16
16
16
26
26
26
46
46
FE
ENDCHAR
STARTCHAR 3018
ENCODING 12312
SWIDTH 1000 0
DWIDTH 24 0
BBX 8 22 8 -3
BITMAP
02
0D
36
D8
A0
A0
A0
A0
A0
A0
A0
A0
A0
A0
A0
A0
A0
B0
48
36
0E
02
ENDCHAR
STARTCHAR 3019
ENCODING 12313
SWIDTH 1000 0
DWIDTH 24 0
BBX 8 22 8 -3
BITMAP
40
B0
6C
1B
05
05
05
05
05
05
05
05
05
05
05
05
05
0D
12
6C
B0
40
ENDCHAR
STARTCHAR 301E
ENCODING 12318
SWIDTH 1000 0
DWIDTH 24 0
BBX 10 6 7 11
BITMAP
3FC0
3B80
3300
6600
4400
8800
ENDCHAR
STARTCHAR 301F
ENCODING 12319
SWIDTH 1000 0
DWIDTH 24 0
BBX 8 5 8 -4
BITMAP
77
66
66
CC
88
ENDCHAR
STARTCHAR 3020
ENCODING 12320
SWIDTH 1000 0
DWIDTH 24 0
BBX 18 16 3 0
BITMAP
030000
01E000
063C00
03CF00
707980
8C2F00
8E6180
804000
404400
4804C0
240040
230840
10F040
0C0380
031C00
00E000
ENDCHAR
STARTCHAR 3036
ENCODING 12342
SWIDTH 1000 0
DWIDTH 24 0
BBX 21 21 1 -3
BITMAP
00F800
070700
080080
100040
200020
4FFFD0
4FFFD0
400008
800008
800008
8FFFC8
8FFFC8
803008
803008
403010
403010
203020
103040
083080
060300
01FC00
ENDCHAR
STARTCHAR 3041
ENCODING 12353
SWIDTH 1000 0
DWIDTH 24 0
BBX 13 16 5 -3
BITMAP
0C00
0E00
0D80
7F80
7F00
0DC0
1FC0
1FF0
3FF8
7F38
EF38
CE38
DE38
FE70
75E0
00C0
ENDCHAR
STARTCHAR 3042
ENCODING 12354
SWIDTH 1000 0
DWIDTH 24 0
BBX 16 19 4 -2
BITMAP
0700
0700
0770
3FF0
3FF0
3E20
0670
07F8
0FFE
3FFE
3EE7
77C7
E7C7
E787
E70F
FF8E
7FFE
323C
0030
ENDCHAR
STARTCHAR 3043
ENCODING 12355
SWIDTH 1000 0
DWIDTH 24 0
BBX 14 11 5 0
BITMAP
E000
E0E0
E070
E070
E038
E038
641C
6610
7E00
3C00
1000
ENDCHAR
STARTCHAR 3044
ENCODING 12356
SWIDTH 1000 0
DWIDTH 24 0
BBX 16 14 4 0
BITMAP
8000
E000
C038
C03C
C01C
C00E
C00E
E007
E207
E207
7700
7F00
3E00
1C00
ENDCHAR
STARTCHAR 3045
ENCODING 12357
SWIDTH 1000 0
DWIDTH 24 0
BBX 8 16 8 -2
BITMAP
10
3C
1E
0C
00
3E
FF
E3
C3
03
03
07
06
0E
1C
08
ENDCHAR
STARTCHAR 3046
ENCODING 12358
SWIDTH 1000 0
DWIDTH 24 0
BBX 11 20 7 -2
BITMAP
1C00
1F00
0F80
0300
0100
0700
3FC0
7FC0
F8C0
E0E0
40E0
00E0
00C0
01C0
01C0
0380
0780
0F00
0E00
0400
ENDCHAR
STARTCHAR 3047
ENCODING 12359
SWIDTH 1000 0
DWIDTH 24 0
BBX 13 15 6 -1
BITMAP
0C00
0F00
0700
0100
0000
7F00
7F80
7700
0E00
1F00
3F00
3B00
7308
E3F0
C1F0
ENDCHAR
STARTCHAR 3048
ENCODING 12360
SWIDTH 1000 0
DWIDTH 24 0
BBX 16 19 4 -2
BITMAP
0300
07C0
03E0
00E0
0000
0000
0FC0
3FF0
3FE0
33C0
0380
07C0
0FC0
1FC0
3CE0
38E0
F0FF
F07F
203F
ENDCHAR
STARTCHAR 3049
ENCODING 12361
SWIDTH 1000 0
DWIDTH 24 0
BBX 13 14 5 -1
BITMAP
1C00
1820
1E70
7F38
7E18
1800
1FC0
3FE0
7870
F870
D870
D8E0
79E0
3980
ENDCHAR
STARTCHAR 304A
ENCODING 12362
SWIDTH 1000 0
DWIDTH 24 0
BBX 17 18 3 -2
BITMAP
0E0000
0E0000
0E0400
0FCF00
7FC780
7F8380
2E0180
0E7000
0FFC00
1FFE00
3E0F00
7E0700
FE0700
EE0700
EE0E00
7E7E00
3E7C00
1C3000
ENDCHAR
STARTCHAR 304B
ENCODING 12363
SWIDTH 1000 0
DWIDTH 24 0
BBX 19 17 3 -1
BITMAP
030000
038000
070200
070700
0FF780
7FF3C0
7E39C0
2E38E0
0E38C0
1C3800
1C3800
383000
387000
787000
73F000
F3E000
61C000
ENDCHAR
STARTCHAR 304C
ENCODING 12364
SWIDTH 1000 0
DWIDTH 24 0
BBX 20 18 2 -1
BITMAP
0000E0
030070
0383B0
0381C0
0304C0
07EF00
7FF700
7FF380
7E39C0
0E39C0
0E3880
1C3800
1C3000
387000
387000
73F000
F3E000
61C000
ENDCHAR
STARTCHAR 304D
ENCODING 12365
SWIDTH 1000 0
DWIDTH 24 0
BBX 12 20 6 -2
BITMAP
3800
1C80
1F80
7FC0
7F00
7F60
07F0
3FE0
FF80
7FC0
01C0
3FE0
7FF0
F1E0
E040
E000
F000
7F80
3F80
0780
ENDCHAR
STARTCHAR 304E
ENCODING 12366
SWIDTH 1000 0
DWIDTH 24 0
BBX 17 21 3 -3
BITMAP
000600
3C1B00
1C9D80
1FCD00
3FCC00
7F0000
7F7000
07F000
3FF000
FF8000
7DC000
01C000
3FE000
7FF000
F1F000
E06000
E00000
F00000
7F8000
3F8000
078000
ENDCHAR
STARTCHAR 304F
ENCODING 12367
SWIDTH 1000 0
DWIDTH 24 0
BBX 8 19 8 -3
BITMAP
04
0E
0E
1E
1C
38
78
70
E0
E0
70
70
38
1C
1E
0E
0F
07
06
ENDCHAR
STARTCHAR 3050
ENCODING 12368
SWIDTH 1000 0
DWIDTH 24 0
BBX 14 19 5 -3
BITMAP
0400
0E00
0E10
1E38
1CDC
38EC
7870
7000
E000
E000
7000
7800
3800
1C00
1E00
0E00
0F00
0700
0600
ENDCHAR
STARTCHAR 3051
ENCODING 12369
SWIDTH 1000 0
DWIDTH 24 0
BBX 16 19 4 -3
BITMAP
0040
6038
7038
7038
E03F
E3FF
E3FF
E3F8
E038
E038
F038
F838
F038
F070
F070
70F0
71E0
63E0
00C0
ENDCHAR
STARTCHAR 3052
ENCODING 12370
SWIDTH 1000 0
DWIDTH 24 0
BBX 20 20 2 -2
BITMAP
000060
007170
703BB0
7039D0
7038C0
703F00
E3FF00
E3FF00
E3F800
E03800
E03800
F03800
F83800
F83800
F07000
707000
70F000
71E000
21E000
00C000
ENDCHAR
STARTCHAR 3053
ENCODING 12371
SWIDTH 1000 0
DWIDTH 24 0
BBX 14 15 5 -1
BITMAP
3FF0
3FF0
3FF0
0010
0000
0000
0000
0000
4000
E000
E000
E01C
FFFC
7FFC
0FF0
ENDCHAR
STARTCHAR 3054
ENCODING 12372
SWIDTH 1000 0
DWIDTH 24 0
BBX 18 18 3 0
BITMAP
000180
000580
000EC0
3FF7C0
3FF300
3FF000
001000
000000
000000
000000
000000
400000
E00000
E00000
E01C00
FFFC00
7FFC00
0FF000
ENDCHAR
STARTCHAR 3055
ENCODING 12373
SWIDTH 1000 0
DWIDTH 24 0
BBX 12 19 6 -3
BITMAP
1C00
1C00
0C00
0EE0
0FF0
FFE0
FF00
4380
0380
01C0
3FE0
7FE0
FBF0
E0E0
E000
F000
7F80
3F80
0F80
ENDCHAR
STARTCHAR 3056
ENCODING 12374
SWIDTH 1000 0
DWIDTH 24 0
BBX 17 21 4 -2
BITMAP
000200
000700
1C1B80
1C0D00
0E2C00
0EE000
0FF000
FFE000
FF8000
038000
03C000
01C000
3EE000
7FE000
FBF000
E06000
E00000
F00000
7F8000
3F8000
078000
ENDCHAR
STARTCHAR 3057
ENCODING 12375
SWIDTH 1000 0
DWIDTH 24 0
BBX 12 19 6 -3
BITMAP
8000
E000
E000
E000
E000
E000
E000
E000
E000
E000
E000
E000
E020
E060
E0F0
E1E0
F3E0
7FC0
3F00
ENDCHAR
STARTCHAR 3058
ENCODING 12376
SWIDTH 1000 0
DWIDTH 24 0
BBX 12 19 6 -3
BITMAP
8000
E060
E330
E1B0
E0C0
E080
E000
E000
E000
E000
E000
E000
E040
E060
E0F0
E1E0
F3E0
7FC0
3F00
ENDCHAR
STARTCHAR 3059
ENCODING 12377
SWIDTH 1000 0
DWIDTH 24 0
BBX 17 20 4 -2
BITMAP
00E000
00E000
00E000
03FF80
FFFF80
FFFF80
00E000
07E000
0FE000
1FE000
1CE000
1CE000
1FE000
0FE000
07E000
01C000
03C000
0F8000
070000
020000
ENDCHAR
STARTCHAR 305A
ENCODING 12378
SWIDTH 1000 0
DWIDTH 24 0
BBX 19 23 2 -3
BITMAP
000040
0000E0
000760
00E3A0
00E180
00E100
00FF80
FFFF80
FFFF80
70E000
00E000
0FE000
0FE000
1CE000
1CE000
1FE000
0FE000
07E000
01C000
03C000
0F8000
070000
020000
ENDCHAR
STARTCHAR 305B
ENCODING 12379
SWIDTH 1000 0
DWIDTH 24 0
BBX 20 16 2 -1
BITMAP
000E00
070E00
070E00
070E00
071FF0
FFFFE0
7FFFE0
7F0E00
070E00
073E00
073C00
073C00
070000
038700
03FF00
01FF00
ENDCHAR
STARTCHAR 305C
ENCODING 12380
SWIDTH 1000 0
DWIDTH 24 0
BBX 21 19 1 -2
BITMAP
000020
000070
0000B8
001CD8
0E1CE0
0E1C40
0E1C00
0E3FE0
FFFFC0
FFFFC0
7E1C00
0E1C00
0E7C00
0E7800
0E7800
0E0000
0F0E00
07FE00
03FE00
ENDCHAR
STARTCHAR 305D
ENCODING 12381
SWIDTH 1000 0
DWIDTH 24 0
BBX 13 20 5 -3
BITMAP
0040
7FC0
7FE0
39C0
0780
0F00
1E00
3DF8
7FF8
7FF8
FBE0
C780
0700
0E00
0E00
0E00
0FF0
07F0
03F0
0020
ENDCHAR
STARTCHAR 305E
ENCODING 12382
SWIDTH 1000 0
DWIDTH 24 0
BBX 18 20 3 -3
BITMAP
004000
7FC100
7FE180
79CCC0
078680
0F0600
1E0000
3DF800
7FF800
FFFC00
FBE000
C78000
0F0000
0E0000
0E0000
0E0000
0FF000
07F000
03F000
002000
ENDCHAR
STARTCHAR 305F
ENCODING 12383
SWIDTH 1000 0
DWIDTH 24 0
BBX 16 18 4 -1
BITMAP
0C00
0E00
0E00
0F80
FF80
FF80
FC38
1CFE
1CFE
1C00
3800
3800
3800
7100
73FF
F3FF
E0FF
2000
ENDCHAR
STARTCHAR 3060
ENCODING 12384
SWIDTH 1000 0
DWIDTH 24 0
BBX 18 18 3 -1
BITMAP
0C0100
0E0180
0E0CC0
0F86C0
FF8200
FF8000
FC3800
1CFE00
1CFE00
380200
380000
380000
780000
710000
73FF00
F3FF00
E0FF00
200000
ENDCHAR
STARTCHAR 3061
ENCODING 12385
SWIDTH 1000 0
DWIDTH 24 0
BBX 15 19 5 -3
BITMAP
0800
0E00
0E00
0EF0
FFF0
FFF0
FF80
0E00
0C00
1C00
1DF8
1FFC
1F1E
0C0E
000E
001E
03FC
03F8
01E0
ENDCHAR
STARTCHAR 3062
ENCODING 12386
SWIDTH 1000 0
DWIDTH 24 0
BBX 18 20 3 -2
BITMAP
000100
080180
0E0DC0
0E0680
0EF600
FFF000
FFF000
FF8000
0E0000
0C0000
1C0000
1DF800
1FFC00
1F1E00
0C0E00
000E00
001E00
03FC00
03F800
01E000
ENDCHAR
STARTCHAR 3063
ENCODING 12387
SWIDTH 1000 0
DWIDTH 24 0
BBX 14 10 5 0
BITMAP
03F0
FFF8
7E3C
701C
001C
001C
0038
01F8
03E0
01C0
ENDCHAR
STARTCHAR 3064
ENCODING 12388
SWIDTH 1000 0
DWIDTH 24 0
BBX 17 12 4 0
BITMAP
07FE00
FFFF00
FF0700
700380
400380
000380
000380
000700
001F00
01FE00
01FC00
00E000
ENDCHAR
STARTCHAR 3065
ENCODING 12389
SWIDTH 1000 0
DWIDTH 24 0
BBX 20 17 2 0
BITMAP
0000E0
000070
0003B0
0001C0
000080
07FE00
FFFF00
FF0700
780380
400380
000380
000380
000700
001F00
01FE00
01FC00
00F000
ENDCHAR
STARTCHAR 3066
ENCODING 12390
SWIDTH 1000 0
DWIDTH 24 0
BBX 16 16 4 -1
BITMAP
001F
07FF
FFFF
7FF0
70E0
01C0
03C0
0380
0380
0380
0380
03C0
01F0
00FE
007C
001C
ENDCHAR
STARTCHAR 3067
ENCODING 12391
SWIDTH 1000 0
DWIDTH 24 0
BBX 19 16 2 -1
BITMAP
001F00
07FF00
FFFF00
7FF800
70E0C0
01C760
01C3A0
038180
038100
038000
03C000
01C000
01F000
00FE00
007C00
001C00
ENDCHAR
STARTCHAR 3068
ENCODING 12392
SWIDTH 1000 0
DWIDTH 24 0
BBX 12 18 6 -2
BITMAP
3800
3800
3800
3800
3860
39E0
3FE0
3F80
3E00
7800
7000
E000
E000
E000
E030
FFF0
7FF0
1FF0
ENDCHAR
STARTCHAR 3069
ENCODING 12393
SWIDTH 1000 0
DWIDTH 24 0
BBX 17 19 3 -1
BITMAP
000200
380300
381980
380D00
380C00
1C2000
1DF000
1FF000
1FC000
1E0000
3C0000
700000
600000
E00000
E00000
F01800
7FF800
3FF000
0FF000
ENDCHAR
STARTCHAR 306A
ENCODING 12394
SWIDTH 1000 0
DWIDTH 24 0
BBX 16 19 4 -2
BITMAP
0C00
0E00
0E00
0F80
FF9C
FFDE
FC0F
3877
3872
7870
7070
F070
E070
E3F8
07FE
0E7E
0E76
0FE4
07E0
ENDCHAR
STARTCHAR 306B
ENCODING 12395
SWIDTH 1000 0
DWIDTH 24 0
BBX 16 16 4 -1
BITMAP
6000
7000
73FE
73FE
E3FE
E000
E000
E000
E000
F800
F800
FF01
F3FF
73FF
70FF
7000
ENDCHAR
STARTCHAR 306C
ENCODING 12396
SWIDTH 1000 0
DWIDTH 24 0
BBX 19 17 2 -2
BITMAP
00E000
00E000
00E000
30E000
33FC00
3FFE00
3FDF00
3DC780
3DC380
7F8380
6F8380
6F9F80
E7BF80
6FF7C0
7FF7E0
7D7FC0
183C40
ENDCHAR
STARTCHAR 306D
ENCODING 12397
SWIDTH 1000 0
DWIDTH 24 0
BBX 19 19 3 -2
BITMAP
100000
1C0000
1C0000
1E0000
1F3C00
7EFE00
FFFF00
FFC700
DF0380
3E0380
3C0380
7C0380
7C7F80
FCFF80
FDC7C0
5DFFE0
1CFCC0
1C7800
100000
ENDCHAR
STARTCHAR 306E
ENCODING 12398
SWIDTH 1000 0
DWIDTH 24 0
BBX 18 14 3 0
BITMAP
07FC00
0FFF00
3EEF80
38E380
70E3C0
71C1C0
E1C1C0
E381C0
E383C0
E70380
7F0780
7E3F00
3C1E00
000800
ENDCHAR
STARTCHAR 306F
ENCODING 12399
SWIDTH 1000 0
DWIDTH 24 0
BBX 17 17 3 -1
BITMAP
403800
783800
783800
703F00
73FF00
73FF00
63F800
E03800
E03800
E03800
EC3800
F8FC00
79FF00
7BFF80
7BBB80
73F900
31F000
ENDCHAR
STARTCHAR 3070
ENCODING 12400
SWIDTH 1000 0
DWIDTH 24 0
BBX 19 21 2 -1
BITMAP
0000C0
0002E0
000760
0033A0
703980
703900
703B00
E7FF00
E7FF00
E7FC00
E03800
E03800
E03800
F03800
F8F800
F3FE00
F7FF00
F73F80
77FB00
73F100
61E000
ENDCHAR
STARTCHAR 3071
ENCODING 12401
SWIDTH 1000 0
DWIDTH 24 0
BBX 20 21 2 -2
BITMAP
0000E0
0001F0
0001B0
0031B0
7039F0
7838E0
703900
73FF00
73FF80
63FC00
E03800
E03800
E03800
E83800
F87800
79FE00
7BFF80
7BBFC0
73F980
7BF800
20F000
ENDCHAR
STARTCHAR 3072
ENCODING 12402
SWIDTH 1000 0
DWIDTH 24 0
BBX 17 18 3 -1
BITMAP
041800
1E3C00
FF1C00
7E1E00
7C1E00
3C1F00
381F80
381F00
701D00
701800
701800
703800
703800
707000
387000
3FE000
1FC000
0F8000
ENDCHAR
STARTCHAR 3073
ENCODING 12403
SWIDTH 1000 0
DWIDTH 24 0
BBX 20 21 2 -1
BITMAP
0000C0
000360
0003B0
0419A0
3E3C80
FF3C00
FE1E00
5C1E00
381F80
381F80
301F80
701D00
701800
701800
703800
703800
707000
387000
3FE000
1FC000
0F8000
ENDCHAR
STARTCHAR 3074
ENCODING 12404
SWIDTH 1000 0
DWIDTH 24 0
BBX 20 21 2 -2
BITMAP
0000C0
0001E0
000330
041B30
1E3DE0
FF3CC0
FE1E00
7C1E00
1C1F00
381F80
381F80
301D00
701800
701800
703800
703800
707000
387000
3FE000
1FC000
0F8000
ENDCHAR
STARTCHAR 3075
ENCODING 12405
SWIDTH 1000 0
DWIDTH 24 0
BBX 18 19 3 -2
BITMAP
010000
03C000
03F000
00F000
01E000
01C000
000000
030000
03C000
03E000
00F300
407780
EE7BC0
FC39C0
7838C0
723800
23F800
03F000
01E000
ENDCHAR
STARTCHAR 3076
ENCODING 12406
SWIDTH 1000 0
DWIDTH 24 0
BBX 19 20 3 -1
BITMAP
000180
0106C0
03C760
03F300
00F200
01E000
018000
000000
030000
03C000
03E000
00E300
C0F780
EC7BC0
FC79C0
783980
727800
23F800
03F000
01E000
ENDCHAR
STARTCHAR 3077
ENCODING 12407
SWIDTH 1000 0
DWIDTH 24 0
BBX 19 20 3 -2
BITMAP
0003C0
0007C0
038660
03F7C0
01F3C0
01E000
01C000
000000
030000
038000
03C000
01E300
40F780
EC7BC0
FC39E0
7838C0
723880
23F800
03F000
01E000
ENDCHAR
STARTCHAR 3078
ENCODING 12408
SWIDTH 1000 0
DWIDTH 24 0
BBX 19 9 2 2
BITMAP
010000
07C000
0FE000
1EF000
383C00
F81F00
700FE0
2003E0
0000E0
ENDCHAR
STARTCHAR 3079
ENCODING 12409
SWIDTH 1000 0
DWIDTH 24 0
BBX 20 12 2 2
BITMAP
000080
0001E0
000270
0103A0
07C180
0FE000
1EF000
383C00
F81F00
700FE0
2003E0
0000E0
ENDCHAR
STARTCHAR 307A
ENCODING 12410
SWIDTH 1000 0
DWIDTH 24 0
BBX 19 12 2 2
BITMAP
000100
0003C0
0006C0
0006C0
0783C0
0FE000
1CF000
387C00
F03F00
700FC0
2007E0
0001C0
ENDCHAR
STARTCHAR 307B
ENCODING 12411
SWIDTH 1000 0
DWIDTH 24 0
BBX 17 18 3 -2
BITMAP
000600
73FE00
73FE00
73F800
603800
E03B00
E7FF00
E7FF00
E7F800
E03800
F03800
F87800
F3FE00
F7FF00
773F80
77FB80
73F100
21E000
ENDCHAR
STARTCHAR 307C
ENCODING 12412
SWIDTH 1000 0
DWIDTH 24 0
BBX 22 18 1 -2
BITMAP
000600
73FE30
73FE98
73F8DC
703868
703B40
67FF00
67FF00
E7FC00
E03800
E03800
F87800
7BFE00
77FF80
773FC0
77F980
33F800
21E000
ENDCHAR
STARTCHAR 307D
ENCODING 12413
SWIDTH 1000 0
DWIDTH 24 0
BBX 21 18 2 -2
BITMAP
4004F0
73FCF8
73FF98
71F8F8
6038F0
E03F00
E7FF00
E7FF00
E7F800
E03800
F03800
F87800
F3FE00
F7FF00
773F80
77FB00
73F100
21E000
ENDCHAR
STARTCHAR 307E
ENCODING 12414
SWIDTH 1000 0
DWIDTH 24 0
BBX 13 19 5 -3
BITMAP
0400
0700
0700
0770
7FF0
7FF0
7F00
0700
7FE0
7FE0
7FC0
0700
0700
3FC0
7FF0
E7F8
E738
7F18
7E00
ENDCHAR
STARTCHAR 307F
ENCODING 12415
SWIDTH 1000 0
DWIDTH 24 0
BBX 18 16 3 -1
BITMAP
0FC000
1FE000
1FC000
19C800
018E00
038E00
07CE00
1FFE00
7FFE00
761F00
EE1FC0
EC1FC0
FC3980
FC7880
787000
003000
ENDCHAR
STARTCHAR 3080
ENCODING 12416
SWIDTH 1000 0
DWIDTH 24 0
BBX 18 18 3 -2
BITMAP
070000
070000
076000
7FE700
3FE780
0703C0
0701C0
3F0080
7F0000
FF0000
E70000
E70000
FF0780
7E0700
3E0700
070F00
07FE00
03FC00
ENDCHAR
STARTCHAR 3081
ENCODING 12417
SWIDTH 1000 0
DWIDTH 24 0
BBX 18 17 3 -1
BITMAP
00E000
00E000
00E000
31F000
3FFE00
3FFF00
3DCF80
7DC3C0
7F81C0
EF81C0
EF01C0
E701C0
EF83C0
FFC780
7D9F80
390E00
000C00
ENDCHAR
STARTCHAR 3082
ENCODING 12418
SWIDTH 1000 0
DWIDTH 24 0
BBX 13 20 6 -3
BITMAP
1000
1E00
1E00
1C00
FF80
FF80
3F80
1C00
DC00
FF00
FF30
7F70
3838
3838
3838
3838
3C70
1FF0
0FE0
0100
ENDCHAR
STARTCHAR 3083
ENCODING 12419
SWIDTH 1000 0
DWIDTH 24 0
BBX 15 15 5 -2
BITMAP
0200
0700
6380
71F8
37FC
3FCC
7CCE
FC1E
7CFC
0EF8
0E00
0700
0700
0380
0200
ENDCHAR
STARTCHAR 3084
ENCODING 12420
SWIDTH 1000 0
DWIDTH 24 0
BBX 18 18 3 -1
BITMAP
00C000
11E000
78E000
38FF00
38FF80
1FFFC0
1FF9C0
7F31C0
FE01C0
771FC0
673F80
07BF00
038000
03C000
01C000
01E000
00E000
008000
ENDCHAR
STARTCHAR 3085
ENCODING 12421
SWIDTH 1000 0
DWIDTH 24 0
BBX 14 15 5 -3
BITMAP
0180
6180
71C0
E7F0
EFF8
FDBC
F99C
F19C
F59C
EFF8
67F0
63E0
4780
0F00
0600
ENDCHAR
STARTCHAR 3086
ENCODING 12422
SWIDTH 1000 0
DWIDTH 24 0
BBX 17 18 3 -2
BITMAP
007000
707000
707800
71FE00
77FF00
7F7780
EE7380
FC7380
F87380
F97380
737780
73FF00
73FE00
70FC00
61E000
01C000
07C000
018000
ENDCHAR
STARTCHAR 3087
ENCODING 12423
SWIDTH 1000 0
DWIDTH 24 0
BBX 10 14 7 -1
BITMAP
0C00
0C00
0C40
0FC0
0FC0
0C00
0C00
0C00
1C00
7F80
FFC0
CDC0
FCC0
7800
ENDCHAR
STARTCHAR 3088
ENCODING 12424
SWIDTH 1000 0
DWIDTH 24 0
BBX 14 18 5 -2
BITMAP
0600
0700
0700
0710
07F0
07F0
07E0
0700
0700
0700
0700
1F80
7FE0
7FF0
E77C
7F38
7F10
3C00
ENDCHAR
STARTCHAR 3089
ENCODING 12425
SWIDTH 1000 0
DWIDTH 24 0
BBX 12 20 6 -2
BITMAP
1800
1C00
1E00
0F00
0600
7000
7000
7000
7000
7000
77C0
7FE0
FCF0
7070
2070
0070
00F0
0FE0
0FC0
0F00
ENDCHAR
STARTCHAR 308A
ENCODING 12426
SWIDTH 1000 0
DWIDTH 24 0
BBX 11 18 6 -2
BITMAP
60C0
70C0
60E0
60E0
E0E0
E0E0
F8E0
F8E0
F0E0
F0E0
F0E0
61C0
41C0
01C0
0380
0780
0700
0300
ENDCHAR
STARTCHAR 308B
ENCODING 12427
SWIDTH 1000 0
DWIDTH 24 0
BBX 14 18 5 -1
BITMAP
27C0
3FE0
3FC0
1380
0700
0700
0FE0
1FF0
3F78
7C3C
701C
E01C
6F9C
0FDC
1CF8
0FF0
0FF0
03C0
ENDCHAR
STARTCHAR 308C
ENCODING 12428
SWIDTH 1000 0
DWIDTH 24 0
BBX 18 18 3 -3
BITMAP
1C0000
1C0000
1C0000
1E0000
1F7800
7EFC00
FFFC00
FF8C00
BE0C00
3C1C00
3C1C00
7C1C00
FC1C80
FC1CC0
DC1DC0
5C1FC0
1C0F80
1C0700
ENDCHAR
STARTCHAR 308D
ENCODING 12429
SWIDTH 1000 0
DWIDTH 24 0
BBX 14 18 5 -1
BITMAP
27C0
3FE0
3FC0
1380
0700
0700
0FE0
1FF8
3F78
781C
F01C
E01C
601C
003C
00F8
03F0
03E0
0100
ENDCHAR
STARTCHAR 308E
ENCODING 12430
SWIDTH 1000 0
DWIDTH 24 0
BBX 14 14 5 0
BITMAP
1C00
1800
1E00
7FF0
FFF8
5F3C
3C1C
381C
781C
781C
F838
18F8
1870
1C40
ENDCHAR
STARTCHAR 308F
ENCODING 12431
SWIDTH 1000 0
DWIDTH 24 0
BBX 17 18 3 -2
BITMAP
0E0000
0E0000
0F0000
0F0000
1F9C00
7FFE00
7FFF00
6F8780
1F0380
1E0380
3E0380
3E0380
7E0380
FE0700
2E1F00
0E3E00
0E1C00
0E0000
ENDCHAR
STARTCHAR 3090
ENCODING 12432
SWIDTH 1000 0
DWIDTH 24 0
BBX 17 17 3 -1
BITMAP
00E000
1FF000
0FE000
0EE000
00E000
01C000
07FC00
0FFF00
1F8F00
3F0780
770380
770380
6E7B80
EEFF80
7CCF00
7CFE00
38FC00
ENDCHAR
STARTCHAR 3091
ENCODING 12433
SWIDTH 1000 0
DWIDTH 24 0
BBX 15 19 4 -3
BITMAP
00C0
1FE0
1FF0
1FE0
03C0
07F0
0FF8
3E18
7F9C
37D8
06F8
07F8
07F0
1E00
3CF8
7FFC
F79E
E38E
4384
ENDCHAR
STARTCHAR 3092
ENCODING 12434
SWIDTH 1000 0
DWIDTH 24 0
BBX 14 19 5 -3
BITMAP
0800
0E00
0C80
7F80
7F80
7E00
3800
3F00
7FB8
7BFC
E1F8
E7E0
4FC0
0FC0
1DC0
1800
1FF0
0FE0
07E0
ENDCHAR
STARTCHAR 3093
ENCODING 12435
SWIDTH 1000 0
DWIDTH 24 0
BBX 16 18 4 -1
BITMAP
0180
01C0
0380
0380
0700
0700
0600
0E00
0F00
1F80
1FC0
3CC2
38E7
78E7
70EF
E07E
E07C
2038
ENDCHAR
STARTCHAR 30A1
ENCODING 12449
SWIDTH 1000 0
DWIDTH 24 0
BBX 12 13 6 -1
BITMAP
FFF0
FFF0
0070
0EE0
0FE0
0F80
0F00
0E00
0C00
1C00
3C00
7800
3000
ENDCHAR
STARTCHAR 30A2
ENCODING 12450
SWIDTH 1000 0
DWIDTH 24 0
BBX 15 17 5 -2
BITMAP
FFFC
FFFE
FFFE
001E
073C
0778
07F0
07E0
0780
0700
0700
0E00
0E00
1E00
7C00
7800
3000
ENDCHAR
STARTCHAR 30A3
ENCODING 12451
SWIDTH 1000 0
DWIDTH 24 0
BBX 10 15 7 -1
BITMAP
0080
01C0
03C0
0780
0F00
1E00
3E00
FE00
EE00
0E00
0E00
0E00
0E00
0E00
0E00
ENDCHAR
STARTCHAR 30A4
ENCODING 12452
SWIDTH 1000 0
DWIDTH 24 0
BBX 13 18 5 -2
BITMAP
0010
0038
0078
00F0
01E0
03C0
0780
1F80
3F80
FB80
F380
4380
0380
0380
0380
0380
0380
0380
ENDCHAR
STARTCHAR 30A5
ENCODING 12453
SWIDTH 1000 0
DWIDTH 24 0
BBX 12 14 6 -1
BITMAP
0700
0700
FFF0
FFF0
E030
E070
E070
E070
00E0
00E0
01C0
0780
0F00
0600
ENDCHAR
STARTCHAR 30A6
ENCODING 12454
SWIDTH 1000 0
DWIDTH 24 0
BBX 15 19 5 -2
BITMAP
0380
0380
0380
FFFE
FFFE
FFFE
E00E
E00E
E00E
E01C
001C
003C
0078
00F8
01F0
07E0
07C0
0700
0200
ENDCHAR
STARTCHAR 30A7
ENCODING 12455
SWIDTH 1000 0
DWIDTH 24 0
BBX 13 10 5 0
BITMAP
7FF0
7FF0
0700
0700
0700
0700
0700
0700
FFF8
FFF8
ENDCHAR
STARTCHAR 30A8
ENCODING 12456
SWIDTH 1000 0
DWIDTH 24 0
BBX 16 12 4 1
BITMAP
7FFC
7FFC
7FFC
0380
0380
0380
0380
0380
0380
FFFF
FFFF
FFFF
ENDCHAR
STARTCHAR 30A9
ENCODING 12457
SWIDTH 1000 0
DWIDTH 24 0
BBX 12 15 6 -2
BITMAP
0380
0380
0380
7FF0
7FF0
0780
0F80
1F80
3F80
7B80
F380
6380
0F80
0700
0400
ENDCHAR
STARTCHAR 30AA
ENCODING 12458
SWIDTH 1000 0
DWIDTH 24 0
BBX 15 17 5 -1
BITMAP
00E0
00E0
00E0
7FFE
7FFE
7FFE
03E0
07E0
0FE0
1EE0
3EE0
FCE0
F0E0
E0E0
07E0
07E0
03C0
ENDCHAR
STARTCHAR 30AB
ENCODING 12459
SWIDTH 1000 0
DWIDTH 24 0
BBX 14 18 5 -2
BITMAP
0700
0700
0700
0700
7FFC
7FFC
7FFC
071C
071C
071C
0F1C
0E1C
1E1C
3C1C
7838
F0F8
E0F8
40E0
ENDCHAR
STARTCHAR 30AC
ENCODING 12460
SWIDTH 1000 0
DWIDTH 24 0
BBX 20 19 2 -1
BITMAP
0000C0
038070
0383B0
0381C0
038080
3FFE00
3FFE00
3FFE00
038E00
038E00
038E00
070E00
070E00
0E0E00
1E0E00
3C1C00
F87C00
707C00
207800
ENDCHAR
STARTCHAR 30AD
ENCODING 12461
SWIDTH 1000 0
DWIDTH 24 0
BBX 14 18 5 -2
BITMAP
0E00
0E00
0E00
07F8
3FF8
7FF8
7F00
0700
073C
0FFC
FFFC
FFC0
E380
0380
0380
0380
0380
01C0
ENDCHAR
STARTCHAR 30AE
ENCODING 12462
SWIDTH 1000 0
DWIDTH 24 0
BBX 18 20 3 -2
BITMAP
000380
000D80
0E0EC0
0E0680
070200
077800
1FF800
7FF800
7F0000
070000
039C00
07FC00
FFFE00
FFE000
F38000
038000
038000
03C000
01C000
01C000
ENDCHAR
STARTCHAR 30AF
ENCODING 12463
SWIDTH 1000 0
DWIDTH 24 0
BBX 14 18 5 -2
BITMAP
0200
0780
0700
0FF8
1FFC
3FFC
783C
F038
E078
40F0
00E0
01E0
03C0
0F80
1F00
7E00
7800
3000
ENDCHAR
STARTCHAR 30B0
ENCODING 12464
SWIDTH 1000 0
DWIDTH 24 0
BBX 20 19 2 -2
BITMAP
0000C0
0300E0
038370
0781A0
07F980
0FFC00
1FFE00
3C1C00
F83C00
703800
207800
00F000
01E000
03E000
07C000
0F8000
3F0000
3C0000
180000
ENDCHAR
STARTCHAR 30B1
ENCODING 12465
SWIDTH 1000 0
DWIDTH 24 0
BBX 17 19 4 -2
BITMAP
060000
070000
0E0000
0FFF80
1FFF80
3FFF80
787000
F07000
E07000
607000
00E000
00E000
01E000
01C000
038000
078000
0F0000
060000
040000
ENDCHAR
STARTCHAR 30B2
ENCODING 12466
SWIDTH 1000 0
DWIDTH 24 0
BBX 21 20 2 -2
BITMAP
000060
000130
0701B8
0700D0
0E0080
1FFF00
1FFF00
3FFF00
787000
F07000
E07000
407000
00E000
00E000
01C000
03C000
078000
0F0000
0E0000
040000
ENDCHAR
STARTCHAR 30B3
ENCODING 12467
SWIDTH 1000 0
DWIDTH 24 0
BBX 13 13 6 -1
BITMAP
FFF8
FFF8
FFF8
0038
0038
0038
0038
0038
0038
FFF8
FFF8
FFF8
0038
ENDCHAR
STARTCHAR 30B4
ENCODING 12468
SWIDTH 1000 0
DWIDTH 24 0
BBX 18 18 3 0
BITMAP
000100
000180
000EC0
000780
000300
FFFA00
FFF800
FFF800
003800
003800
003800
003800
003800
003800
FFF800
FFF800
FFF800
003800
ENDCHAR
STARTCHAR 30B5
ENCODING 12469
SWIDTH 1000 0
DWIDTH 24 0
BBX 17 18 3 -2
BITMAP
0E1C00
0E1C00
0E1C00
0E1C00
FFFF80
FFFF80
FFFF80
0E1C00
0E1C00
0E1C00
0E3800
0E3800
007800
00F000
01F000
03E000
03C000
018000
ENDCHAR
STARTCHAR 30B6
ENCODING 12470
SWIDTH 1000 0
DWIDTH 24 0
BBX 21 20 1 -1
BITMAP
000030
0000B8
0E1CD8
0E1CF0
0E1C40
0E1C00
FFFF80
FFFF80
FFFF80
0E1C00
0E1C00
0E1C00
0E3800
0E3800
007800
00F000
01E000
03E000
03C000
010000
ENDCHAR
STARTCHAR 30B7
ENCODING 12471
SWIDTH 1000 0
DWIDTH 24 0
BBX 16 16 4 0
BITMAP
1800
3E00
0F00
0600
6002
F007
7C0F
381E
103C
00F8
01F0
07C0
1F80
7E00
3C00
3000
ENDCHAR
STARTCHAR 30B8
ENCODING 12472
SWIDTH 1000 0
DWIDTH 24 0
BBX 18 18 3 -1
BITMAP
000100
000B80
180DC0
1E0680
0F0600
060000
600200
F00700
7C0F00
381E00
183C00
00F800
01F000
07C000
1F8000
7F0000
3C0000
300000
ENDCHAR
STARTCHAR 30B9
ENCODING 12473
SWIDTH 1000 0
DWIDTH 24 0
BBX 14 14 5 -1
BITMAP
7FC0
7FE0
7FF0
00F0
00E0
01C0
03C0
07E0
0FF0
1E78
3C3C
F81C
F01C
4008
ENDCHAR
STARTCHAR 30BA
ENCODING 12474
SWIDTH 1000 0
DWIDTH 24 0
BBX 18 18 3 -1
BITMAP
000100
000380
000DC0
0006C0
3FE780
3FE200
3FF000
007000
00F000
00E000
01C000
03E000
07F000
0F7800
3E3C00
FC1E00
F00C00
600800
ENDCHAR
STARTCHAR 30BB
ENCODING 12475
SWIDTH 1000 0
DWIDTH 24 0
BBX 16 17 4 -2
BITMAP
0E00
0E00
0E00
0E04
0E7F
0FFF
FFFF
7F0E
7E1E
0E3C
0E38
0E10
0E00
0E00
0FFF
0FFF
07FF
ENDCHAR
STARTCHAR 30BC
ENCODING 12476
SWIDTH 1000 0
DWIDTH 24 0
BBX 20 19 2 -1
BITMAP
0000E0
000370
0E03B0
0E01E0
0E0080
0E0400
0E7F00
0FFF00
FFFF00
7F0E00
7E1E00
0E3C00
0E3800
0E1000
0E0000
0E0000
0FFF00
0FFF00
07FF00
ENDCHAR
STARTCHAR 30BD
ENCODING 12477
SWIDTH 1000 0
DWIDTH 24 0
BBX 15 16 5 -1
BITMAP
0008
C01E
E01C
F01C
703C
3838
2078
0070
00F0
00E0
01C0
03C0
0780
0F00
1E00
0C00
ENDCHAR
STARTCHAR 30BE
ENCODING 12478
SWIDTH 1000 0
DWIDTH 24 0
BBX 20 20 2 -2
BITMAP
000040
0000E0
000370
0001B0
4008C0
E00E80
F01C00
701C00
781C00
383800
103800
007000
00F000
00E000
01E000
03C000
078000
0F0000
1E0000
0C0000
ENDCHAR
STARTCHAR 30BF
ENCODING 12479
SWIDTH 1000 0
DWIDTH 24 0
BBX 14 19 5 -1
BITMAP
0200
0780
0700
0FF0
1FFC
3FFC
783C
F838
F478
4F70
07F0
03E0
03E0
07F0
0FF8
3E70
FC20
7800
2000
ENDCHAR
STARTCHAR 30C0
ENCODING 12480
SWIDTH 1000 0
DWIDTH 24 0
BBX 20 20 2 -1
BITMAP
0000C0
0300E0
038370
0781A0
07F980
0FFC00
1FFE00
3C1C00
781C00
F23800
677800
07F000
03E000
01E000
03F000
0FF800
1F3000
7E2000
380000
300000
ENDCHAR
STARTCHAR 30C1
ENCODING 12481
SWIDTH 1000 0
DWIDTH 24 0
BBX 17 19 3 -2
BITMAP
001E00
0FFE00
1FFC00
1FE000
00E000
00E000
FFFF80
FFFF80
FFFF80
00E000
00E000
01E000
01C000
03C000
078000
0F0000
3E0000
1C0000
080000
ENDCHAR
STARTCHAR 30C2
ENCODING 12482
SWIDTH 1000 0
DWIDTH 24 0
BBX 20 19 2 -2
BITMAP
003C00
0FFC60
3FF930
3FC1D0
01C0E0
01C000
FFFF00
FFFF00
FFFF00
01C000
01C000
03C000
038000
078000
0F0000
1E0000
7C0000
380000
100000
ENDCHAR
STARTCHAR 30C3
ENCODING 12483
SWIDTH 1000 0
DWIDTH 24 0
BBX 14 13 5 -2
BITMAP
0200
4618
E71C
7738
7338
3070
0070
00E0
01C0
03C0
0780
1F00
0E00
ENDCHAR
STARTCHAR 30C4
ENCODING 12484
SWIDTH 1000 0
DWIDTH 24 0
BBX 16 16 4 -1
BITMAP
0700
C707
E387
738F
738E
711E
201C
003C
0038
0070
00F0
01E0
03C0
0F80
0F00
0600
ENDCHAR
STARTCHAR 30C5
ENCODING 12485
SWIDTH 1000 0
DWIDTH 24 0
BBX 20 19 2 -1
BITMAP
000060
000170
0003B0
0701C0
C704C0
E70E00
E38E00
739E00
731C00
603C00
003800
007800
00F000
00E000
01E000
07C000
0F8000
1F0000
0C0000
ENDCHAR
STARTCHAR 30C6
ENCODING 12486
SWIDTH 1000 0
DWIDTH 24 0
BBX 16 18 4 -3
BITMAP
3FF8
3FF8
3FF8
0000
0000
FFFF
FFFF
FFFF
01C0
01C0
01C0
03C0
0380
0780
0F00
1E00
3C00
1800
ENDCHAR
STARTCHAR 30C7
ENCODING 12487
SWIDTH 1000 0
DWIDTH 24 0
BBX 20 21 2 -2
BITMAP
000040
000060
000370
3FF9A0
3FF980
3FF800
000000
000000
FFFF00
FFFF00
FFFF00
038000
038000
038000
038000
078000
070000
0F0000
1E0000
3C0000
180000
ENDCHAR
STARTCHAR 30C8
ENCODING 12488
SWIDTH 1000 0
DWIDTH 24 0
BBX 8 18 8 -2
BITMAP
E0
E0
E0
E0
E0
E0
F8
FE
FF
E7
E2
E0
E0
E0
E0
E0
E0
E0
ENDCHAR
STARTCHAR 30C9
ENCODING 12489
SWIDTH 1000 0
DWIDTH 24 0
BBX 12 18 6 -1
BITMAP
00C0
E260
E370
E1A0
E180
E000
E000
F800
FE00
FF00
E700
E200
E000
E000
E000
E000
E000
E000
ENDCHAR
STARTCHAR 30CA
ENCODING 12490
SWIDTH 1000 0
DWIDTH 24 0
BBX 17 18 3 -2
BITMAP
01C000
01C000
01C000
01C000
FFFF80
FFFF80
FFFF80
01C000
01C000
01C000
01C000
038000
038000
078000
0F0000
1E0000
1C0000
080000
ENDCHAR
STARTCHAR 30CB
ENCODING 12491
SWIDTH 1000 0
DWIDTH 24 0
BBX 15 13 4 1
BITMAP
3FF8
3FF8
3FF8
0000
0000
0000
0000
0000
0000
0000
FFFE
FFFE
FFFE
ENDCHAR
STARTCHAR 30CC
ENCODING 12492
SWIDTH 1000 0
DWIDTH 24 0
BBX 13 16 6 -2
BITMAP
7FE0
7FF0
7FF8
0070
0070
18E0
3DE0
1FC0
0FC0
07C0
0FE0
1FF0
3CF0
F870
F020
E000
ENDCHAR
STARTCHAR 30CD
ENCODING 12493
SWIDTH 1000 0
DWIDTH 24 0
BBX 16 20 4 -3
BITMAP
0380
0380
0380
7FF0
7FF0
7FF8
0078
00F0
01E0
03D0
0F9C
3F9E
FF8F
FB87
4382
0380
0380
0380
0380
0380
ENDCHAR
STARTCHAR 30CE
ENCODING 12494
SWIDTH 1000 0
DWIDTH 24 0
BBX 12 16 6 -1
BITMAP
0030
0070
0070
00F0
00E0
01E0
01C0
0380
0780
0700
0E00
1E00
7C00
F800
F000
6000
ENDCHAR
STARTCHAR 30CF
ENCODING 12495
SWIDTH 1000 0
DWIDTH 24 0
BBX 18 11 3 2
BITMAP
000800
071C00
071C00
0F0E00
0E0F00
1E0700
1C0780
3C0380
780380
F003C0
600100
ENDCHAR
STARTCHAR 30D0
ENCODING 12496
SWIDTH 1000 0
DWIDTH 24 0
BBX 20 15 2 1
BITMAP
000040
0000E0
000370
0001B0
0419C0
073800
071C00
0E0E00
0E0E00
1C0700
3C0700
380780
780380
F00380
600300
ENDCHAR
STARTCHAR 30D1
ENCODING 12497
SWIDTH 1000 0
DWIDTH 24 0
BBX 19 16 3 0
BITMAP
0001C0
0003E0
000360
000360
0013E0
0739C0
0E3C00
0E1C00
1E0E00
1C0E00
3C0700
380700
700780
F00380
E00300
400000
ENDCHAR
STARTCHAR 30D2
ENCODING 12498
SWIDTH 1000 0
DWIDTH 24 0
BBX 13 16 6 -1
BITMAP
E000
E000
E060
E1F0
E7E0
FFC0
FE00
F800
E000
E000
E000
E000
E000
FFF8
FFF0
7FF0
ENDCHAR
STARTCHAR 30D3
ENCODING 12499
SWIDTH 1000 0
DWIDTH 24 0
BBX 16 19 4 -1
BITMAP
0006
0017
001B
E01D
E00C
E060
E0F0
E3F0
FFC0
FF00
F800
E000
E000
E000
E000
E000
FFF8
FFF8
7FF0
ENDCHAR
STARTCHAR 30D4
ENCODING 12500
SWIDTH 1000 0
DWIDTH 24 0
BBX 16 19 4 -2
BITMAP
000E
001F
001B
E01F
E00E
E060
E0F0
E7F0
FFC0
FF00
F800
E000
E000
E000
E000
E000
FFF8
FFF8
7FF8
ENDCHAR
STARTCHAR 30D5
ENCODING 12501
SWIDTH 1000 0
DWIDTH 24 0
BBX 14 16 5 -2
BITMAP
FFF0
FFFC
FFFC
001C
003C
0038
0078
0070
00F0
01E0
03C0
0780
1F00
7E00
3C00
1000
ENDCHAR
STARTCHAR 30D6
ENCODING 12502
SWIDTH 1000 0
DWIDTH 24 0
BBX 19 21 2 -2
BITMAP
000080
0001C0
0002E0
000360
000380
FFF900
FFFC00
FFFE00
001E00
001C00
001C00
003800
007800
007000
00F000
01E000
07C000
0F8000
3F0000
1C0000
080000
ENDCHAR
STARTCHAR 30D7
ENCODING 12503
SWIDTH 1000 0
DWIDTH 24 0
BBX 18 20 3 -2
BITMAP
000380
0007C0
0006C0
0006C0
FFFFC0
FFFF80
FFFE00
001C00
003C00
003800
007800
007800
00F000
01E000
03C000
07C000
1F8000
3E0000
3C0000
180000
ENDCHAR
STARTCHAR 30D8
ENCODING 12504
SWIDTH 1000 0
DWIDTH 24 0
BBX 18 10 3 1
BITMAP
060000
0F0000
1FC000
3DE000
78F000
F07C00
E01F00
400FC0
0003C0
000080
ENDCHAR
STARTCHAR 30D9
ENCODING 12505
SWIDTH 1000 0
DWIDTH 24 0
BBX 18 12 3 2
BITMAP
000380
000DC0
060EC0
0F0700
1FC200
3DE000
78F000
F07C00
E01F00
400FC0
0003C0
000080
ENDCHAR
STARTCHAR 30DA
ENCODING 12506
SWIDTH 1000 0
DWIDTH 24 0
BBX 18 13 3 1
BITMAP
000700
000F80
000D80
060D80
0F0700
1F8000
39E000
70F000
E07C00
E01F00
400FC0
0003C0
000180
ENDCHAR
STARTCHAR 30DB
ENCODING 12507
SWIDTH 1000 0
DWIDTH 24 0
BBX 17 18 4 -1
BITMAP
01C000
01C000
01C000
7FFF00
7FFF00
7FFF00
01C000
09C800
1DDC00
1DCE00
39CF00
79C700
F1C780
61C300
61C200
07C000
07C000
030000
ENDCHAR
STARTCHAR 30DC
ENCODING 12508
SWIDTH 1000 0
DWIDTH 24 0
BBX 19 20 3 -1
BITMAP
000180
0004E0
01C740
01C380
01C100
01C000
7FFF00
7FFF00
7FFF00
01C000
19CC00
1DDE00
39CE00
39C700
71C780
F1C300
61C200
07C000
07C000
038000
ENDCHAR
STARTCHAR 30DD
ENCODING 12509
SWIDTH 1000 0
DWIDTH 24 0
BBX 18 21 3 -2
BITMAP
000380
0007C0
0006C0
01C6C0
01C7C0
01C380
01C000
7FFF00
7FFF00
7FFF00
01C000
19CC00
1DDE00
39CE00
79C700
71C780
F1C300
61C200
07C000
07C000
038000
ENDCHAR
STARTCHAR 30DE
ENCODING 12510
SWIDTH 1000 0
DWIDTH 24 0
BBX 16 13 4 -1
BITMAP
FFFC
FFFF
FFFF
001E
001C
0838
1E78
0FF0
07E0
03C0
01E0
00F0
00C0
ENDCHAR
STARTCHAR 30DF
ENCODING 12511
SWIDTH 1000 0
DWIDTH 24 0
BBX 10 17 7 -2
BITMAP
2000
3C00
7F00
0F80
0300
6100
7C00
7F00
0F00
0600
0000
F800
FE00
3F80
0FC0
0380
0080
ENDCHAR
STARTCHAR 30E0
ENCODING 12512
SWIDTH 1000 0
DWIDTH 24 0
BBX 18 15 3 0
BITMAP
018000
01C000
01C000
03C000
038000
078000
070000
070C00
0E1E00
0E0E00
1C0700
1C1F80
FFFF80
FFFDC0
7F8180
ENDCHAR
STARTCHAR 30E1
ENCODING 12513
SWIDTH 1000 0
DWIDTH 24 0
BBX 14 15 5 0
BITMAP
0018
001C
003C
0038
0E78
0FF0
07E0
01E0
03F0
07F8
0F38
3E30
7C00
F800
7000
ENDCHAR
STARTCHAR 30E2
ENCODING 12514
SWIDTH 1000 0
DWIDTH 24 0
BBX 16 16 4 -2
BITMAP
3FFC
3FFC
3FFC
0380
0380
FFFF
FFFF
FFFF
0380
0380
0380
0380
0380
03FE
03FE
01FE
ENDCHAR
STARTCHAR 30E3
ENCODING 12515
SWIDTH 1000 0
DWIDTH 24 0
BBX 14 15 5 -2
BITMAP
0400
1C00
1C00
1CF8
1FFC
FFB8
7E38
0E70
0660
0600
0700
0700
0700
0700
0200
ENDCHAR
STARTCHAR 30E4
ENCODING 12516
SWIDTH 1000 0
DWIDTH 24 0
BBX 16 18 4 -2
BITMAP
1C00
1E00
0E00
0E1E
0FFF
3FFF
FFEF
FF1E
C71C
0738
0718
0780
0380
0380
0380
0380
03C0
0180
ENDCHAR
STARTCHAR 30E5
ENCODING 12517
SWIDTH 1000 0
DWIDTH 24 0
BBX 14 10 5 -1
BITMAP
3FE0
3FE0
00E0
00E0
00E0
00E0
00E0
00E0
FFFC
FFFC
ENDCHAR
STARTCHAR 30E6
ENCODING 12518
SWIDTH 1000 0
DWIDTH 24 0
BBX 18 13 3 1
BITMAP
1FFC00
1FFC00
1FFC00
001C00
001C00
001C00
003C00
003C00
003C00
003800
FFFFC0
FFFFC0
FFFFC0
ENDCHAR
STARTCHAR 30E7
ENCODING 12519
SWIDTH 1000 0
DWIDTH 24 0
BBX 11 11 6 -1
BITMAP
FFE0
FFE0
00E0
00E0
7FE0
7FE0
00E0
00E0
FFE0
FFE0
00E0
ENDCHAR
STARTCHAR 30E8
ENCODING 12520
SWIDTH 1000 0
DWIDTH 24 0
BBX 13 15 6 -1
BITMAP
FFF8
FFF8
FFF8
0038
0038
FFF8
FFF8
FFF8
0038
0038
0038
FFF8
FFF8
FFF8
0038
ENDCHAR
STARTCHAR 30E9
ENCODING 12521
SWIDTH 1000 0
DWIDTH 24 0
BBX 14 18 5 -3
BITMAP
3FE0
3FE0
3FE0
0000
0000
FFF0
FFF8
FFFC
003C
0038
0078
00F0
00E0
01E0
07C0
0F80
1F00
0C00
ENDCHAR
STARTCHAR 30EA
ENCODING 12522
SWIDTH 1000 0
DWIDTH 24 0
BBX 10 18 7 -2
BITMAP
E1C0
E1C0
E1C0
E1C0
E1C0
E1C0
E1C0
E1C0
E1C0
E1C0
E380
0380
0780
0700
0F00
1E00
1C00
0800
ENDCHAR
STARTCHAR 30EB
ENCODING 12523
SWIDTH 1000 0
DWIDTH 24 0
BBX 18 16 3 -1
BITMAP
1CE000
1CE000
1CE000
1CE000
1CE000
1CE080
1CE0C0
1CE1C0
1CE3C0
1CE780
38E700
38FE00
78FC00
F0F800
E07000
400000
ENDCHAR
STARTCHAR 30EC
ENCODING 12524
SWIDTH 1000 0
DWIDTH 24 0
BBX 14 16 5 0
BITMAP
E000
E000
E000
E000
E000
E000
E018
E03C
E07C
E0F8
E1F0
E7C0
FF80
FE00
7800
2000
ENDCHAR
STARTCHAR 30ED
ENCODING 12525
SWIDTH 1000 0
DWIDTH 24 0
BBX 13 14 5 -1
BITMAP
FFF8
FFF8
FFF8
E038
E038
E038
E038
E038
E038
E038
FFF8
FFF8
FFF8
E038
ENDCHAR
STARTCHAR 30EE
ENCODING 12526
SWIDTH 1000 0
DWIDTH 24 0
BBX 12 13 6 -2
BITMAP
FFF0
FFF0
E070
E070
E070
E060
00E0
00E0
01C0
03C0
0780
0F00
0600
ENDCHAR
STARTCHAR 30EF
ENCODING 12527
SWIDTH 1000 0
DWIDTH 24 0
BBX 14 17 5 -2
BITMAP
FFFC
FFFC
FFFC
E01C
E01C
E01C
E01C
E03C
0038
0038
0078
00F0
00F0
03E0
07C0
0380
0300
ENDCHAR
STARTCHAR 30F0
ENCODING 12528
SWIDTH 1000 0
DWIDTH 24 0
BBX 17 19 3 -2
BITMAP
007000
007000
007000
007000
7FFF00
7FFF00
7FFF00
1C7000
1C7000
1C7000
1C7000
FFFF80
FFFF80
FFFF80
007000
007000
007000
007000
007000
ENDCHAR
STARTCHAR 30F1
ENCODING 12529
SWIDTH 1000 0
DWIDTH 24 0
BBX 17 15 3 0
BITMAP
3FFC00
3FFF00
3FFF00
000F00
000E00
01DE00
01FC00
01F800
01F000
01C000
01C000
01C000
FFFF80
FFFF80
FFFF80
ENDCHAR
STARTCHAR 30F2
ENCODING 12530
SWIDTH 1000 0
DWIDTH 24 0
BBX 14 16 5 -2
BITMAP
7FF0
7FF8
7FFC
003C
0038
FFF8
FFF8
FFF0
00F0
00E0
01E0
03C0
0F80
3F00
3E00
1800
ENDCHAR
STARTCHAR 30F3
ENCODING 12531
SWIDTH 1000 0
DWIDTH 24 0
BBX 16 15 4 0
BITMAP
6000
F000
7800
3C00
1C06
080F
001E
003C
00F8
01F0
03E0
0F80
7F00
7C00
7800
ENDCHAR
STARTCHAR 30F4
ENCODING 12532
SWIDTH 1000 0
DWIDTH 24 0
BBX 20 21 2 -1
BITMAP
0000C0
0000E0
038330
0381A0
038080
FFFE00
FFFE00
FFFE00
E00E00
E00E00
E01E00
E01C00
001C00
003C00
007800
007800
01F000
07E000
07C000
070000
020000
ENDCHAR
STARTCHAR 30F5
ENCODING 12533
SWIDTH 1000 0
DWIDTH 24 0
BBX 11 14 7 -2
BITMAP
1C00
1C00
1C00
FFE0
FFE0
1C60
1C60
1CE0
1CE0
38E0
78E0
F0C0
E3C0
C3C0
ENDCHAR
STARTCHAR 30F6
ENCODING 12534
SWIDTH 1000 0
DWIDTH 24 0
BBX 13 15 6 -3
BITMAP
0800
0C00
1C00
1FF8
3FF8
71C0
F1C0
E180
4180
0380
0380
0700
0E00
1C00
0800
ENDCHAR
STARTCHAR 30FB
ENCODING 12539
SWIDTH 1000 0
DWIDTH 24 0
BBX 4 4 10 6
BITMAP
60
F0
F0
60
ENDCHAR
STARTCHAR 30FC
ENCODING 12540
SWIDTH 1000 0
DWIDTH 24 0
BBX 21 2 2 7
BITMAP
FFFFF8
FFFFF8
ENDCHAR
STARTCHAR 3131
ENCODING 12593
SWIDTH 1000 0
DWIDTH 24 0
BBX 14 9 5 2
BITMAP
FFFC
FFFC
001C
001C
001C
001C
001C
001C
001C
ENDCHAR
STARTCHAR 3132
ENCODING 12594
SWIDTH 1000 0
DWIDTH 24 0
BBX 16 9 4 2
BITMAP
FF7F
FF7F
0707
0707
0707
0707
0707
0707
0707
ENDCHAR
STARTCHAR 3133
ENCODING 12595
SWIDTH 1000 0
DWIDTH 24 0
BBX 19 9 3 3
BITMAP
FF0E00
FF0E00
070E00
070E00
071F00
071F80
0779C0
07F0E0
076040
ENDCHAR
STARTCHAR 3134
ENCODING 12596
SWIDTH 1000 0
DWIDTH 24 0
BBX 14 9 5 2
BITMAP
E000
E000
E000
E000
E000
E000
E000
FFFC
FFFC
ENDCHAR
STARTCHAR 3135
ENCODING 12597
SWIDTH 1000 0
DWIDTH 24 0
BBX 18 9 3 3
BITMAP
E0FF00
E0FF00
E00700
E00E00
E00C00
E01E00
E03F00
FEF3C0
FEE180
ENDCHAR
STARTCHAR 3136
ENCODING 12598
SWIDTH 1000 0
DWIDTH 24 0
BBX 17 12 3 1
BITMAP
007E00
007E00
E00000
E1FF80
E1FF80
E03C00
E07F00
E0E700
E0C300
FFE700
7F7F00
003C00
ENDCHAR
STARTCHAR 3137
ENCODING 12599
SWIDTH 1000 0
DWIDTH 24 0
BBX 14 9 5 2
BITMAP
FFF8
FFF8
E000
E000
E000
E000
E000
FFFC
FFFC
ENDCHAR
STARTCHAR 3138
ENCODING 12600
SWIDTH 1000 0
DWIDTH 24 0
BBX 17 9 4 2
BITMAP
FFFF00
FFFF00
E0E000
E0E000
E0E000
E0E000
E0E000
FFFF80
FFFF80
ENDCHAR
STARTCHAR 3139
ENCODING 12601
SWIDTH 1000 0
DWIDTH 24 0
BBX 14 10 5 1
BITMAP
FFF8
FFF8
0038
0038
FFF8
FFF8
E000
E000
FFFC
FFFC
ENDCHAR
STARTCHAR 313A
ENCODING 12602
SWIDTH 1000 0
DWIDTH 24 0
BBX 16 10 4 2
BITMAP
FFFF
FFFF
0707
0707
FF07
FF07
E007
E007
FF07
FF07
ENDCHAR
STARTCHAR 313B
ENCODING 12603
SWIDTH 1000 0
DWIDTH 24 0
BBX 16 10 4 1
BITMAP
FF7F
FFFF
07E7
07E7
FFE7
FFE7
E0E7
E0E7
FFFF
FF7F
ENDCHAR
STARTCHAR 313C
ENCODING 12604
SWIDTH 1000 0
DWIDTH 24 0
BBX 15 9 4 2
BITMAP
FE66
FF66
0766
077E
FF7E
FE66
E066
FF7E
FF7E
ENDCHAR
STARTCHAR 313D
ENCODING 12605
SWIDTH 1000 0
DWIDTH 24 0
BBX 18 10 3 2
BITMAP
FE0C00
FF0C00
071C00
071C00
FF1E00
FE3F00
E03F00
E073C0
FFE1C0
FF4080
ENDCHAR
STARTCHAR 313E
ENCODING 12606
SWIDTH 1000 0
DWIDTH 24 0
BBX 16 10 4 1
BITMAP
FE7F
FF7F
0770
0770
FF7F
FE7F
E070
E170
FF7F
FF7F
ENDCHAR
STARTCHAR 313F
ENCODING 12607
SWIDTH 1000 0
DWIDTH 24 0
BBX 18 10 3 1
BITMAP
FE7FC0
FF7FC0
073300
073300
FF3300
FE3300
E03300
E0FFC0
FFFFC0
FF0000
ENDCHAR
STARTCHAR 3140
ENCODING 12608
SWIDTH 1000 0
DWIDTH 24 0
BBX 18 11 3 2
BITMAP
003F00
FF3F00
FF0000
077FC0
077FC0
FF1E00
FF3F80
E06380
FFE180
FFFF80
001F00
ENDCHAR
STARTCHAR 3141
ENCODING 12609
SWIDTH 1000 0
DWIDTH 24 0
BBX 13 9 5 2
BITMAP
7FF8
FFF8
E038
E038
E038
E038
E038
FFF8
FFF8
ENDCHAR
STARTCHAR 3142
ENCODING 12610
SWIDTH 1000 0
DWIDTH 24 0
BBX 13 10 6 2
BITMAP
0038
E038
E038
E038
FFF8
FFF8
E038
E038
FFF8
FFF8
ENDCHAR
STARTCHAR 3143
ENCODING 12611
SWIDTH 1000 0
DWIDTH 24 0
BBX 16 10 4 2
BITMAP
E7E3
E7E3
E7E3
FFFF
FFFF
E7E3
E7E3
E7E7
FF7F
FE7F
ENDCHAR
STARTCHAR 3144
ENCODING 12612
SWIDTH 1000 0
DWIDTH 24 0
BBX 18 10 3 1
BITMAP
C70C00
C70C00
C71C00
FF1C00
FF1E00
C71E00
C73F00
E77380
FFE1C0
FE4080
ENDCHAR
STARTCHAR 3145
ENCODING 12613
SWIDTH 1000 0
DWIDTH 24 0
BBX 16 10 4 3
BITMAP
01C0
0380
03C0
03E0
07E0
0E78
3C3C
F81F
F007
8000
ENDCHAR
STARTCHAR 3146
ENCODING 12614
SWIDTH 1000 0
DWIDTH 24 0
BBX 15 11 5 2
BITMAP
1C70
1C70
1C70
1C70
3E70
3FF8
77FC
E3CE
C786
0700
0200
ENDCHAR
STARTCHAR 3147
ENCODING 12615
SWIDTH 1000 0
DWIDTH 24 0
BBX 14 10 5 3
BITMAP
1FC0
3FF0
7878
E01C
E01C
E01C
E03C
7878
3FF0
0FC0
ENDCHAR
STARTCHAR 3148
ENCODING 12616
SWIDTH 1000 0
DWIDTH 24 0
BBX 16 9 4 2
BITMAP
7FFC
7FFC
003C
0078
01F0
07F0
3FFE
FC3F
E007
ENDCHAR
STARTCHAR 3149
ENCODING 12617
SWIDTH 1000 0
DWIDTH 24 0
BBX 16 10 4 1
BITMAP
3F7E
3F7E
070E
0E0C
0E1C
1FBC
7BFF
F0E7
43C1
0180
ENDCHAR
STARTCHAR 314A
ENCODING 12618
SWIDTH 1000 0
DWIDTH 24 0
BBX 16 11 4 3
BITMAP
0FE0
0FE0
0000
7FFC
7FFE
003C
01F8
07F0
7FFF
FC1F
C001
ENDCHAR
STARTCHAR 314B
ENCODING 12619
SWIDTH 1000 0
DWIDTH 24 0
BBX 14 10 5 3
BITMAP
7FFC
7FFC
001C
001C
001C
FFFC
FFFC
001C
001C
001C
ENDCHAR
STARTCHAR 314C
ENCODING 12620
SWIDTH 1000 0
DWIDTH 24 0
BBX 13 10 5 2
BITMAP
FFF8
FFF8
E000
E000
FFF8
FFF8
E000
E000
FFF8
FFF8
ENDCHAR
STARTCHAR 314D
ENCODING 12621
SWIDTH 1000 0
DWIDTH 24 0
BBX 15 9 4 2
BITMAP
7FFE
7FFE
1C70
1C70
1C70
1C70
1C70
FFFE
FFFE
ENDCHAR
STARTCHAR 314E
ENCODING 12622
SWIDTH 1000 0
DWIDTH 24 0
BBX 14 14 5 1
BITMAP
0FE0
0FE0
0000
FFFC
FFFC
0000
07C0
1FF0
3C70
3838
3838
3C70
1FF0
07C0
ENDCHAR
STARTCHAR 314F
ENCODING 12623
SWIDTH 1000 0
DWIDTH 24 0
BBX 7 23 9 -4
BITMAP
E0
E0
E0
E0
E0
E0
E0
E0
E0
FE
FE
E0
E0
E0
E0
E0
E0
E0
E0
E0
E0
E0
E0
ENDCHAR
STARTCHAR 3150
ENCODING 12624
SWIDTH 1000 0
DWIDTH 24 0
BBX 8 23 8 -4
BITMAP
E7
E7
E7
E7
E7
E7
E7
E7
E7
FF
FF
E7
E7
E7
E7
E7
E7
E7
E7
E7
E7
E7
07
ENDCHAR
STARTCHAR 3151
ENCODING 12625
SWIDTH 1000 0
DWIDTH 24 0
BBX 7 23 9 -4
BITMAP
E0
E0
E0
E0
E0
E0
FE
FE
E0
E0
E0
E0
E0
FE
FE
E0
E0
E0
E0
E0
E0
E0
E0
ENDCHAR
STARTCHAR 3152
ENCODING 12626
SWIDTH 1000 0
DWIDTH 24 0
BBX 8 23 8 -4
BITMAP
E7
E7
E7
E7
E7
E7
FF
FF
E7
E7
E7
E7
FF
FF
E7
E7
E7
E7
E7
E7
E7
E7
07
ENDCHAR
STARTCHAR 3153
ENCODING 12627
SWIDTH 1000 0
DWIDTH 24 0
BBX 8 23 8 -4
BITMAP
07
07
07
07
07
07
07
07
07
FF
FF
07
07
07
07
07
07
07
07
07
07
07
07
ENDCHAR
STARTCHAR 3154
ENCODING 12628
SWIDTH 1000 0
DWIDTH 24 0
BBX 12 23 6 -4
BITMAP
0670
0E70
0E70
0E70
0E70
0E70
0E70
0E70
FE70
FE70
0E70
0E70
0E70
0E70
0E70
0E70
0E70
0E70
0E70
0E70
0E70
0E70
0070
ENDCHAR
STARTCHAR 3155
ENCODING 12629
SWIDTH 1000 0
DWIDTH 24 0
BBX 8 23 8 -4
BITMAP
07
07
07
07
07
07
FF
FF
07
07
07
07
FF
FF
07
07
07
07
07
07
07
07
07
ENDCHAR
STARTCHAR 3156
ENCODING 12630
SWIDTH 1000 0
DWIDTH 24 0
BBX 10 23 7 -4
BITMAP
1DC0
1DC0
1DC0
1DC0
1DC0
1DC0
FDC0
FDC0
1DC0
1DC0
1DC0
1DC0
FDC0
FDC0
1DC0
1DC0
1DC0
1DC0
1DC0
1DC0
1DC0
1DC0
01C0
ENDCHAR
STARTCHAR 3157
ENCODING 12631
SWIDTH 1000 0
DWIDTH 24 0
BBX 22 8 1 2
BITMAP
007000
007000
007000
007000
007000
007000
FFFFFC
FFFFFC
ENDCHAR
STARTCHAR 3158
ENCODING 12632
SWIDTH 1000 0
DWIDTH 24 0
BBX 22 23 1 -4
BITMAP
0000E0
0000E0
0000E0
0000E0
0000E0
0000E0
0000E0
0000E0
0000E0
0000E0
0380FC
0380FC
0380E0
0380E0
0380E0
038EE0
FFFEE0
FFFCE0
0000E0
0000E0
0000E0
0000E0
0000E0
ENDCHAR
STARTCHAR 3159
ENCODING 12633
SWIDTH 1000 0
DWIDTH 24 0
BBX 21 23 2 -4
BITMAP
000038
000738
000738
000738
000738
000738
000738
000738
000738
000738
0007F8
0707F8
070738
070738
070738
071738
FFFF38
FFF738
000738
000738
000738
000738
000038
ENDCHAR
STARTCHAR 315A
ENCODING 12634
SWIDTH 1000 0
DWIDTH 24 0
BBX 19 23 2 -4
BITMAP
0000E0
0000E0
0000E0
0000E0
0000E0
0000E0
0000E0
0000E0
0000E0
0000E0
0380E0
0380E0
0380E0
0380E0
0380E0
0386E0
FFFEE0
FFFCE0
0000E0
0000E0
0000E0
0000E0
0000E0
ENDCHAR
STARTCHAR 315B
ENCODING 12635
SWIDTH 1000 0
DWIDTH 24 0
BBX 22 8 1 0
BITMAP
038700
038700
038700
038700
038700
038700
FFFFFC
FFFFFC
ENDCHAR
STARTCHAR 315C
ENCODING 12636
SWIDTH 1000 0
DWIDTH 24 0
BBX 22 11 1 0
BITMAP
FFFFFC
FFFFFC
007000
007000
007000
007000
007000
007000
007000
007000
007000
ENDCHAR
STARTCHAR 315D
ENCODING 12637
SWIDTH 1000 0
DWIDTH 24 0
BBX 20 23 2 -4
BITMAP
000070
000070
000070
000070
000070
000070
000070
000070
000070
000070
000070
000070
00FF70
FFFF70
FFF070
038070
038FF0
038FF0
038070
038070
038070
038070
038070
ENDCHAR
STARTCHAR 315E
ENCODING 12638
SWIDTH 1000 0
DWIDTH 24 0
BBX 21 23 2 -4
BITMAP
0003B8
0003B8
0003B8
0003B8
0003B8
0003B8
0003B8
0003B8
0003B8
0003B8
0003B8
0013B8
FFFBB8
FFFBB8
0703B8
073FB8
073FB8
0703B8
0703B8
0703B8
0703B8
0003B8
000038
ENDCHAR
STARTCHAR 315F
ENCODING 12639
SWIDTH 1000 0
DWIDTH 24 0
BBX 19 23 3 -4
BITMAP
0000E0
0000E0
0000E0
0000E0
0000E0
0000E0
0000E0
0000E0
0000E0
0000E0
0000E0
0000E0
00FEE0
FFFEE0
FFF0E0
0380E0
0380E0
0380E0
0380E0
0380E0
0380E0
0380E0
0000E0
ENDCHAR
STARTCHAR 3160
ENCODING 12640
SWIDTH 1000 0
DWIDTH 24 0
BBX 22 11 1 1
BITMAP
FFFFFC
FFFFFC
038700
038700
038700
038700
038700
038700
038700
038700
038700
ENDCHAR
STARTCHAR 3161
ENCODING 12641
SWIDTH 1000 0
DWIDTH 24 0
BBX 22 2 1 6
BITMAP
FFFFFC
FFFFFC
ENDCHAR
STARTCHAR 3162
ENCODING 12642
SWIDTH 1000 0
DWIDTH 24 0
BBX 20 23 2 -4
BITMAP
000070
000070
000070
000070
000070
000070
000070
000070
000070
000070
000070
000070
000070
000070
000070
003F70
FFFF70
FFFC70
000070
000070
000070
000070
000070
ENDCHAR
STARTCHAR 3163
ENCODING 12643
SWIDTH 1000 0
DWIDTH 24 0
BBX 3 23 10 -4
BITMAP
E0
E0
E0
E0
E0
E0
E0
E0
E0
E0
E0
E0
E0
E0
E0
E0
E0
E0
E0
E0
E0
E0
E0
ENDCHAR
STARTCHAR 3164
ENCODING 12644
SWIDTH 1000 0
DWIDTH 24 0
BBX 0 0 0 0
BITMAP
ENDCHAR
STARTCHAR 3165
ENCODING 12645
SWIDTH 1000 0
DWIDTH 24 0
BBX 15 9 4 2
BITMAP
E0E0
E0E0
E0E0
E0E0
E0E0
E0E0
E0E0
FEFE
7EFE
ENDCHAR
STARTCHAR 3166
ENCODING 12646
SWIDTH 1000 0
DWIDTH 24 0
BBX 16 9 4 2
BITMAP
E07F
E0FF
E0E0
E0E0
E0E0
E0E0
E0E0
FEFF
FE7F
ENDCHAR
STARTCHAR 3167
ENCODING 12647
SWIDTH 1000 0
DWIDTH 24 0
BBX 17 9 3 3
BITMAP
E01800
E01800
E01800
E01C00
E03C00
E03E00
E07700
FFE380
FEC180
ENDCHAR
STARTCHAR 3168
ENCODING 12648
SWIDTH 1000 0
DWIDTH 24 0
BBX 17 10 3 2
BITMAP
000800
E00800
E01C00
E01C00
E03600
E03600
E06300
E06300
FEFF80
7EFF80
ENDCHAR
STARTCHAR 3169
ENCODING 12649
SWIDTH 1000 0
DWIDTH 24 0
BBX 20 10 2 3
BITMAP
FBE180
FBE180
186180
1861C0
F861C0
F863C0
C063E0
CC6770
FC6E30
200000
ENDCHAR
STARTCHAR 316A
ENCODING 12650
SWIDTH 1000 0
DWIDTH 24 0
BBX 16 9 4 2
BITMAP
FE7F
FF7F
0770
0770
FF70
FE70
E070
FF7F
FF7F
ENDCHAR
STARTCHAR 316B
ENCODING 12651
SWIDTH 1000 0
DWIDTH 24 0
BBX 20 9 2 3
BITMAP
F99980
F99980
199980
19F9C0
F9FBC0
F99BC0
C19F60
FDFE70
FDFC30
ENDCHAR
STARTCHAR 316C
ENCODING 12652
SWIDTH 1000 0
DWIDTH 24 0
BBX 18 9 3 3
BITMAP
FE0C00
FF0C00
071E00
071E00
FF3300
FE3300
E06180
FF7F80
FFFFC0
ENDCHAR
STARTCHAR 316D
ENCODING 12653
SWIDTH 1000 0
DWIDTH 24 0
BBX 18 10 3 2
BITMAP
FF7FC0
FF7FC0
070000
071F00
FF3F80
FF3180
E071C0
E03180
FFBF80
7F8E00
ENDCHAR
STARTCHAR 316E
ENCODING 12654
SWIDTH 1000 0
DWIDTH 24 0
BBX 16 9 4 2
BITMAP
FEE7
FFE7
E7E7
E7FF
E7FF
E7E7
E7E7
FF7F
FE7F
ENDCHAR
STARTCHAR 316F
ENCODING 12655
SWIDTH 1000 0
DWIDTH 24 0
BBX 18 9 3 3
BITMAP
FE0C00
FF1C00
E71C00
E71C00
E71E00
E73F00
E77F80
FFF3C0
FEE1C0
ENDCHAR
STARTCHAR 3170
ENCODING 12656
SWIDTH 1000 0
DWIDTH 24 0
BBX 18 9 3 3
BITMAP
7F0800
FF0C00
E71C00
E71E00
E73700
E73300
E76380
FF7F80
7FFFC0
ENDCHAR
STARTCHAR 3171
ENCODING 12657
SWIDTH 1000 0
DWIDTH 24 0
BBX 15 18 5 -2
BITMAP
FFFC
FFFE
E00E
E00E
E00E
E00E
E00E
FFFE
FFFC
0000
0000
0780
0FE0
1C60
1860
1CE0
0FC0
0780
ENDCHAR
STARTCHAR 3172
ENCODING 12658
SWIDTH 1000 0
DWIDTH 24 0
BBX 16 9 4 2
BITMAP
E3FF
E3FF
E307
FF07
FF07
E307
E307
7F07
7F07
ENDCHAR
STARTCHAR 3173
ENCODING 12659
SWIDTH 1000 0
DWIDTH 24 0
BBX 16 9 4 2
BITMAP
E77F
E7FF
E7E0
FFE0
FFE0
E7E0
E7E0
FFFF
FE7F
ENDCHAR
STARTCHAR 3174
ENCODING 12660
SWIDTH 1000 0
DWIDTH 24 0
BBX 18 9 3 3
BITMAP
CC67C0
CC67C0
CC60C0
FC60C0
FCF0C0
CCF0C0
CDF8C0
FF9CC0
FD08C0
ENDCHAR
STARTCHAR 3175
ENCODING 12661
SWIDTH 1000 0
DWIDTH 24 0
BBX 19 9 3 4
BITMAP
CC63E0
CC63E0
CC6300
FC7300
FCF300
CCFB00
CDDF00
FF9FC0
FD03C0
ENDCHAR
STARTCHAR 3176
ENCODING 12662
SWIDTH 1000 0
DWIDTH 24 0
BBX 18 9 3 3
BITMAP
E7FF00
E7FF00
E70700
FF0E00
FF0E00
E71E00
E77F00
FFF3C0
FEE180
ENDCHAR
STARTCHAR 3177
ENCODING 12663
SWIDTH 1000 0
DWIDTH 24 0
BBX 16 9 4 2
BITMAP
E77F
E7FF
E7E0
FFE0
FFFE
E7FE
E7E0
FFFF
FE7F
ENDCHAR
STARTCHAR 3178
ENCODING 12664
SWIDTH 1000 0
DWIDTH 24 0
BBX 14 18 5 -1
BITMAP
E01C
E01C
FFFC
FFFC
E01C
E01C
E01C
FFFC
FFFC
0000
0000
0780
0FE0
1CE0
1860
1CE0
0FC0
0780
ENDCHAR
STARTCHAR 3179
ENCODING 12665
SWIDTH 1000 0
DWIDTH 24 0
BBX 16 18 4 -2
BITMAP
C663
C663
FE7F
FE7F
C663
C663
C663
FE7F
FE7F
0000
0000
03C0
07E0
0C70
0C30
0E70
07E0
03C0
ENDCHAR
STARTCHAR 317A
ENCODING 12666
SWIDTH 1000 0
DWIDTH 24 0
BBX 15 9 5 3
BITMAP
19FE
19FE
1C0E
1C0E
3E0E
3E0E
770E
E38E
C18E
ENDCHAR
STARTCHAR 317B
ENCODING 12667
SWIDTH 1000 0
DWIDTH 24 0
BBX 18 10 3 3
BITMAP
0C1C00
0C1C00
0C1C00
1E1C00
1E1C00
1F1C00
3B9C00
73DFC0
E1DFC0
400000
ENDCHAR
STARTCHAR 317C
ENCODING 12668
SWIDTH 1000 0
DWIDTH 24 0
BBX 18 9 3 3
BITMAP
0C1FC0
0C3FC0
0C3800
1E3800
1E3800
3F3800
3BB800
F3FFC0
60DFC0
ENDCHAR
STARTCHAR 317D
ENCODING 12669
SWIDTH 1000 0
DWIDTH 24 0
BBX 18 10 3 3
BITMAP
0C19C0
0C19C0
0C19C0
1E1FC0
1E1FC0
3F19C0
3B99C0
F3DFC0
E1DFC0
400000
ENDCHAR
STARTCHAR 317E
ENCODING 12670
SWIDTH 1000 0
DWIDTH 24 0
BBX 18 9 3 3
BITMAP
187F00
187F80
1C0700
1C0700
3E0E00
3E1F00
773F80
E379C0
C06080
ENDCHAR
STARTCHAR 317F
ENCODING 12671
SWIDTH 1000 0
DWIDTH 24 0
BBX 13 10 6 3
BITMAP
0600
0600
0F00
1F80
1980
39C0
70E0
6060
FFF0
FFF8
ENDCHAR
STARTCHAR 3180
ENCODING 12672
SWIDTH 1000 0
DWIDTH 24 0
BBX 20 9 2 3
BITMAP
3E07C0
7F0FE0
E39C70
E19870
E1F870
E19870
E39C70
7F0FE0
3E07C0
ENDCHAR
STARTCHAR 3181
ENCODING 12673
SWIDTH 1000 0
DWIDTH 24 0
BBX 11 13 6 2
BITMAP
0E00
0E00
0E00
1F80
7FC0
71C0
E0E0
E0E0
E0E0
E0E0
71C0
3FC0
1F00
ENDCHAR
STARTCHAR 3182
ENCODING 12674
SWIDTH 1000 0
DWIDTH 24 0
BBX 19 10 3 2
BITMAP
1C0600
1C0E00
3E0E00
FF0E00
E38F00
C39F00
C39F80
E3B9C0
FF70E0
3E2040
ENDCHAR
STARTCHAR 3183
ENCODING 12675
SWIDTH 1000 0
DWIDTH 24 0
BBX 18 10 3 2
BITMAP
1C0000
1C0400
3E0E00
FF0E00
E39F00
C39B00
C3B180
E3B180
FF7FC0
3E7FC0
ENDCHAR
STARTCHAR 3184
ENCODING 12676
SWIDTH 1000 0
DWIDTH 24 0
BBX 17 19 4 -1
BITMAP
7FFF00
7FFF00
0E3800
0E3800
0E3800
0E3800
FFFF80
FFFF80
000000
000000
000000
000000
03E000
07F000
063000
063000
063000
07F000
01C000
ENDCHAR
STARTCHAR 3185
ENCODING 12677
SWIDTH 1000 0
DWIDTH 24 0
BBX 19 12 3 2
BITMAP
3F1F80
3F1F80
000000
FFBFE0
FFBFE0
1C0700
7F1FC0
7399C0
61B8E0
7399C0
7F1FC0
1C0700
ENDCHAR
STARTCHAR 3186
ENCODING 12678
SWIDTH 1000 0
DWIDTH 24 0
BBX 13 11 5 2
BITMAP
FFF8
FFF8
0000
0000
0F80
3FE0
78F0
7070
70F0
3FE0
0F80
ENDCHAR
STARTCHAR 3187
ENCODING 12679
SWIDTH 1000 0
DWIDTH 24 0
BBX 22 23 1 -4
BITMAP
0000E0
0000E0
0000E0
0000E0
0000E0
0000E0
0000E0
0000E0
0000FC
0000FC
0000E0
1CE0E0
1CE0E0
1CE0FC
1CE0FC
1CE6E0
FFFEE0
FFFCE0
0000E0
0000E0
0000E0
0000E0
0000E0
ENDCHAR
STARTCHAR 3188
ENCODING 12680
SWIDTH 1000 0
DWIDTH 24 0
BBX 20 23 2 -4
BITMAP
000770
000770
000770
000770
000770
000770
000770
0007F0
0007F0
000770
000770
3B8770
3B87F0
3B87F0
3B8770
3B9770
FFF770
FFF770
000770
000770
000770
000770
000070
ENDCHAR
STARTCHAR 3189
ENCODING 12681
SWIDTH 1000 0
DWIDTH 24 0
BBX 19 23 2 -4
BITMAP
0000E0
0000E0
0000E0
0000E0
0000E0
0000E0
0000E0
0000E0
0000E0
0000E0
0000E0
1CE0E0
1CE0E0
1CE0E0
1CE0E0
1CEEE0
FFFEE0
FFFCE0
0000E0
0000E0
0000E0
0000E0
0000E0
ENDCHAR
STARTCHAR 318A
ENCODING 12682
SWIDTH 1000 0
DWIDTH 24 0
BBX 19 23 3 -4
BITMAP
0000E0
0000E0
0000E0
0000E0
0000E0
0000E0
0000E0
0000E0
0000E0
0000E0
0000E0
0006E0
FFFEE0
FFFEE0
39C0E0
39CFE0
39CFE0
39C0E0
39C0E0
39CFE0
39CFE0
39C0E0
0000E0
ENDCHAR
STARTCHAR 318B
ENCODING 12683
SWIDTH 1000 0
DWIDTH 24 0
BBX 20 23 2 -4
BITMAP
000770
000770
000770
000770
000770
000770
000770
000770
000770
000770
000770
01F770
FFF770
FFC770
773F70
773F70
770770
770770
773F70
773F70
770770
770770
000070
ENDCHAR
STARTCHAR 318C
ENCODING 12684
SWIDTH 1000 0
DWIDTH 24 0
BBX 19 23 3 -4
BITMAP
0000E0
0000E0
0000E0
0000E0
0000E0
0000E0
0000E0
0000E0
0000E0
0000E0
0000E0
0000E0
03FEE0
FFFEE0
FFF0E0
1CE0E0
1CE0E0
1CE0E0
1CE0E0
1CE0E0
1CE0E0
1CE0E0
0000E0
ENDCHAR
STARTCHAR 318D
ENCODING 12685
SWIDTH 1000 0
DWIDTH 24 0
BBX 4 4 10 5
BITMAP
60
F0
F0
60
ENDCHAR
STARTCHAR 318E
ENCODING 12686
SWIDTH 1000 0
DWIDTH 24 0
BBX 9 23 7 -4
BITMAP
0380
0380
0380
0380
0380
0380
0380
0380
0380
0380
6380
F380
F380
6380
0380
0380
0380
0380
0380
0380
0380
0380
0380
ENDCHAR
STARTCHAR 3200
ENCODING 12800
SWIDTH 1000 0
DWIDTH 24 0
BBX 21 22 2 -3
BITMAP
300060
300060
600020
600030
E00030
C00030
CFFF38
CFFF18
C00718
C00718
C00718
C00718
C00718
C00718
C00718
C00738
C00730
600030
600030
600020
300060
300040
ENDCHAR
STARTCHAR 3201
ENCODING 12801
SWIDTH 1000 0
DWIDTH 24 0
BBX 21 22 2 -3
BITMAP
300060
200060
600020
600030
E00030
C70030
C70038
C70018
C70018
C70018
C70018
C70018
C70018
C7FF98
C7FF98
C00038
C00030
600030
600030
600020
300060
300040
ENDCHAR
STARTCHAR 3202
ENCODING 12802
SWIDTH 1000 0
DWIDTH 24 0
BBX 21 22 2 -3
BITMAP
300040
200060
600060
600030
C00030
C00030
CFFF38
CFFF18
CE0018
CE0018
CE0018
CE0018
CE0018
CE0018
CFFF18
CFFF38
C00030
600030
600030
600060
200060
3000C0
ENDCHAR
STARTCHAR 3203
ENCODING 12803
SWIDTH 1000 0
DWIDTH 24 0
BBX 21 22 2 -3
BITMAP
200040
200060
600060
600030
C00030
CFFF30
CFFF38
C00718
C00718
C00718
CFFF18
CFFF18
CE0018
CE0018
CFFF38
CFFF38
C00030
400030
600030
600060
200060
3000C0
ENDCHAR
STARTCHAR 3204
ENCODING 12804
SWIDTH 1000 0
DWIDTH 24 0
BBX 21 22 2 -3
BITMAP
300040
300060
600060
600030
E00030
C00030
C7FF38
C7FF18
C70718
C70718
C70718
C70718
C70718
C7FF18
C7FF38
C70738
C00030
600030
600030
600060
300060
3000C0
ENDCHAR
STARTCHAR 3205
ENCODING 12805
SWIDTH 1000 0
DWIDTH 24 0
BBX 21 22 2 -3
BITMAP
200040
600060
600060
600030
C00030
CE0730
CE0738
CE0718
CFFF18
CFFF18
CE0718
CE0718
CE0718
CFFF18
CFFF38
CE0738
C00030
C00030
600030
600060
200060
3000C0
ENDCHAR
STARTCHAR 3206
ENCODING 12806
SWIDTH 1000 0
DWIDTH 24 0
BBX 21 22 2 -3
BITMAP
300040
200060
600060
600030
E00030
C07030
C07030
C07038
C0F038
C0F038
C0F838
C1FC38
C3DE38
C78FB8
DF07B8
CE01B0
C00030
600030
600030
600060
200060
300040
ENDCHAR
STARTCHAR 3207
ENCODING 12807
SWIDTH 1000 0
DWIDTH 24 0
BBX 21 22 2 -3
BITMAP
300060
200060
600020
600030
C00030
C0F830
C3FE38
C7DF18
C70718
CE0398
CE0398
CE0398
CE0798
C78F18
C3FE18
C1FC38
C00030
600030
600030
600020
200060
300040
ENDCHAR
STARTCHAR 3208
ENCODING 12808
SWIDTH 1000 0
DWIDTH 24 0
BBX 21 22 2 -3
BITMAP
300060
200060
600020
600030
E00030
C00030
CFFFB8
CFFF98
C07018
C07018
C0F018
C0F818
C1DC18
C3DE18
CF8FB8
DF07B8
CC01B0
600030
600030
600020
300060
300040
ENDCHAR
STARTCHAR 3209
ENCODING 12809
SWIDTH 1000 0
DWIDTH 24 0
BBX 21 22 2 -4
BITMAP
300040
300060
600020
600030
E1F830
C1F830
C00038
C00018
CFFF98
CFFF98
C06018
C0F018
C0F818
C1DC18
C78F18
DF07F8
CE01B0
600030
600030
600020
300060
300060
ENDCHAR
STARTCHAR 320A
ENCODING 12810
SWIDTH 1000 0
DWIDTH 24 0
BBX 21 22 2 -3
BITMAP
300040
200060
600020
600030
E00030
C00030
CFFF38
CFFF18
C00718
C00718
C00718
CFFF18
CFFF18
CF8718
C00718
C00738
C00730
600030
600030
600060
200060
300040
ENDCHAR
STARTCHAR 320B
ENCODING 12811
SWIDTH 1000 0
DWIDTH 24 0
BBX 21 22 2 -3
BITMAP
300040
200060
600060
600030
C00030
CFFF30
CFFF38
CE0018
CE0018
CE0018
CFFF18
CFFF18
CE0018
CE0018
CFFF18
CFFF38
C00030
600030
600030
600060
200060
300040
ENDCHAR
STARTCHAR 320C
ENCODING 12812
SWIDTH 1000 0
DWIDTH 24 0
BBX 21 22 2 -3
BITMAP
300060
600060
600020
600030
C00030
CFFFB0
CFFFB8
C00018
C00018
C38E18
C38E18
C38E18
C38E18
C38E18
DFFFB8
DFFFB8
C00030
600030
600030
600060
200060
300040
ENDCHAR
STARTCHAR 320D
ENCODING 12813
SWIDTH 1000 0
DWIDTH 24 0
BBX 21 23 2 -4
BITMAP
300040
300060
600060
600030
600030
C1FC30
C1FC30
C00038
DFFFD8
DFFFD8
C00018
C00018
C1FC18
C3FE18
C70F18
C70738
C78F38
C3FE30
61FC30
600030
600060
300060
300040
ENDCHAR
STARTCHAR 320E
ENCODING 12814
SWIDTH 1000 0
DWIDTH 24 0
BBX 21 23 2 -4
BITMAP
100040
300060
600060
600330
600330
CFF330
CFF330
C03338
C03318
C07318
C063D8
C063D8
C0C318
C1C318
C38318
C70338
DE0338
DC0330
600330
600330
600360
300060
300040
ENDCHAR
STARTCHAR 320F
ENCODING 12815
SWIDTH 1000 0
DWIDTH 24 0
BBX 21 23 2 -4
BITMAP
300040
200060
600060
600330
600330
D80330
D80330
D80338
D80318
D80318
D803D8
D803D8
D80318
D80B18
DFFB18
DFE338
C00338
C00330
600330
600330
600360
200060
300040
ENDCHAR
STARTCHAR 3210
ENCODING 12816
SWIDTH 1000 0
DWIDTH 24 0
BBX 21 23 2 -4
BITMAP
300040
200060
600060
600330
600330
DFE330
DFE330
D80338
D80318
D80318
D803D8
D803D8
D80318
D80318
D81B18
DFFB38
DFF338
C00330
600330
600330
600360
200060
300040
ENDCHAR
STARTCHAR 3211
ENCODING 12817
SWIDTH 1000 0
DWIDTH 24 0
BBX 21 22 2 -3
BITMAP
200040
200060
600320
600330
DFE330
DFE330
C06338
C06318
C06318
DFE3D8
DFE3D8
D80318
D80318
D80318
D81338
DFFB38
DFF330
600330
600330
600360
200060
300040
ENDCHAR
STARTCHAR 3212
ENCODING 12818
SWIDTH 1000 0
DWIDTH 24 0
BBX 21 23 2 -4
BITMAP
300040
200060
600060
600330
600330
DFE330
DFE330
D86338
D86318
D86318
D863D8
D863D8
D86318
D86318
D86318
DFE338
DFE338
C00330
600330
600330
600360
200060
300040
ENDCHAR
STARTCHAR 3213
ENCODING 12819
SWIDTH 1000 0
DWIDTH 24 0
BBX 21 23 2 -4
BITMAP
300040
200060
600060
600330
600330
C06330
D86330
D86338
D86318
D86318
DFE3D8
DFE3D8
D86318
D86318
D86318
DFE338
DFE338
C00330
400330
600330
600360
200060
300040
ENDCHAR
STARTCHAR 3214
ENCODING 12820
SWIDTH 1000 0
DWIDTH 24 0
BBX 21 22 2 -3
BITMAP
300060
200060
600330
600330
E18330
C18330
C38338
C38318
C38318
C383D8
C7C3D8
C7C318
CEE318
DC7318
FC3B18
D81338
C00330
600330
600330
600320
200060
300040
ENDCHAR
STARTCHAR 3215
ENCODING 12821
SWIDTH 1000 0
DWIDTH 24 0
BBX 21 22 2 -3
BITMAP
300060
200060
600320
638330
EFE330
CC6330
DC7338
D83318
D83318
D833D8
D833D8
D83318
D83318
DC7318
CC6318
CFE338
C38330
600330
600330
600360
200060
300040
ENDCHAR
STARTCHAR 3216
ENCODING 12822
SWIDTH 1000 0
DWIDTH 24 0
BBX 21 22 2 -4
BITMAP
300040
200060
600360
600330
C00330
DFF330
DFF338
C38318
C38318
C383D8
C383D8
C7C318
C6E318
CE7318
DC7B38
D83B38
D00330
600330
600330
600360
200060
300040
ENDCHAR
STARTCHAR 3217
ENCODING 12823
SWIDTH 1000 0
DWIDTH 24 0
BBX 21 23 2 -4
BITMAP
100040
300060
200060
600330
63E330
E3E330
C00330
CFFB38
CFFB18
C18318
C183D8
C1C3D8
C3C318
C3E318
C76318
CE7338
DC3B38
DC1B30
600330
600330
600360
300060
100040
ENDCHAR
STARTCHAR 3218
ENCODING 12824
SWIDTH 1000 0
DWIDTH 24 0
BBX 21 23 2 -4
BITMAP
300040
200060
600060
600330
600330
DFF330
DFF330
C03338
C07318
C1E318
DFE3D8
DEE3D8
C0C318
C1C318
C38318
C70338
DE0338
DC0330
600330
600330
600360
200060
300040
ENDCHAR
STARTCHAR 3219
ENCODING 12825
SWIDTH 1000 0
DWIDTH 24 0
BBX 21 23 2 -4
BITMAP
300040
200060
600060
600330
600330
DFE330
DFE330
D80338
D80318
D80318
DFE3D8
DFE3D8
D80318
D80318
D80318
D81338
DFF338
DFF330
600330
600330
600360
200060
300040
ENDCHAR
STARTCHAR 321A
ENCODING 12826
SWIDTH 1000 0
DWIDTH 24 0
BBX 21 23 2 -4
BITMAP
300040
200060
600060
600330
600330
DFF330
DFF330
C00338
C66318
CE6318
C663D8
C663D8
C66318
C66318
C66318
DFFB38
DFFB30
C00330
600330
600330
600360
200060
300040
ENDCHAR
STARTCHAR 321B
ENCODING 12827
SWIDTH 1000 0
DWIDTH 24 0
BBX 21 22 2 -3
BITMAP
300040
200060
600320
600330
C7C330
C7C330
C00338
DFFB18
DFFB18
C7C3D8
CFE3D8
DC7318
D83318
D83318
DC7338
CFE338
C7C330
600330
600330
600360
200060
100040
ENDCHAR
STARTCHAR 321C
ENCODING 12828
SWIDTH 1000 0
DWIDTH 24 0
BBX 21 23 1 -4
BITMAP
100060
300060
200030
600030
6FFFB0
6FFF98
407018
C07818
C1FE18
C7CFD8
CF07D8
CC00D8
C00018
DFFFF8
DFFFF8
C03018
C03018
603018
603030
603030
203030
300060
100060
ENDCHAR
STARTCHAR 3231
ENCODING 12849
SWIDTH 1000 0
DWIDTH 24 0
BBX 21 23 1 -5
BITMAP
100040
300060
200020
660630
663630
663610
C63FD8
DF7FD8
DF6618
C6E618
CF0618
CF7FF8
CFFFF8
DF0E18
DE0F18
D61F98
C636D8
46F6F8
664670
660630
660630
200020
300060
ENDCHAR
STARTCHAR 3239
ENCODING 12857
SWIDTH 1000 0
DWIDTH 24 0
BBX 21 22 1 -3
BITMAP
300060
320020
633230
633330
633390
473118
C63FD8
CEFFD8
CEF818
DE3818
DE1818
D61818
C61C18
C61C18
C60C18
C60E98
6606D8
6607F0
6603F0
200030
300020
300060
ENDCHAR
STARTCHAR 3260
ENCODING 12896
SWIDTH 1000 0
DWIDTH 24 0
BBX 21 21 2 -4
BITMAP
01FC00
070700
0C0180
100040
200020
600030
4FFE10
CFFE18
800E08
800E08
800E08
800E08
800E08
800E18
400E10
400E30
200020
300040
180180
060700
01FC00
ENDCHAR
STARTCHAR 3261
ENCODING 12897
SWIDTH 1000 0
DWIDTH 24 0
BBX 21 21 2 -4
BITMAP
01FC00
070700
0C0180
100040
200020
670030
470010
C70018
870008
870008
870008
870008
870008
87FF18
47FF10
400030
200020
300040
180180
060700
01FC00
ENDCHAR
STARTCHAR 3262
ENCODING 12898
SWIDTH 1000 0
DWIDTH 24 0
BBX 21 21 2 -4
BITMAP
01FC00
070700
0C0180
100040
200020
600030
47FF10
C7FF18
870008
870008
870008
870008
870008
870018
47FF90
47FFB0
200020
300040
180180
060700
01FC00
ENDCHAR
STARTCHAR 3263
ENCODING 12899
SWIDTH 1000 0
DWIDTH 24 0
BBX 21 21 2 -4
BITMAP
01FC00
070700
0C0180
100040
200020
600030
47FF10
C7FF18
800708
800708
87FF08
87FF08
870008
870018
47FF90
47FFB0
200020
300040
180180
060700
01FC00
ENDCHAR
STARTCHAR 3264
ENCODING 12900
SWIDTH 1000 0
DWIDTH 24 0
BBX 21 21 2 -4
BITMAP
01FC00
070700
0C0180
100040
200020
600030
47FF10
C7FF18
870708
870708
870708
870708
870708
87FF18
47FF10
470730
200020
300040
180180
060700
01FC00
ENDCHAR
STARTCHAR 3265
ENCODING 12901
SWIDTH 1000 0
DWIDTH 24 0
BBX 21 21 2 -4
BITMAP
01FC00
070700
0C0180
100040
200020
600030
470710
C70718
870708
87FF08
87FF08
870708
870708
87FF18
47FF10
470730
200020
300040
180180
060700
01FC00
ENDCHAR
STARTCHAR 3266
ENCODING 12902
SWIDTH 1000 0
DWIDTH 24 0
BBX 21 21 2 -4
BITMAP
01FC00
070700
0C0180
100040
200020
607030
407010
C07018
807008
807808
80F808
81DC08
83CE08
878798
4F0390
440130
200020
300040
180180
060700
01FC00
ENDCHAR
STARTCHAR 3267
ENCODING 12903
SWIDTH 1000 0
DWIDTH 24 0
BBX 21 21 2 -4
BITMAP
01FC00
070700
0C0180
100040
200020
60F830
43FC10
C78E18
870708
8E0708
8E0708
8E0708
870708
878E18
43FC10
40F830
200020
300040
180180
060700
01FC00
ENDCHAR
STARTCHAR 3268
ENCODING 12904
SWIDTH 1000 0
DWIDTH 24 0
BBX 21 21 2 -4
BITMAP
01FC00
070700
0C0180
100040
200020
600030
4FFF10
CFFF18
806008
806008
80F008
80F808
81DC08
839E18
4F0F90
4E03B0
200020
300040
180180
060700
01FC00
ENDCHAR
STARTCHAR 3269
ENCODING 12905
SWIDTH 1000 0
DWIDTH 24 0
BBX 21 21 2 -4
BITMAP
01FC00
070700
0C0180
100040
21F820
61F830
400010
C00018
8FFF08
8FFF08
806008
80F008
81F808
83DC18
4F8F90
4F07B0
2C0120
300040
180180
060700
01FC00
ENDCHAR
STARTCHAR 326A
ENCODING 12906
SWIDTH 1000 0
DWIDTH 24 0
BBX 21 21 2 -4
BITMAP
01FC00
070700
0C0180
100040
200020
600030
47FF10
C7FF18
800708
800708
800F08
8FFF08
8FFF08
800718
400710
400730
200020
300040
180180
060700
01FC00
ENDCHAR
STARTCHAR 326B
ENCODING 12907
SWIDTH 1000 0
DWIDTH 24 0
BBX 21 21 2 -4
BITMAP
01FC00
070700
0C0180
100040
200020
600030
47FF10
C7FF18
870008
870008
87FF08
87FF08
870008
870018
47FF10
47FF30
200020
300040
180180
060700
01FC00
ENDCHAR
STARTCHAR 326C
ENCODING 12908
SWIDTH 1000 0
DWIDTH 24 0
BBX 21 21 2 -4
BITMAP
01FC00
070700
0C0180
100040
200020
600030
4FFF10
CFFF18
800008
838C08
838C08
838C08
838C08
838C18
4FFF90
4FFFB0
200020
300040
180180
060700
01FC00
ENDCHAR
STARTCHAR 326D
ENCODING 12909
SWIDTH 1000 0
DWIDTH 24 0
BBX 21 21 2 -4
BITMAP
01FC00
070700
0C0180
100040
21F820
61F830
400010
C00018
9FFF88
9FFF88
800008
81FC08
83FE08
838E18
470710
438E30
23FE20
30F840
180180
060700
01FC00
ENDCHAR
STARTCHAR 326E
ENCODING 12910
SWIDTH 1000 0
DWIDTH 24 0
BBX 21 21 2 -4
BITMAP
01FC00
070700
0C0180
100340
200320
6FF330
4FF310
C03318
803308
8063C8
8063C8
80C308
81C308
838318
4F0310
4C0330
200320
300340
180180
060700
01FC00
ENDCHAR
STARTCHAR 326F
ENCODING 12911
SWIDTH 1000 0
DWIDTH 24 0
BBX 21 21 2 -4
BITMAP
01FC00
070700
0C0180
100640
200620
600630
4C0610
CC0618
8C0608
8C0788
8C0788
8C0608
8C1608
8FF618
4FC610
400630
200620
300640
180180
060700
01FC00
ENDCHAR
STARTCHAR 3270
ENCODING 12912
SWIDTH 1000 0
DWIDTH 24 0
BBX 21 21 2 -4
BITMAP
01FC00
070700
0C0180
100640
200620
6FE630
4FE610
CC0618
8C0608
8C0788
8C0788
8C0608
8C0608
8C1618
4FF610
4FC630
200620
300640
180180
060700
01FC00
ENDCHAR
STARTCHAR 3271
ENCODING 12913
SWIDTH 1000 0
DWIDTH 24 0
BBX 21 21 2 -4
BITMAP
01FC00
070700
0C0180
100340
2FE320
6FE330
406310
C06318
806308
8FE3C8
8FE3C8
8C0308
8C0308
8C0318
4FFB10
4FF330
200320
300340
180180
060700
01FC00
ENDCHAR
STARTCHAR 3272
ENCODING 12914
SWIDTH 1000 0
DWIDTH 24 0
BBX 21 21 2 -4
BITMAP
01FC00
070700
0C0180
100640
200620
6FE630
4FE610
CC6618
8C6608
8C6788
8C6788
8C6608
8C6608
8FE618
4FE610
400630
200620
300640
180180
060700
01FC00
ENDCHAR
STARTCHAR 3273
ENCODING 12915
SWIDTH 1000 0
DWIDTH 24 0
BBX 21 21 2 -4
BITMAP
01FC00
070700
0C0180
100640
200620
6C6630
4C6610
CC6618
8C6608
8FE788
8FE788
8C6608
8C6608
8FE618
4FE610
400630
200620
300640
180180
060700
01FC00
ENDCHAR
ENDFONT
